SplineFontDB: 3.0
FontName: MedievalSharp-BoldOblique
FullName: Medieval Sharp Bold Oblique
FamilyName: Medieval Sharp
Weight: Bold
Copyright: Copyright (c) 2020-2024 by Wojciech Kalinowski "wmk69" with Reserved Font Name "MedievalSharp-BoldOblique".\nThis Font Software is licensed under the SIL Open Font License, Version 1.1.
Version: 3.1.0; 2021-05-14
ItalicAngle: -12
UnderlinePosition: -80
UnderlineWidth: 300
Ascent: 1638
Descent: 410
InvalidEm: 0
LayerCount: 2
Layer: 0 1 "Warstwa t+AUIA-a" 1
Layer: 1 1 "Plan pierwszy" 0
XUID: [1021 783 23647091 8578152]
StyleMap: 0x0021
FSType: 0
OS2Version: 3
OS2_WeightWidthSlopeOnly: 0
OS2_UseTypoMetrics: 1
CreationTime: 1260698820
ModificationTime: 1621003300
PfmFamily: 17
TTFWeight: 700
TTFWidth: 5
LineGap: 200
VLineGap: 0
Panose: 2 14 8 2 5 2 3 1 2 4
OS2TypoAscent: 2020
OS2TypoAOffset: 0
OS2TypoDescent: -450
OS2TypoDOffset: 0
OS2TypoLinegap: 200
OS2WinAscent: 2020
OS2WinAOffset: 0
OS2WinDescent: 450
OS2WinDOffset: 0
HheadAscent: 2020
HheadAOffset: 0
HheadDescent: -450
HheadDOffset: 0
OS2SubXSize: 1434
OS2SubYSize: 1331
OS2SubXOff: 0
OS2SubYOff: 287
OS2SupXSize: 1434
OS2SupYSize: 1331
OS2SupXOff: 0
OS2SupYOff: 977
OS2StrikeYSize: 102
OS2StrikeYPos: 512
OS2CapHeight: 1510
OS2XHeight: 1130
OS2Vendor: '    '
OS2CodePages: 20000093.00000000
OS2UnicodeRanges: 8000002f.4000204b.00000000.00000000
Lookup: 258 0 0 "'kern' Horizontal Kerning lookup 0" { "'kern' Horizontal Kerning lookup 0-1 subtable" [307,0,4] } ['kern' ('DFLT' <'dflt' > 'latn' <'dflt' > ) ]
MarkAttachClasses: 1
DEI: 91125
KernClass2: 67 56 "'kern' Horizontal Kerning lookup 0-1 subtable"
 84 A Agrave Aacute Acircumflex Atilde Adieresis Aring Amacron Abreve Aogonek Aringacute
 17 B uni1E02 uni1E9E
 47 C Ccedilla Cacute Ccircumflex Cdotaccent Ccaron
 19 D Eth Dcaron Dcroat
 92 E AE Egrave Eacute Ecircumflex Edieresis Emacron Ebreve Edotaccent Eogonek Ecaron OE AEacute
 9 F uni1E1E
 44 G Gcircumflex Gbreve Gdotaccent Gcommaaccent

StartChar: .notdef
Encoding: 65536 -1 0
Width: 1034
Flags: W
HStem: 0 138<369 723> 1372 138<632 986>
VStem: 110 814<0 814> 431 814<696 1510>
DStem2: 110 0 339.667 0 0.207912 0.978148<188.833 1450.55> 693.667 0 924 0 0.207912 0.978148<141.083 1402.8>
LayerCount: 2
Fore
SplineSet
110 0 m 1,0,-1
 431 1510 l 1,1,-1
 1245 1510 l 1,2,-1
 924 0 l 1,3,-1
 110 0 l 1,0,-1
632 1372 m 1,4,-1
 369 138 l 1,5,-1
 723 138 l 1,6,-1
 986 1372 l 1,7,-1
 632 1372 l 1,4,-1
EndSplineSet
Validated: 1
EndChar

StartChar: exclam
Encoding: 33 33 4
Width: 662
GlyphClass: 2
Flags: W
HStem: 0 21G<287.5 372.5> 1490 20G<729.5 852>
VStem: 181 388<121.374 297.5>
LayerCount: 2
Fore
SplineSet
843 1510 m 1,0,1
 852 1504 l 1,2,3
 750 1299 750 1299 670 1045 c 128,-1,4
 590 791 590 791 530 507 c 1,5,6
 437 488 437 488 345 448 c 1,7,-1
 337 454 l 1,8,9
 397 738 397 738 418 960 c 0,10,11
 431 1093 431 1093 431 1220 c 0,12,13
 431 1305 431 1305 425 1387 c 1,14,15
 616 1409 616 1409 843 1510 c 1,0,1
336 0 m 1,16,-1
 326 0 l 1,17,18
 249 31 249 31 212 75 c 0,19,20
 181 112 181 112 181 164 c 0,21,22
 181 185 181 185 186 208 c 0,23,24
 203 289 203 289 268 341 c 0,25,26
 323 385 323 385 414 416 c 1,27,-1
 424 416 l 1,28,29
 487 393 487 393 534 340 c 0,30,31
 569 301 569 301 569 248 c 0,32,33
 569 229 569 229 564 208 c 0,34,35
 547 129 547 129 478 76 c 128,-1,36
 409 23 409 23 336 0 c 1,16,-1
EndSplineSet
Validated: 1
EndChar

StartChar: quotedbl
Encoding: 34 34 5
Width: 596
GlyphClass: 2
Flags: W
HStem: 1108 442
VStem: 358 217<1281.23 1503.5> 663 217<1281.23 1503.5>
LayerCount: 2
Fore
SplineSet
868 1550 m 1,0,-1
 877 1544 l 1,1,2
 880 1517 880 1517 880 1490 c 0,3,4
 880 1432 880 1432 867 1371 c 0,5,6
 848 1283 848 1283 780 1191 c 1,7,8
 700 1170 700 1170 571 1108 c 1,9,-1
 562 1114 l 1,10,11
 636 1210 636 1210 656 1304 c 0,12,13
 663 1339 663 1339 663 1370 c 0,14,15
 663 1422 663 1422 642 1462 c 1,16,17
 732 1488 732 1488 868 1550 c 1,0,-1
563 1550 m 1,18,-1
 572 1544 l 1,19,20
 575 1517 575 1517 575 1490 c 0,21,22
 575 1432 575 1432 562 1371 c 0,23,24
 543 1283 543 1283 475 1191 c 1,25,26
 395 1170 395 1170 266 1108 c 1,27,-1
 257 1114 l 1,28,29
 331 1210 331 1210 351 1304 c 0,30,31
 358 1339 358 1339 358 1370 c 0,32,33
 358 1422 358 1422 337 1462 c 1,34,35
 427 1488 427 1488 563 1550 c 1,18,-1
EndSplineSet
Validated: 1
EndChar

StartChar: numbersign
Encoding: 35 35 6
Width: 1487
GlyphClass: 2
Flags: W
HStem: 377 233<317.706 564.218 1125.03 1379> 424 137<749 941> 746 233<396.12 649.124 1208.94 1457.56> 793 137<832 1024>
DStem2: 866.683 44 1007.41 44 0.207912 0.978148<565.987 763.384>
LayerCount: 2
Fore
SplineSet
945 1312 m 1,0,-1
 954 1306 l 1,1,2
 886 1123 886 1123 832 932 c 1,3,4
 885 930 885 930 937 930 c 0,5,6
 992 930 992 930 1046 931 c 1,7,8
 1064 1074 1064 1074 1069 1208 c 1,9,10
 1155 1234 1155 1234 1313 1312 c 1,11,-1
 1322 1306 l 1,12,13
 1255 1126 1255 1126 1203 938 c 1,14,15
 1393 950 1393 950 1579 979 c 1,16,-1
 1583 969 l 1,17,18
 1475 826 1475 826 1432 746 c 1,19,20
 1304 771 1304 771 1163 783 c 1,21,22
 1151 730 1151 730 1139 674 c 0,23,24
 1128 622 1128 622 1119 569 c 1,25,26
 1312 581 1312 581 1501 610 c 1,27,-1
 1505 600 l 1,28,29
 1397 457 1397 457 1353 377 c 1,30,31
 1230 401 1230 401 1096 413 c 1,32,33
 1081 284 1081 284 1075 148 c 1,34,35
 979 118 979 118 831 44 c 1,36,-1
 823 50 l 1,37,38
 891 236 891 236 941 422 c 1,39,40
 885 424 885 424 828 424 c 0,41,42
 778 424 778 424 728 423 c 1,43,44
 711 288 711 288 707 148 c 1,45,46
 609 118 609 118 461 44 c 1,47,-1
 453 50 l 1,48,49
 520 233 520 233 570 416 c 1,50,51
 385 405 385 405 196 377 c 1,52,-1
 192 387 l 1,53,54
 294 519 294 519 344 610 c 1,55,56
 479 585 479 585 610 573 c 1,57,58
 622 622 622 622 633 672 c 0,59,60
 645 729 645 729 655 785 c 1,61,62
 467 774 467 774 275 746 c 1,63,-1
 271 756 l 1,64,65
 373 888 373 888 422 979 c 1,66,67
 552 955 552 955 678 943 c 1,68,69
 695 1080 695 1080 699 1208 c 1,70,71
 784 1234 784 1234 945 1312 c 1,0,-1
1024 791 m 1,72,73
 966 793 966 793 907 793 c 0,74,75
 852 793 852 793 796 792 c 1,76,77
 782 734 782 734 769 674 c 0,78,79
 757 619 757 619 749 563 c 1,80,81
 805 561 805 561 858 561 c 0,82,83
 917 561 917 561 977 563 c 1,84,85
 990 618 990 618 1001 672 c 0,86,87
 1013 732 1013 732 1024 791 c 1,72,73
EndSplineSet
Validated: 1
EndChar

StartChar: percent
Encoding: 37 37 7
Width: 1829
GlyphClass: 2
Flags: W
HStem: 0 21G<597 659 1301.5 1456> 1490 20G<694 848.5 1491 1553>
VStem: 339 183<987.5 1215.87> 865 183<1015.19 1244> 1102 183<266 494.807> 1628 183<294.128 522.5>
LayerCount: 2
Fore
SplineSet
1588 198 m 1,0,1
 1611 236 1611 236 1622 285 c 0,2,3
 1628 313 1628 313 1628 339 c 0,4,5
 1628 447 1628 447 1524 515 c 0,6,7
 1452 563 1452 563 1324 585 c 1,8,9
 1301 548 1301 548 1291 500 c 0,10,11
 1285 471 1285 471 1285 445 c 0,12,13
 1285 336 1285 336 1388 268 c 0,14,15
 1460 220 1460 220 1588 198 c 1,0,1
1378 0 m 1,16,-1
 1368 0 l 1,17,18
 1235 55 1235 55 1172 129 c 0,19,20
 1102 213 1102 213 1102 319 c 0,21,22
 1102 356 1102 356 1111 396 c 0,23,24
 1146 560 1146 560 1306 670 c 0,25,26
 1403 736 1403 736 1534 783 c 1,27,-1
 1544 783 l 1,28,29
 1657 740 1657 740 1724 670 c 0,30,31
 1811 580 1811 580 1811 465 c 0,32,33
 1811 431 1811 431 1803 396 c 0,34,35
 1770 243 1770 243 1628 129 c 0,36,37
 1534 54 1534 54 1378 0 c 1,16,-1
562 1312 m 1,38,39
 539 1274 539 1274 528 1225 c 0,40,41
 522 1197 522 1197 522 1171 c 0,42,43
 522 1064 522 1064 625 995 c 0,44,45
 697 947 697 947 826 925 c 1,46,47
 849 962 849 962 859 1010 c 0,48,49
 865 1039 865 1039 865 1065 c 0,50,51
 865 1174 865 1174 762 1242 c 0,52,53
 690 1290 690 1290 562 1312 c 1,38,39
772 1510 m 1,54,-1
 782 1510 l 1,55,56
 915 1455 915 1455 978 1381 c 0,57,58
 1048 1297 1048 1297 1048 1191 c 0,59,60
 1048 1154 1048 1154 1039 1114 c 0,61,62
 1004 950 1004 950 844 840 c 0,63,64
 747 774 747 774 616 727 c 1,65,-1
 606 727 l 1,66,67
 493 770 493 770 426 840 c 0,68,69
 339 930 339 930 339 1045 c 0,70,71
 339 1079 339 1079 347 1114 c 0,72,73
 380 1267 380 1267 522 1381 c 0,74,75
 616 1456 616 1456 772 1510 c 1,54,-1
649 0 m 1,76,77
 545 65 545 65 338 99 c 1,78,79
 956 731 956 731 1491 1504 c 1,80,-1
 1501 1510 l 1,81,82
 1605 1445 1605 1445 1812 1411 c 1,83,84
 1192 778 1192 778 659 6 c 1,85,-1
 649 0 l 1,76,77
EndSplineSet
Validated: 1
EndChar

StartChar: ampersand
Encoding: 38 38 8
Width: 1459
VWidth: 0
GlyphClass: 2
Flags: W
HStem: 0 21G<517 713.5 1038 1155> 1490 20G<838 1018.5>
VStem: 181 283<446 604.069> 396 224<1001 1213> 1269 244<650.414 872.303>
LayerCount: 2
Fore
SplineSet
617 0 m 1,0,1
 607 0 l 1,2,3
 427 59 427 59 318 170 c 0,4,5
 181 310 181 310 181 446 c 0,6,7
 181 469 181 469 185 492 c 0,8,9
 225 725 225 725 518 792 c 1,10,11
 396 880 396 880 396 1001 c 0,12,13
 396 1028 396 1028 402 1057 c 0,14,15
 440 1236 440 1236 613 1359 c 0,16,17
 748 1454 748 1454 928 1510 c 1,18,-1
 938 1510 l 1,19,20
 1099 1452 1099 1452 1189 1359 c 0,21,22
 1227 1320 1227 1320 1246 1277 c 1,23,-1
 1241 1266 l 1,24,25
 1111 1239 1111 1239 972 1177 c 1,26,27
 960 1187 960 1187 946 1196 c 0,28,29
 819 1276 819 1276 649 1276 c 1,30,31
 631 1246 631 1246 624 1213 c 0,32,33
 620 1194 620 1194 620 1176 c 0,34,35
 620 997 620 997 1027 932 c 1,36,37
 1094 696 1094 696 1193 494 c 1,38,39
 1243 577 1243 577 1263 675 c 0,40,41
 1269 703 1269 703 1269 729 c 0,42,43
 1269 799 1269 799 1228 862 c 1,44,45
 1344 887 1344 887 1492 960 c 1,46,-1
 1501 954 l 1,47,48
 1513 902 1513 902 1513 851 c 0,49,50
 1513 805 1513 805 1503 760 c 0,51,52
 1458 549 1458 549 1259 369 c 1,53,54
 1334 238 1334 238 1425 123 c 1,55,56
 1263 102 1263 102 1047 0 c 1,57,-1
 1038 6 l 1,58,59
 1014 95 1014 95 989 178 c 1,60,61
 810 77 810 77 617 0 c 1,0,1
961 266 m 1,62,63
 864 563 864 563 749 780 c 1,64,65
 494 753 494 753 468 629 c 0,66,67
 464 610 464 610 464 592 c 0,68,69
 464 502 464 502 557 411 c 0,70,71
 686 287 686 287 937 252 c 1,72,73
 950 259 950 259 961 266 c 1,62,63
EndSplineSet
Validated: 1
EndChar

StartChar: quotesingle
Encoding: 39 39 9
Width: 291
GlyphClass: 2
Flags: W
HStem: 1108 442
VStem: 358 217<1281.23 1503.5>
LayerCount: 2
Fore
SplineSet
563 1550 m 1,0,-1
 572 1544 l 1,1,2
 575 1517 575 1517 575 1490 c 0,3,4
 575 1432 575 1432 562 1371 c 0,5,6
 543 1283 543 1283 475 1191 c 1,7,8
 395 1170 395 1170 266 1108 c 1,9,-1
 257 1114 l 1,10,11
 331 1210 331 1210 351 1304 c 0,12,13
 358 1339 358 1339 358 1370 c 0,14,15
 358 1422 358 1422 337 1462 c 1,16,17
 427 1488 427 1488 563 1550 c 1,0,-1
EndSplineSet
Validated: 1
EndChar

StartChar: parenleft
Encoding: 40 40 10
Width: 935
GlyphClass: 2
Flags: W
VStem: 230 253<298.877 761.173>
LayerCount: 2
Fore
SplineSet
1229 1761 m 1,0,1
 916 1553 916 1553 730 1281 c 0,2,3
 564 1037 564 1037 507 766 c 0,4,5
 483 649 483 649 483 547 c 0,6,7
 483 360 483 360 565 224 c 0,8,9
 676 43 676 43 906 -89 c 1,10,-1
 563 -273 l 1,11,12
 379 -107 379 -107 292 111 c 0,13,14
 230 266 230 266 230 444 c 0,15,16
 230 562 230 562 257 690 c 0,17,18
 326 1013 326 1013 537 1281 c 0,19,20
 817 1635 817 1635 1231 1771 c 1,21,-1
 1229 1761 l 1,0,1
EndSplineSet
Validated: 1
EndChar

StartChar: parenright
Encoding: 41 41 11
Width: 935
GlyphClass: 2
Flags: W
VStem: 770 254<736.749 1194.41>
LayerCount: 2
Fore
SplineSet
24 -263 m 1,0,1
 337 -55 337 -55 523 217 c 0,2,3
 691 462 691 462 747 732 c 0,4,5
 770 844 770 844 770 944 c 0,6,7
 770 1130 770 1130 689 1273 c 0,8,9
 581 1465 581 1465 347 1587 c 1,10,-1
 690 1771 l 1,11,12
 874 1605 874 1605 962 1387 c 0,13,14
 1024 1232 1024 1232 1024 1054 c 0,15,16
 1024 936 1024 936 997 808 c 0,17,18
 928 485 928 485 716 217 c 0,19,20
 436 -137 436 -137 22 -273 c 1,21,-1
 24 -263 l 1,0,1
EndSplineSet
Validated: 1
EndChar

StartChar: asterisk
Encoding: 42 42 12
Width: 922
VWidth: 0
GlyphClass: 2
Flags: W
LayerCount: 2
Fore
SplineSet
894 1550 m 1,0,-1
 901 1545 l 1,1,2
 831 1399 831 1399 792 1259 c 1,3,4
 887 1319 887 1319 974 1393 c 1,5,6
 1024 1330 1024 1330 1129 1258 c 1,7,-1
 1127 1249 l 1,8,9
 970 1209 970 1209 830 1147 c 1,10,11
 945 1085 945 1085 1084 1045 c 1,12,-1
 1082 1036 l 1,13,14
 934 955 934 955 870 901 c 1,15,16
 815 974 815 974 746 1032 c 1,17,18
 740 974 740 974 740 916 c 0,19,20
 740 876 740 876 743 836 c 1,21,22
 666 817 666 817 515 744 c 1,23,-1
 508 749 l 1,24,25
 578 896 578 896 618 1035 c 1,26,27
 523 975 523 975 436 901 c 1,28,29
 394 955 394 955 280 1036 c 1,30,-1
 282 1045 l 1,31,32
 439 1085 439 1085 580 1147 c 1,33,34
 465 1209 465 1209 325 1249 c 1,35,-1
 327 1258 l 1,36,37
 463 1330 463 1330 540 1393 c 1,38,39
 596 1321 596 1321 663 1262 c 1,40,41
 669 1322 669 1322 669 1384 c 0,42,43
 669 1421 669 1421 667 1458 c 1,44,45
 757 1481 757 1481 894 1550 c 1,0,-1
EndSplineSet
Validated: 1
EndChar

StartChar: plus
Encoding: 43 43 13
Width: 1234
VWidth: 0
GlyphClass: 2
Flags: W
HStem: 590 298<400.246 459.5 1017.93 1145.94>
LayerCount: 2
Fore
SplineSet
713 1129 m 1,0,1
 832 1152 832 1152 1027 1251 c 1,2,-1
 1036 1245 l 1,3,4
 935 1033 935 1033 883 833 c 1,5,6
 1085 841 1085 841 1309 898 c 1,7,-1
 1313 888 l 1,8,9
 1167 690 1167 690 1130 600 c 1,10,11
 993 640 993 640 848 652 c 1,12,13
 834 551 834 551 834 450 c 0,14,15
 834 405 834 405 837 359 c 1,16,17
 743 341 743 341 523 237 c 1,18,-1
 515 243 l 1,19,20
 616 455 616 455 667 655 c 1,21,22
 465 647 465 647 241 590 c 1,23,-1
 238 600 l 1,24,25
 374 774 374 774 421 888 c 1,26,27
 558 848 558 848 703 836 c 1,28,29
 716 936 716 936 716 1035 c 0,30,31
 716 1082 716 1082 713 1129 c 1,0,1
EndSplineSet
Validated: 1
EndChar

StartChar: comma
Encoding: 44 44 14
Width: 453
GlyphClass: 2
Flags: W
HStem: -282 16<-36 -25.4661>
VStem: 70 398<66.0256 296.195>
LayerCount: 2
Fore
SplineSet
215 0 m 1,0,1
 138 31 138 31 101 75 c 0,2,3
 70 112 70 112 70 164 c 0,4,5
 70 185 70 185 75 208 c 0,6,7
 92 289 92 289 157 341 c 0,8,9
 212 385 212 385 303 416 c 1,10,-1
 313 416 l 1,11,12
 373 396 373 396 410 355 c 0,13,14
 468 291 468 291 468 200 c 0,15,16
 468 167 468 167 460 129 c 0,17,18
 397 -169 397 -169 -39 -282 c 1,19,-1
 -36 -266 l 1,20,21
 166 -140 166 -140 215 0 c 1,0,1
EndSplineSet
Validated: 1
EndChar

StartChar: hyphen
Encoding: 45 45 15
Width: 1234
VWidth: 0
GlyphClass: 2
Flags: W
HStem: 590 298<400.246 462.937 1016.42 1145.94> 656 176<462.937 1088.05>
LayerCount: 2
Fore
SplineSet
421 888 m 1,0,1
 612 832 612 832 816 832 c 0,2,3
 1047 832 1047 832 1309 898 c 1,4,-1
 1313 888 l 1,5,6
 1167 690 1167 690 1130 600 c 1,7,8
 939 656 939 656 734 656 c 0,9,10
 503 656 503 656 241 590 c 1,11,-1
 238 600 l 1,12,13
 374 774 374 774 421 888 c 1,0,1
EndSplineSet
Validated: 1
EndChar

StartChar: period
Encoding: 46 46 16
Width: 418
GlyphClass: 2
Flags: W
HStem: 0 416
VStem: 59 388<121.374 297.5>
LayerCount: 2
Fore
SplineSet
214 0 m 1,0,-1
 204 0 l 1,1,2
 127 31 127 31 90 75 c 0,3,4
 59 112 59 112 59 164 c 0,5,6
 59 185 59 185 64 208 c 0,7,8
 81 289 81 289 146 341 c 0,9,10
 201 385 201 385 292 416 c 1,11,-1
 302 416 l 1,12,13
 365 393 365 393 412 340 c 0,14,15
 447 301 447 301 447 248 c 0,16,17
 447 229 447 229 442 208 c 0,18,19
 425 129 425 129 356 76 c 128,-1,20
 287 23 287 23 214 0 c 1,0,-1
EndSplineSet
Validated: 1
EndChar

StartChar: slash
Encoding: 47 47 17
Width: 1245
GlyphClass: 2
Flags: W
LayerCount: 2
Fore
SplineSet
310 -150 m 1,0,1
 206 -85 206 -85 -1 -51 c 1,2,3
 379 371 379 371 732 862 c 0,4,5
 1012 1250 1012 1250 1246 1654 c 1,6,-1
 1256 1660 l 1,7,8
 1360 1595 1360 1595 1567 1561 c 1,9,10
 1214 1139 1214 1139 926 750 c 0,11,12
 611 322 611 322 320 -144 c 1,13,-1
 310 -150 l 1,0,1
EndSplineSet
Validated: 1
EndChar

StartChar: zero
Encoding: 48 48 18
Width: 1394
VWidth: 0
GlyphClass: 2
Flags: W
HStem: 0 21G<566.5 847.5> 1490 20G<872 1147.5>
VStem: 222 262<503.5 847.264> 1231 262<664.52 1007>
LayerCount: 2
Fore
SplineSet
1106 314 m 1,0,1
 1188 435 1188 435 1217 574 c 0,2,3
 1231 641 1231 641 1231 701 c 0,4,5
 1231 939 1231 939 1012 1080 c 0,6,7
 833 1196 833 1196 609 1196 c 1,8,9
 527 1075 527 1075 498 936 c 0,10,11
 484 869 484 869 484 809 c 0,12,13
 484 572 484 572 703 430 c 0,14,15
 882 314 882 314 1106 314 c 1,0,1
702 0 m 1,16,-1
 692 0 l 1,17,18
 441 98 441 98 327 261 c 0,19,20
 222 412 222 412 222 595 c 0,21,22
 222 668 222 668 238 746 c 0,23,24
 296 1020 296 1020 548 1254 c 0,25,26
 731 1425 731 1425 1013 1510 c 1,27,-1
 1023 1510 l 1,28,29
 1272 1412 1272 1412 1387 1249 c 0,30,31
 1493 1099 1493 1099 1493 915 c 0,32,33
 1493 843 1493 843 1477 766 c 0,34,35
 1419 491 1419 491 1167 256 c 0,36,37
 993 92 993 92 702 0 c 1,16,-1
EndSplineSet
Validated: 1
EndChar

StartChar: one
Encoding: 49 49 19
Width: 861
GlyphClass: 2
Flags: W
HStem: 0 21G<330 453> 1490 20G<898 1021>
LayerCount: 2
Fore
SplineSet
339 0 m 1,0,-1
 330 6 l 1,1,2
 462 409 462 409 529 724 c 0,3,4
 572 924 572 924 600 1161 c 1,5,6
 486 1053 486 1053 395 879 c 1,7,8
 315 957 315 957 219 982 c 1,9,-1
 221 992 l 1,10,11
 470 1161 470 1161 624 1387 c 1,12,13
 784 1409 784 1409 1012 1510 c 1,14,-1
 1021 1504 l 1,15,16
 895 1140 895 1140 816 778 c 0,17,18
 759 509 759 509 727 123 c 1,19,20
 567 101 567 101 339 0 c 1,0,-1
EndSplineSet
Validated: 1
EndChar

StartChar: four
Encoding: 52 52 20
Width: 1191
GlyphClass: 2
Flags: W
HStem: 0 21G<660 786> 351 156<389.438 758.561> 1490 20G<1229.5 1351>
LayerCount: 2
Fore
SplineSet
669 0 m 1,0,-1
 660 6 l 1,1,2
 713 166 713 166 762 338 c 1,3,4
 652 351 652 351 537 351 c 0,5,6
 338 351 338 351 151 310 c 1,7,-1
 143 317 l 1,8,9
 143 393 143 393 111 477 c 1,10,11
 591 924 591 924 954 1387 c 1,12,13
 1117 1409 1117 1409 1342 1510 c 1,14,-1
 1351 1504 l 1,15,16
 1225 1146 1225 1146 1151.5 801 c 128,-1,17
 1078 456 1078 456 1057 123 c 1,18,19
 903 101 903 101 669 0 c 1,0,-1
386 518 m 1,20,21
 491 507 491 507 583 507 c 0,22,23
 709 507 709 507 813 528 c 1,24,25
 883 855 883 855 923 1115 c 1,26,27
 602 804 602 804 386 518 c 1,20,21
EndSplineSet
Validated: 1
EndChar

StartChar: six
Encoding: 54 54 21
Width: 1317
GlyphClass: 2
Flags: W
HStem: 0 21G<567.5 803.5> 1490 20G<868 1147.5>
VStem: 222 262<502 845.48> 1144 231<457 744.5>
LayerCount: 2
Fore
SplineSet
702 0 m 1,0,-1
 692 0 l 1,1,2
 443 98 443 98 327 261 c 0,3,4
 222 410 222 410 222 594 c 0,5,6
 222 666 222 666 238 744 c 0,7,8
 296 1019 296 1019 548 1254 c 0,9,10
 723 1418 723 1418 1013 1510 c 1,11,-1
 1023 1510 l 1,12,13
 1272 1412 1272 1412 1387 1249 c 1,14,-1
 1382 1238 l 1,15,16
 1227 1211 1227 1211 991 1093 c 1,17,18
 820 1196 820 1196 609 1196 c 1,19,20
 527 1075 527 1075 498 936 c 0,21,22
 484 869 484 869 484 809 c 0,23,24
 484 571 484 571 703 430 c 0,25,26
 882 314 882 314 1106 314 c 1,27,28
 1128 360 1128 360 1137 406 c 0,29,30
 1144 441 1144 441 1144 473 c 0,31,32
 1144 578 1144 578 1064 650 c 128,-1,33
 984 722 984 722 771 722 c 1,34,-1
 768 732 l 1,35,36
 871 878 871 878 929 1002 c 1,37,38
 1146 995 1146 995 1270 898 c 0,39,40
 1375 816 1375 816 1375 673 c 0,41,42
 1375 641 1375 641 1370 606 c 0,43,44
 1334 374 1334 374 1084 194 c 0,45,46
 905 65 905 65 702 0 c 1,0,-1
EndSplineSet
Validated: 1
EndChar

StartChar: seven
Encoding: 55 55 22
Width: 1093
GlyphClass: 2
Flags: W
HStem: 0 21G<117 244.5> 1306 144<531.162 878.436> 1490 20G<426 544.5 1268.5 1403>
LayerCount: 2
Fore
SplineSet
126 0 m 1,0,-1
 117 6 l 1,1,2
 631 700 631 700 880 1302 c 1,3,4
 830 1306 830 1306 774 1306 c 0,5,6
 545 1306 545 1306 256 1128 c 1,7,-1
 252 1138 l 1,8,9
 398 1346 398 1346 454 1510 c 1,10,11
 635 1450 635 1450 904 1450 c 0,12,13
 1143 1450 1143 1450 1394 1510 c 1,14,-1
 1403 1504 l 1,15,16
 924 878 924 878 612 132 c 1,17,18
 363 105 363 105 126 0 c 1,0,-1
EndSplineSet
Validated: 1
EndChar

StartChar: eight
Encoding: 56 56 23
Width: 1184
VWidth: 0
GlyphClass: 2
Flags: W
HStem: 0 21G<497 689.5> 1490 20G<818 996>
VStem: 162 285<448 612.502> 380 221<1024 1213> 967 274<412 578> 1030 216<1023.9 1179>
DStem2: 734 1004 578 769 0.889175 -0.457568<-90.5978 272.68 293.846 383.929>
LayerCount: 2
Fore
SplineSet
597 0 m 1,0,-1
 587 0 l 1,1,2
 407 59 407 59 298 170 c 0,3,4
 162 310 162 310 162 448 c 0,5,6
 162 470 162 470 165 492 c 0,7,8
 204 743 204 743 508 812 c 1,9,10
 380 901 380 901 380 1024 c 0,11,12
 380 1040 380 1040 382 1057 c 0,13,14
 405 1227 405 1227 593 1359 c 0,15,16
 728 1454 728 1454 908 1510 c 1,17,-1
 918 1510 l 1,18,19
 1074 1454 1074 1454 1169 1359 c 0,20,21
 1246 1280 1246 1280 1246 1179 c 0,22,23
 1246 1152 1246 1152 1241 1124 c 0,24,25
 1207 949 1207 949 995 869 c 1,26,-1
 1008 863 l 2,27,28
 1241 756 1241 756 1241 578 c 0,29,30
 1241 556 1241 556 1237 532 c 0,31,32
 1206 335 1206 335 958 170 c 0,33,34
 782 53 782 53 597 0 c 1,0,-1
974 880 m 1,35,36
 1010 936 1010 936 1023 982 c 0,37,38
 1030 1010 1030 1010 1030 1035 c 0,39,40
 1030 1131 1030 1131 926 1196 c 0,41,42
 799 1276 799 1276 629 1276 c 1,43,44
 610 1244 610 1244 604 1213 c 0,45,46
 601 1196 601 1196 601 1179 c 0,47,48
 601 1073 601 1073 734 1004 c 2,49,-1
 974 880 l 1,35,36
526 800 m 1,50,51
 469 729 469 729 453 653 c 0,52,53
 447 626 447 626 447 600 c 0,54,55
 447 496 447 496 537 411 c 0,56,57
 668 286 668 286 917 252 c 1,58,59
 951 303 951 303 962 363 c 0,60,61
 967 389 967 389 967 414 c 0,62,63
 967 566 967 566 783 662 c 2,64,-1
 578 769 l 2,65,66
 553 782 553 782 526 800 c 1,50,51
EndSplineSet
Validated: 1
EndChar

StartChar: nine
Encoding: 57 57 24
Width: 1317
GlyphClass: 2
Flags: W
HStem: 0 21G<490.5 770.5> 1490 20G<834.5 1070.5>
VStem: 263 231<765.5 1053> 1154 262<664.52 1007>
LayerCount: 2
Fore
SplineSet
625 0 m 1,0,-1
 615 0 l 1,1,2
 366 98 366 98 250 261 c 1,3,-1
 256 272 l 1,4,5
 411 299 411 299 647 417 c 1,6,7
 818 314 818 314 1029 314 c 1,8,9
 1111 435 1111 435 1140 574 c 0,10,11
 1154 641 1154 641 1154 701 c 0,12,13
 1154 939 1154 939 935 1080 c 0,14,15
 756 1196 756 1196 532 1196 c 1,16,17
 510 1150 510 1150 501 1104 c 0,18,19
 494 1069 494 1069 494 1037 c 0,20,21
 494 932 494 932 574 860 c 128,-1,22
 654 788 654 788 867 788 c 1,23,-1
 870 778 l 1,24,25
 767 632 767 632 709 508 c 1,26,27
 492 515 492 515 368 612 c 0,28,29
 263 694 263 694 263 837 c 0,30,31
 263 869 263 869 268 904 c 0,32,33
 304 1136 304 1136 554 1316 c 0,34,35
 733 1445 733 1445 936 1510 c 1,36,-1
 946 1510 l 1,37,38
 1195 1412 1195 1412 1310 1249 c 0,39,40
 1416 1099 1416 1099 1416 915 c 0,41,42
 1416 843 1416 843 1400 766 c 0,43,44
 1342 491 1342 491 1090 256 c 0,45,46
 916 92 916 92 625 0 c 1,0,-1
EndSplineSet
Validated: 1
EndChar

StartChar: colon
Encoding: 58 58 25
Width: 418
GlyphClass: 2
Flags: W
HStem: 0 21G<165.5 250.5>
VStem: 59 388<121.374 297.5> 175 388<669.374 843.56>
LayerCount: 2
Fore
SplineSet
409 964 m 1,0,-1
 419 964 l 1,1,2
 482 941 482 941 528 888 c 0,3,4
 563 848 563 848 563 796 c 0,5,6
 563 779 563 779 558 756 c 0,7,8
 542 677 542 677 472.5 624 c 128,-1,9
 403 571 403 571 330 548 c 1,10,-1
 320 548 l 1,11,12
 243 579 243 579 206 623 c 0,13,14
 175 660 175 660 175 712 c 0,15,16
 175 736 175 736 180 756 c 0,17,18
 198 837 198 837 263 889 c 0,19,20
 318 933 318 933 409 964 c 1,0,-1
214 0 m 1,21,-1
 204 0 l 1,22,23
 127 31 127 31 90 75 c 0,24,25
 59 112 59 112 59 164 c 0,26,27
 59 185 59 185 64 208 c 0,28,29
 81 289 81 289 146 341 c 0,30,31
 201 385 201 385 292 416 c 1,32,-1
 302 416 l 1,33,34
 365 393 365 393 412 340 c 0,35,36
 447 301 447 301 447 248 c 0,37,38
 447 229 447 229 442 208 c 0,39,40
 425 129 425 129 356 76 c 128,-1,41
 287 23 287 23 214 0 c 1,21,-1
EndSplineSet
Validated: 1
EndChar

StartChar: semicolon
Encoding: 59 59 26
Width: 453
GlyphClass: 2
Flags: W
HStem: -282 16<-36 -25.4661>
VStem: 70 398<66.0256 296.195> 186 388<669.374 843.56>
LayerCount: 2
Fore
SplineSet
215 0 m 1,0,1
 138 31 138 31 101 75 c 0,2,3
 70 112 70 112 70 164 c 0,4,5
 70 185 70 185 75 208 c 0,6,7
 92 289 92 289 157 341 c 0,8,9
 212 385 212 385 303 416 c 1,10,-1
 313 416 l 1,11,12
 373 396 373 396 410 355 c 0,13,14
 468 291 468 291 468 200 c 0,15,16
 468 167 468 167 460 129 c 0,17,18
 397 -169 397 -169 -39 -282 c 1,19,-1
 -36 -266 l 1,20,21
 166 -140 166 -140 215 0 c 1,0,1
420 964 m 1,22,-1
 430 964 l 1,23,24
 493 941 493 941 539 888 c 0,25,26
 574 848 574 848 574 796 c 0,27,28
 574 779 574 779 569 756 c 0,29,30
 553 677 553 677 483.5 624 c 128,-1,31
 414 571 414 571 341 548 c 1,32,-1
 331 548 l 1,33,34
 254 579 254 579 217 623 c 0,35,36
 186 660 186 660 186 712 c 0,37,38
 186 737 186 737 191 756 c 0,39,40
 209 837 209 837 274 889 c 0,41,42
 329 933 329 933 420 964 c 1,22,-1
EndSplineSet
Validated: 1
EndChar

StartChar: less
Encoding: 60 60 27
Width: 1357
GlyphClass: 2
Flags: W
LayerCount: 2
Fore
SplineSet
421 888 m 1,0,1
 910 1034 910 1034 1474 1358 c 1,2,-1
 1485 1356 l 1,3,4
 1368 1199 1368 1199 1312 1082 c 1,5,6
 933 991 933 991 559 759 c 1,7,8
 795 572 795 572 1295 475 c 1,9,-1
 1299 465 l 1,10,11
 1169 334 1169 334 1116 192 c 1,12,13
 773 489 773 489 241 590 c 1,14,-1
 238 600 l 1,15,16
 374 774 374 774 421 888 c 1,0,1
EndSplineSet
Validated: 1
EndChar

StartChar: equal
Encoding: 61 61 28
Width: 1234
VWidth: 0
GlyphClass: 2
Flags: W
HStem: 373 298<354.211 416.937 970.424 1099.25> 439 176<416.937 1041.06> 809 298<446.246 508.937 1062.42 1191.94> 875 176<508.937 1134.06>
LayerCount: 2
Fore
SplineSet
375 671 m 1,0,1
 566 615 566 615 770 615 c 0,2,3
 1001 615 1001 615 1263 681 c 1,4,-1
 1267 671 l 1,5,6
 1121 473 1121 473 1083 383 c 1,7,8
 892 439 892 439 688 439 c 0,9,10
 457 439 457 439 195 373 c 1,11,-1
 191 383 l 1,12,13
 328 557 328 557 375 671 c 1,0,1
467 1107 m 1,14,15
 658 1051 658 1051 862 1051 c 0,16,17
 1093 1051 1093 1051 1355 1117 c 1,18,-1
 1359 1107 l 1,19,20
 1213 909 1213 909 1176 819 c 1,21,22
 985 875 985 875 781 875 c 0,23,24
 550 875 550 875 288 809 c 1,25,-1
 284 819 l 1,26,27
 420 993 420 993 467 1107 c 1,14,15
EndSplineSet
Validated: 1
EndChar

StartChar: greater
Encoding: 62 62 29
Width: 1357
GlyphClass: 2
Flags: W
LayerCount: 2
Fore
SplineSet
571 1358 m 1,0,1
 914 1061 914 1061 1446 960 c 1,2,-1
 1449 950 l 1,3,4
 1313 776 1313 776 1266 662 c 1,5,6
 777 516 777 516 213 192 c 1,7,-1
 202 194 l 1,8,9
 319 351 319 351 375 468 c 1,10,11
 754 559 754 559 1128 791 c 1,12,13
 892 978 892 978 392 1075 c 1,14,-1
 388 1085 l 1,15,16
 530 1243 530 1243 571 1358 c 1,0,1
EndSplineSet
Validated: 1
EndChar

StartChar: question
Encoding: 63 63 30
Width: 1239
GlyphClass: 2
Flags: W
HStem: 0 21G<566.5 651.5> 1490 20G<781 1062.5>
VStem: 322 180<919.5 1132.59> 460 388<121.374 297.5> 1051 298<891.07 1102.03>
LayerCount: 2
Fore
SplineSet
615 0 m 1,0,-1
 605 0 l 1,1,2
 528 31 528 31 491 75 c 0,3,4
 460 112 460 112 460 164 c 0,5,6
 460 185 460 185 465 208 c 0,7,8
 482 289 482 289 547 341 c 0,9,10
 602 385 602 385 693 416 c 1,11,-1
 703 416 l 1,12,13
 766 393 766 393 813 340 c 0,14,15
 848 301 848 301 848 248 c 0,16,17
 848 229 848 229 843 208 c 0,18,19
 826 129 826 129 757 76 c 128,-1,20
 688 23 688 23 615 0 c 1,0,-1
926 1510 m 1,21,-1
 936 1510 l 1,22,23
 1189 1416 1189 1416 1299 1257 c 0,24,25
 1349 1186 1349 1186 1349 1083 c 0,26,27
 1349 1048 1349 1048 1343 1009 c 0,28,29
 1314 810 1314 810 1081 677 c 2,30,-1
 904 576 l 2,31,32
 834 536 834 536 809 506 c 1,33,34
 716 488 716 488 624 448 c 1,35,-1
 616 454 l 1,36,37
 636 550 636 550 763 663 c 2,38,-1
 955 834 l 2,39,40
 1031 902 1031 902 1048 978 c 0,41,42
 1051 994 1051 994 1051 1009 c 0,43,44
 1051 1063 1051 1063 1006 1104 c 0,45,46
 847 1246 847 1246 553 1246 c 1,47,48
 517 1207 517 1207 507 1160 c 0,49,50
 502 1138 502 1138 502 1118 c 0,51,52
 502 1049 502 1049 555 997 c 0,53,54
 611 942 611 942 706 908 c 1,55,56
 567 892 567 892 398 811 c 1,57,-1
 391 813 l 1,58,59
 322 872 322 872 322 967 c 0,60,61
 322 997 322 997 329 1031 c 0,62,63
 361 1180 361 1180 510 1305 c 0,64,65
 636 1410 636 1410 926 1510 c 1,21,-1
EndSplineSet
Validated: 1
EndChar

StartChar: at
Encoding: 64 64 31
Width: 1307
GlyphClass: 2
Flags: W
HStem: -380 21G<490 738.5> 0 21G<691 801.5 886 1007.5> 941 189<833.716 907.499>
VStem: 141 202<122.278 468.052> 494 210<286.01 474.882> 1058 246<403.592 808.946>
LayerCount: 2
Fore
SplineSet
895 0 m 1,0,1
 886 6 l 1,2,3
 902 49 902 49 917 91 c 1,4,5
 845 35 845 35 758 0 c 1,6,-1
 748 0 l 1,7,8
 634 43 634 43 559 131 c 0,9,10
 494 206 494 206 494 308 c 0,11,12
 494 344 494 344 502 382 c 0,13,14
 529 507 529 507 635 584 c 0,15,16
 753 671 753 671 912 671 c 1,17,-1
 910 661 l 1,18,19
 742 602 742 602 710 452 c 0,20,21
 704 425 704 425 704 400 c 0,22,23
 704 333 704 333 748 285 c 0,24,25
 813 216 813 216 959 215 c 1,26,27
 1013 384 1013 384 1045 534 c 0,28,29
 1058 595 1058 595 1058 647 c 0,30,31
 1058 767 1058 767 989 840 c 0,32,33
 894 941 894 941 662 941 c 1,34,35
 421 745 421 745 358 446 c 0,36,37
 343 377 343 377 343 315 c 0,38,39
 343 112 343 112 502 -14 c 0,40,41
 690 -163 690 -163 1031 -182 c 1,42,43
 857 -303 857 -303 620 -380 c 1,44,-1
 610 -380 l 1,45,46
 370 -282 370 -282 247 -119 c 0,47,48
 141 21 141 21 141 209 c 0,49,50
 141 287 141 287 159 372 c 0,51,52
 229 701 229 701 493 895 c 0,53,54
 718 1060 718 1060 962 1130 c 1,55,-1
 972 1130 l 1,56,57
 1156 1094 1156 1094 1241 955 c 0,58,59
 1304 852 1304 852 1304 716 c 0,60,61
 1304 645 1304 645 1287 565 c 0,62,63
 1243 358 1243 358 1243 150 c 0,64,65
 1243 137 1243 137 1243 123 c 1,66,67
 1120 103 1120 103 895 0 c 1,0,1
EndSplineSet
Validated: 1
EndChar

StartChar: A
Encoding: 65 65 32
Width: 1396
GlyphClass: 2
Flags: W
HStem: 0 21G<6 97 1035 1158> 499 148<590.907 990.755> 1490 20G<1074.5 1197>
LayerCount: 2
Fore
SplineSet
15 0 m 1,0,-1
 6 6 l 1,1,2
 455 646 455 646 790 1387 c 1,3,4
 961 1409 961 1409 1188 1510 c 1,5,-1
 1197 1504 l 1,6,7
 1227 800 1227 800 1417 123 c 1,8,9
 1272 102 1272 102 1044 0 c 1,10,-1
 1035 6 l 1,11,12
 1035 252 1035 252 1013 481 c 1,13,14
 896 499 896 499 744 499 c 0,15,16
 626 499 626 499 502 486 c 1,17,18
 409 300 409 300 326 108 c 1,19,20
 179 73 179 73 15 0 c 1,0,-1
588 655 m 1,21,22
 681 647 681 647 779 647 c 0,23,24
 899 647 899 647 993 653 c 1,25,26
 958 961 958 961 893 1187 c 1,27,28
 720 905 720 905 588 655 c 1,21,22
EndSplineSet
Validated: 1
EndChar

StartChar: C
Encoding: 67 67 33
Width: 1277
GlyphClass: 2
Flags: W
HStem: 0 314<830 993> 1490 20G<872 1147.5>
VStem: 222 263<503.5 847.424>
LayerCount: 2
Fore
SplineSet
702 0 m 1,0,1
 692 0 l 1,2,3
 441 98 441 98 327 261 c 0,4,5
 222 412 222 412 222 595 c 0,6,7
 222 668 222 668 238 746 c 0,8,9
 296 1020 296 1020 548 1254 c 0,10,11
 731 1425 731 1425 1013 1510 c 1,12,-1
 1023 1510 l 1,13,14
 1272 1412 1272 1412 1387 1249 c 1,15,-1
 1382 1238 l 1,16,17
 1227 1211 1227 1211 991 1093 c 1,18,19
 820 1196 820 1196 609 1196 c 1,20,21
 527 1075 527 1075 498 936 c 0,22,23
 485 873 485 873 485 814 c 0,24,25
 485 582 485 582 691 422 c 0,26,27
 830 314 830 314 1020 314 c 0,28,29
 1177 314 1177 314 1293 410 c 1,30,-1
 1303 404 l 1,31,32
 1245 328 1245 328 1167 256 c 0,33,34
 993 92 993 92 702 0 c 1,0,1
EndSplineSet
Validated: 1
EndChar

StartChar: E
Encoding: 69 69 34
Width: 1169
GlyphClass: 2
Flags: W
HStem: 0 21G<141 275.5 945.5 1064> 60 144<557.752 949.289> 644 144<639 897.25> 1162 273<984.758 1224.11> 1490 20G<719.5 889.5 1315.5 1405>
LayerCount: 2
Fore
SplineSet
150 0 m 1,0,-1
 141 6 l 1,1,2
 273 409 273 409 340 724 c 0,3,4
 402 1017 402 1017 435 1387 c 1,5,6
 606 1409 606 1409 833 1510 c 1,7,8
 946 1435 946 1435 1076 1435 c 0,9,10
 1230 1435 1230 1435 1401 1510 c 1,11,-1
 1405 1500 l 1,12,13
 1257 1292 1257 1292 1210 1162 c 1,14,15
 1042 1162 1042 1162 942.5 1230 c 128,-1,16
 843 1298 843 1298 823 1450 c 1,17,18
 711 1118 711 1118 639 788 c 1,19,20
 887 788 887 788 1176 966 c 1,21,-1
 1180 956 l 1,22,23
 1035 749 1035 749 978 584 c 1,24,25
 797 644 797 644 612 644 c 1,26,27
 579 453 579 453 556 214 c 1,28,29
 612 204 612 204 675 204 c 0,30,31
 945 204 945 204 1234 382 c 1,32,-1
 1238 372 l 1,33,34
 1092 164 1092 164 1036 0 c 1,35,36
 855 60 855 60 640 60 c 0,37,38
 401 60 401 60 150 0 c 1,0,-1
EndSplineSet
Validated: 1
EndChar

StartChar: G
Encoding: 71 71 35
Width: 1411
VWidth: 0
GlyphClass: 2
Flags: W
HStem: 0 21G<566.5 775.5 920 1042.5> 1490 20G<872 1147.5>
VStem: 222 263<503.5 847.908> 1076 246<318.883 530.182>
LayerCount: 2
Fore
SplineSet
702 0 m 1,0,-1
 692 0 l 1,1,2
 441 98 441 98 327 261 c 0,3,4
 222 412 222 412 222 595 c 0,5,6
 222 668 222 668 238 746 c 0,7,8
 296 1020 296 1020 548 1254 c 0,9,10
 731 1425 731 1425 1013 1510 c 1,11,-1
 1023 1510 l 1,12,13
 1272 1412 1272 1412 1387 1249 c 1,14,-1
 1382 1238 l 1,15,16
 1227 1211 1227 1211 991 1093 c 1,17,18
 820 1196 820 1196 609 1196 c 1,19,20
 527 1075 527 1075 498 936 c 0,21,22
 485 872 485 872 485 813 c 0,23,24
 485 582 485 582 691 421 c 0,25,26
 828 314 828 314 1030 314 c 1,27,28
 1040 353 1040 353 1049 394 c 0,29,30
 1076 524 1076 524 1076 653 c 0,31,32
 1076 690 1076 690 1074 727 c 1,33,34
 1245 749 1245 749 1472 850 c 1,35,-1
 1480 844 l 1,36,37
 1385 633 1385 633 1346 448 c 0,38,39
 1322 332 1322 332 1322 224 c 0,40,41
 1322 173 1322 173 1327 123 c 1,42,43
 1156 101 1156 101 929 0 c 1,44,-1
 920 6 l 1,45,46
 945 57 945 57 966 111 c 1,47,48
 849 46 849 46 702 0 c 1,0,-1
EndSplineSet
Validated: 1
EndChar

StartChar: H
Encoding: 72 72 36
Width: 1421
GlyphClass: 2
Flags: W
HStem: 0 21G<141 263.5 900 1022.5> 656 158<652.199 1075.55> 1490 20G<719.5 842 1478.5 1601>
LayerCount: 2
Fore
SplineSet
150 0 m 1,0,-1
 141 6 l 1,1,2
 273 409 273 409 340 724 c 0,3,4
 402 1017 402 1017 435 1387 c 1,5,6
 606 1409 606 1409 833 1510 c 1,7,-1
 842 1504 l 1,8,9
 724 1164 724 1164 649 832 c 1,10,11
 751 814 751 814 902 814 c 0,12,13
 1022 814 1022 814 1120 827 c 1,14,15
 1173 1107 1173 1107 1194 1387 c 1,16,17
 1365 1409 1365 1409 1592 1510 c 1,18,-1
 1601 1504 l 1,19,20
 1475 1140 1475 1140 1396 778 c 0,21,22
 1339 509 1339 509 1307 123 c 1,23,24
 1136 101 1136 101 909 0 c 1,25,-1
 900 6 l 1,26,27
 1011 336 1011 336 1079 630 c 1,28,29
 969 656 969 656 811 656 c 0,30,31
 699 656 699 656 611 644 c 1,32,33
 567 405 567 405 548 123 c 1,34,35
 377 101 377 101 150 0 c 1,0,-1
EndSplineSet
Validated: 1
EndChar

StartChar: I
Encoding: 73 73 37
Width: 662
GlyphClass: 2
Flags: W
HStem: 0 21G<141 263.5> 1490 20G<719.5 842>
LayerCount: 2
Fore
SplineSet
150 0 m 1,0,-1
 141 6 l 1,1,2
 273 409 273 409 340 724 c 0,3,4
 402 1017 402 1017 435 1387 c 1,5,6
 606 1409 606 1409 833 1510 c 1,7,-1
 842 1504 l 1,8,9
 716 1140 716 1140 637 778 c 0,10,11
 580 509 580 509 548 123 c 1,12,13
 377 101 377 101 150 0 c 1,0,-1
EndSplineSet
Validated: 1
EndChar

StartChar: L
Encoding: 76 76 38
Width: 1164
GlyphClass: 2
Flags: W
HStem: 0 21G<141 275.5 945.5 1064> 60 144<557.752 949.289> 1490 20G<719.5 842>
LayerCount: 2
Fore
SplineSet
150 0 m 1,0,-1
 141 6 l 1,1,2
 273 409 273 409 340 724 c 0,3,4
 402 1017 402 1017 435 1387 c 1,5,6
 606 1409 606 1409 833 1510 c 1,7,-1
 842 1504 l 1,8,9
 716 1140 716 1140 637 778 c 0,10,11
 587 541 587 541 556 214 c 1,12,13
 612 204 612 204 675 204 c 0,14,15
 945 204 945 204 1234 382 c 1,16,-1
 1238 372 l 1,17,18
 1092 164 1092 164 1036 0 c 1,19,20
 855 60 855 60 640 60 c 0,21,22
 401 60 401 60 150 0 c 1,0,-1
EndSplineSet
Validated: 1
EndChar

StartChar: N
Encoding: 78 78 39
Width: 1434
GlyphClass: 2
Flags: W
HStem: 0 21G<161 234 935 1058.5> 1490 20G<619.5 747 1544.5 1614>
DStem2: 1159 356 1614 1504 0.250048 0.968233<0 1225.3>
LayerCount: 2
Fore
SplineSet
170 0 m 1,0,-1
 161 6 l 1,1,2
 277 352 277 352 347 682 c 0,3,4
 409 974 409 974 445 1256 c 1,5,6
 407 1335 407 1335 365 1387 c 1,7,8
 501 1409 501 1409 738 1510 c 1,9,-1
 747 1504 l 1,10,11
 887 866 887 866 1159 356 c 1,12,13
 1233 633 1233 633 1276 834 c 0,14,15
 1343 1151 1343 1151 1362 1420 c 1,16,17
 1484 1456 1484 1456 1605 1510 c 1,18,-1
 1614 1504 l 1,19,20
 1494 1153 1494 1153 1415 782 c 0,21,22
 1347 462 1347 462 1317 123 c 1,23,24
 1173 102 1173 102 944 0 c 1,25,-1
 935 6 l 1,26,27
 819 475 819 475 565 957 c 1,28,29
 522 791 522 791 500 688 c 0,30,31
 432 370 432 370 409 89 c 1,32,33
 298 57 298 57 170 0 c 1,0,-1
EndSplineSet
Validated: 1
EndChar

StartChar: O
Encoding: 79 79 40
Width: 1395
VWidth: 0
GlyphClass: 2
Flags: W
HStem: 0 21G<567.5 848.5> 1490 20G<873 1148.5>
VStem: 223 262<503.5 847.264> 1232 262<664.52 1007>
LayerCount: 2
Fore
SplineSet
1107 314 m 1,0,1
 1189 435 1189 435 1218 574 c 0,2,3
 1232 641 1232 641 1232 701 c 0,4,5
 1232 939 1232 939 1013 1080 c 0,6,7
 834 1196 834 1196 610 1196 c 1,8,9
 528 1075 528 1075 499 936 c 0,10,11
 485 869 485 869 485 809 c 0,12,13
 485 572 485 572 704 430 c 0,14,15
 883 314 883 314 1107 314 c 1,0,1
703 0 m 1,16,-1
 693 0 l 1,17,18
 442 98 442 98 328 261 c 0,19,20
 223 412 223 412 223 595 c 0,21,22
 223 668 223 668 239 746 c 0,23,24
 297 1020 297 1020 549 1254 c 0,25,26
 732 1425 732 1425 1014 1510 c 1,27,-1
 1024 1510 l 1,28,29
 1273 1412 1273 1412 1388 1249 c 0,30,31
 1494 1099 1494 1099 1494 915 c 0,32,33
 1494 843 1494 843 1478 766 c 0,34,35
 1420 491 1420 491 1168 256 c 0,36,37
 994 92 994 92 703 0 c 1,16,-1
EndSplineSet
Validated: 1
EndChar

StartChar: T
Encoding: 84 84 41
Width: 1253
GlyphClass: 2
Flags: W
HStem: 0 21G<435 557.5> 1490 20G<421 561 1408 1567>
LayerCount: 2
Fore
SplineSet
444 0 m 1,0,-1
 435 6 l 1,1,2
 567 409 567 409 634 724 c 0,3,4
 689 982 689 982 720 1299 c 1,5,6
 497 1263 497 1263 251 1128 c 1,7,-1
 247 1138 l 1,8,9
 393 1346 393 1346 449 1510 c 1,10,11
 673 1457 673 1457 942 1457 c 0,12,13
 1253 1457 1253 1457 1563 1510 c 1,14,-1
 1567 1500 l 1,15,16
 1421 1292 1421 1292 1365 1128 c 1,17,18
 1248 1259 1248 1259 1066 1297 c 1,19,20
 991 1057 991 1057 931 778 c 0,21,22
 874 509 874 509 842 123 c 1,23,24
 671 101 671 101 444 0 c 1,0,-1
EndSplineSet
Validated: 1
EndChar

StartChar: V
Encoding: 86 86 42
Width: 1396
GlyphClass: 2
Flags: W
HStem: 0 21G<520 642.5> 1490 20G<558 682 1620 1711>
LayerCount: 2
Fore
SplineSet
529 0 m 1,0,1
 520 6 l 1,2,3
 490 710 490 710 300 1387 c 1,4,5
 443 1407 443 1407 673 1510 c 1,6,-1
 682 1504 l 1,7,8
 682 865 682 865 828 331 c 1,9,10
 1149 854 1149 854 1391 1402 c 1,11,12
 1538 1437 1538 1437 1702 1510 c 1,13,-1
 1711 1504 l 1,14,15
 1262 864 1262 864 927 123 c 1,16,17
 756 101 756 101 529 0 c 1,0,1
EndSplineSet
Validated: 1
EndChar

StartChar: W
Encoding: 87 87 43
Width: 1974
GlyphClass: 2
Flags: W
HStem: 0 21G<520 642.5 1098 1220.5> 1490 20G<555.5 682 1106 1230 1628.5 1711 2198 2289>
LayerCount: 2
Fore
SplineSet
529 0 m 1,0,-1
 520 6 l 1,1,2
 490 710 490 710 300 1387 c 1,3,4
 438 1405 438 1405 673 1510 c 1,5,-1
 682 1504 l 1,6,7
 683 830 683 830 843 303 c 1,8,9
 942 464 942 464 1037 644 c 1,10,11
 981 1023 981 1023 879 1391 c 1,12,13
 991 1416 991 1416 1221 1510 c 1,14,-1
 1230 1504 l 1,15,16
 1230 1210 1230 1210 1250 1054 c 1,17,18
 1369 1287 1369 1287 1425 1410 c 1,19,20
 1555 1445 1555 1445 1702 1510 c 1,21,-1
 1711 1504 l 1,22,23
 1488 1185 1488 1185 1277 816 c 1,24,25
 1314 552 1314 552 1383 300 c 1,26,27
 1737 898 1737 898 1969 1402 c 1,28,29
 2116 1437 2116 1437 2280 1510 c 1,30,-1
 2289 1504 l 1,31,32
 1840 864 1840 864 1505 123 c 1,33,34
 1334 101 1334 101 1107 0 c 1,35,-1
 1098 6 l 1,36,37
 1088 213 1088 213 1067 417 c 1,38,39
 995 272 995 272 927 123 c 1,40,41
 756 101 756 101 529 0 c 1,0,-1
EndSplineSet
Validated: 1
EndChar

StartChar: bracketleft
Encoding: 91 91 44
Width: 946
GlyphClass: 2
Flags: W
HStem: -230 144<487 700.794> 1454 273<976.422 1127.32>
LayerCount: 2
Fore
SplineSet
70 -283 m 1,0,1
 228 249 228 249 331 728 c 0,2,3
 425 1171 425 1171 487 1679 c 1,4,5
 658 1701 658 1701 885 1802 c 1,6,7
 953 1727 953 1727 1078 1727 c 0,8,9
 1181 1727 1181 1727 1303 1802 c 1,10,-1
 1307 1792 l 1,11,12
 1159 1584 1159 1584 1112 1454 c 1,13,14
 997 1454 997 1454 945 1533 c 128,-1,15
 893 1612 893 1612 878 1745 c 1,16,17
 727 1244 727 1244 627 778 c 0,18,19
 541 374 541 374 487 -77 c 1,20,21
 537 -86 537 -86 593 -86 c 0,22,23
 745 -86 745 -86 940 92 c 1,24,-1
 943 82 l 1,25,26
 797 -126 797 -126 741 -290 c 1,27,28
 601 -230 601 -230 419 -230 c 0,29,30
 247 -230 247 -230 74 -290 c 1,31,-1
 70 -283 l 1,0,1
EndSplineSet
Validated: 1
EndChar

StartChar: backslash
Encoding: 92 92 45
Width: 1203
GlyphClass: 2
Flags: W
LayerCount: 2
Fore
SplineSet
871 -150 m 1,0,1
 863 -144 l 1,2,3
 768 333 768 333 637 750 c 0,4,5
 515 1139 515 1139 342 1561 c 1,6,7
 493 1597 493 1597 653 1660 c 1,8,-1
 661 1654 l 1,9,10
 722 1250 722 1250 837 862 c 0,11,12
 982 371 982 371 1182 -51 c 1,13,14
 1031 -87 1031 -87 871 -150 c 1,0,1
EndSplineSet
Validated: 1
EndChar

StartChar: bracketright
Encoding: 93 93 46
Width: 948
GlyphClass: 2
Flags: W
HStem: -215 273<140.675 291.578> 1598 144<567.206 782>
LayerCount: 2
Fore
SplineSet
1199 1795 m 1,0,1
 1041 1263 1041 1263 938 784 c 0,2,3
 844 341 844 341 782 -167 c 1,4,5
 611 -189 611 -189 383 -290 c 1,6,7
 315 -215 315 -215 190 -215 c 0,8,9
 87 -215 87 -215 -35 -290 c 1,10,-1
 -39 -280 l 1,11,12
 109 -72 109 -72 156 58 c 1,13,14
 271 58 271 58 323.5 -21 c 128,-1,15
 376 -100 376 -100 390 -233 c 1,16,17
 541 268 541 268 641 734 c 0,18,19
 727 1138 727 1138 782 1589 c 1,20,21
 732 1598 732 1598 676 1598 c 0,22,23
 524 1598 524 1598 329 1420 c 1,24,-1
 325 1430 l 1,25,26
 471 1638 471 1638 527 1802 c 1,27,28
 667 1742 667 1742 849 1742 c 0,29,30
 1021 1742 1021 1742 1194 1802 c 1,31,-1
 1199 1795 l 1,0,1
EndSplineSet
Validated: 1
EndChar

StartChar: asciicircum
Encoding: 94 94 47
Width: 858
GlyphClass: 2
Flags: W
HStem: 955 595
LayerCount: 2
Fore
SplineSet
897 1550 m 1,0,1
 906 1544 l 1,2,3
 912 1235 912 1235 1063 1058 c 1,4,5
 930 1021 930 1021 786 955 c 1,6,-1
 777 961 l 1,7,8
 763 1176 763 1176 676 1325 c 1,9,10
 538 1196 538 1196 452 1041 c 1,11,12
 374 1018 374 1018 233 955 c 1,13,-1
 224 961 l 1,14,15
 471 1207 471 1207 595 1441 c 1,16,17
 738 1477 738 1477 897 1550 c 1,0,1
EndSplineSet
Validated: 1
EndChar

StartChar: underscore
Encoding: 95 95 48
Width: 1487
GlyphClass: 2
Flags: W
HStem: -410 233<150.12 524.459 883.264 1211.56> -363 137<217.171 1132.96>
LayerCount: 2
Fore
SplineSet
29 -410 m 1,0,-1
 25 -400 l 1,1,2
 127 -268 127 -268 176 -177 c 1,3,4
 440 -226 440 -226 691 -226 c 0,5,6
 1016 -226 1016 -226 1333 -177 c 1,7,-1
 1337 -187 l 1,8,9
 1229 -330 1229 -330 1186 -410 c 1,10,11
 946 -363 946 -363 661 -363 c 0,12,13
 350 -363 350 -363 29 -410 c 1,0,-1
EndSplineSet
Validated: 1
EndChar

StartChar: grave
Encoding: 96 96 49
Width: 494
GlyphClass: 2
Flags: W
HStem: 1180 430
VStem: 591 146<1223.31 1293.47>
LayerCount: 2
Fore
SplineSet
613 1610 m 1,0,1
 737 1465 737 1465 737 1238 c 1,2,3
 666 1217 666 1217 601 1180 c 1,4,-1
 591 1180 l 1,5,6
 546 1386 546 1386 334 1476 c 1,7,-1
 341 1486 l 1,8,9
 478 1525 478 1525 613 1610 c 1,0,1
EndSplineSet
Validated: 1
EndChar

StartChar: a
Encoding: 97 97 50
Width: 1137
GlyphClass: 2
Flags: W
HStem: 0 21G<410 557.5 686 805> 721 10<653.849 666> 1110 20G<686.5 894>
VStem: 142 290<348.582 519.876> 859 275<404.934 806.463>
LayerCount: 2
Fore
SplineSet
502 0 m 1,0,-1
 492 0 l 1,1,2
 328 48 328 48 216 169 c 0,3,4
 142 250 142 250 142 355 c 0,5,6
 142 390 142 390 150 428 c 0,7,8
 178 554 178 554 300 637 c 0,9,10
 437 731 437 731 668 731 c 1,11,-1
 666 721 l 1,12,13
 469 662 469 662 437 511 c 0,14,15
 432 490 432 490 432 469 c 0,16,17
 432 385 432 385 508 315 c 0,18,19
 615 216 615 216 759 215 c 1,20,21
 813 384 813 384 845 534 c 0,22,23
 859 600 859 600 859 654 c 0,24,25
 859 764 859 764 800 825 c 0,26,27
 714 915 714 915 559 915 c 0,28,29
 480 915 480 915 398 884 c 1,30,-1
 393 892 l 1,31,32
 581 1078 581 1078 792 1130 c 1,33,-1
 802 1130 l 1,34,35
 986 1094 986 1094 1071 955 c 0,36,37
 1134 853 1134 853 1134 716 c 0,38,39
 1134 645 1134 645 1117 565 c 0,40,41
 1073 358 1073 358 1073 123 c 1,42,43
 915 101 915 101 695 0 c 1,44,-1
 686 6 l 1,45,46
 702 49 702 49 717 91 c 1,47,48
 613 27 613 27 502 0 c 1,0,-1
EndSplineSet
Validated: 1
EndChar

StartChar: b
Encoding: 98 98 51
Width: 1196
GlyphClass: 2
Flags: W
HStem: 0 21G<550 762.5> 1110 20G<803 963> 1490 20G<653 772>
VStem: 253 290<410.831 765.853> 1030 239<465.893 679>
LayerCount: 2
Fore
SplineSet
641 0 m 1,0,-1
 631 0 l 1,1,2
 469 46 469 46 355 169 c 0,3,4
 253 279 253 279 253 464 c 0,5,6
 253 549 253 549 274 649 c 0,7,8
 352 1017 352 1017 385 1387 c 1,9,10
 543 1409 543 1409 763 1510 c 1,11,-1
 772 1504 l 1,12,13
 689 1266 689 1266 626 1025 c 1,14,15
 735 1088 735 1088 871 1130 c 1,16,-1
 881 1130 l 1,17,18
 1045 1082 1045 1082 1157 961 c 0,19,20
 1269 841 1269 841 1269 679 c 0,21,22
 1269 625 1269 625 1256 565 c 0,23,24
 1215 373 1215 373 1048 222 c 0,25,26
 884 75 884 75 641 0 c 1,0,-1
585 858 m 1,27,28
 574 809 574 809 564 760 c 0,29,30
 543 663 543 663 543 587 c 0,31,32
 543 431 543 431 630 363 c 0,33,34
 748 271 748 271 969 271 c 1,35,36
 1007 339 1007 339 1020 399 c 0,37,38
 1030 445 1030 445 1030 488 c 0,39,40
 1030 653 1030 653 882 767 c 0,41,42
 775 850 775 850 585 858 c 1,27,28
EndSplineSet
Validated: 1
EndChar

StartChar: c
Encoding: 99 99 52
Width: 1057
GlyphClass: 2
Flags: W
HStem: 0 21G<474 686.5> 1110 20G<670.5 886>
VStem: 167 239<451 662.796>
LayerCount: 2
Fore
SplineSet
565 0 m 1,0,-1
 555 0 l 1,1,2
 393 46 393 46 279 169 c 0,3,4
 167 289 167 289 167 451 c 0,5,6
 167 505 167 505 180 565 c 0,7,8
 220 754 220 754 387 906 c 0,9,10
 546 1052 546 1052 795 1130 c 1,11,-1
 805 1130 l 1,12,13
 967 1083 967 1083 1081 961 c 0,14,15
 1112 928 1112 928 1135 891 c 1,16,-1
 1130 880 l 1,17,18
 977 847 977 847 806 767 c 1,19,20
 688 859 688 859 468 859 c 1,21,22
 430 791 430 791 416 731 c 0,23,24
 406 685 406 685 406 642 c 0,25,26
 406 477 406 477 554 363 c 0,27,28
 672 271 672 271 863 271 c 24,29,30
 989 271 989 271 1086 367 c 1,31,-1
 1094 362 l 1,32,33
 1045 288 1045 288 972 222 c 0,34,35
 808 75 808 75 565 0 c 1,0,-1
EndSplineSet
Validated: 1
EndChar

StartChar: d
Encoding: 100 100 53
Width: 1193
GlyphClass: 2
Flags: W
HStem: 0 21G<474 619.5 742 855> 1110 20G<670.5 863> 1490 20G<1297.5 1403>
VStem: 167 239<451 662.796>
LayerCount: 2
Fore
SplineSet
565 0 m 1,0,-1
 555 0 l 1,1,2
 393 46 393 46 279 169 c 0,3,4
 167 289 167 289 167 451 c 0,5,6
 167 505 167 505 180 565 c 0,7,8
 220 754 220 754 387 906 c 0,9,10
 546 1052 546 1052 795 1130 c 1,11,-1
 805 1130 l 1,12,13
 921 1076 921 1076 980 938 c 1,14,15
 1019 1173 1019 1173 1036 1387 c 1,16,17
 1201 1421 1201 1421 1394 1510 c 1,18,-1
 1403 1504 l 1,19,20
 1277 1140 1277 1140 1198 778 c 0,21,22
 1141 509 1141 509 1109 123 c 1,23,24
 959 95 959 95 751 0 c 1,25,-1
 742 6 l 1,26,27
 754 44 754 44 766 82 c 1,28,29
 674 34 674 34 565 0 c 1,0,-1
875 411 m 0,30,31
 890 480 890 480 890 540 c 0,32,33
 890 660 890 660 831 742 c 0,34,35
 740 870 740 870 470 870 c 1,36,37
 432 802 432 802 416 731 c 0,38,39
 406 685 406 685 406 642 c 0,40,41
 406 477 406 477 554 363 c 0,42,43
 672 272 672 272 835 272 c 1,44,45
 861 344 861 344 875 411 c 0,30,31
EndSplineSet
Validated: 1
EndChar

StartChar: e
Encoding: 101 101 54
Width: 1077
GlyphClass: 2
Flags: W
HStem: 0 21G<474 686.5> 399 10<631 643.346> 1110 20G<670.5 887>
VStem: 167 239<451 662.796> 868 286<606.062 773>
LayerCount: 2
Fore
SplineSet
565 0 m 1,0,-1
 555 0 l 1,1,2
 393 46 393 46 279 169 c 0,3,4
 167 289 167 289 167 451 c 0,5,6
 167 505 167 505 180 565 c 0,7,8
 220 754 220 754 387 906 c 0,9,10
 546 1052 546 1052 795 1130 c 1,11,-1
 805 1130 l 1,12,13
 969 1082 969 1082 1081 961 c 0,14,15
 1154 881 1154 881 1154 773 c 0,16,17
 1154 745 1154 745 1149 715 c 0,18,19
 1127 580 1127 580 997 493 c 0,20,21
 860 399 860 399 629 399 c 1,22,-1
 631 409 l 1,23,24
 836 470 836 470 864 604 c 0,25,26
 868 625 868 625 868 645 c 0,27,28
 868 718 868 718 806 767 c 8,29,30
 688 859 688 859 468 859 c 1,31,32
 430 791 430 791 416 731 c 0,33,34
 406 685 406 685 406 642 c 0,35,36
 406 477 406 477 554 363 c 0,37,38
 672 271 672 271 863 271 c 24,39,40
 989 271 989 271 1086 367 c 1,41,-1
 1094 362 l 1,42,43
 1045 288 1045 288 972 222 c 0,44,45
 808 75 808 75 565 0 c 1,0,-1
EndSplineSet
Validated: 1
EndChar

StartChar: g
Encoding: 103 103 55
Width: 1167
GlyphClass: 2
Flags: W
HStem: -380 21G<292 491> 0 21G<473 633> 1110 20G<673.5 886>
VStem: 167 239<451 664.107> 894 289<358.372 717.665>
LayerCount: 2
Fore
SplineSet
565 0 m 1,0,-1
 555 0 l 1,1,2
 391 48 391 48 279 169 c 0,3,4
 167 289 167 289 167 451 c 0,5,6
 167 505 167 505 180 565 c 0,7,8
 221 757 221 757 388 908 c 0,9,10
 552 1055 552 1055 795 1130 c 1,11,-1
 805 1130 l 1,12,13
 967 1084 967 1084 1081 961 c 0,14,15
 1183 851 1183 851 1183 666 c 0,16,17
 1183 581 1183 581 1162 481 c 0,18,19
 1127 315 1127 315 1107 140 c 1,20,21
 968 -23 968 -23 793 -156 c 0,22,23
 598 -305 598 -305 384 -380 c 1,24,-1
 374 -380 l 1,25,26
 210 -332 210 -332 98 -211 c 1,27,-1
 103 -200 l 1,28,29
 257 -173 257 -173 467 -69 c 1,30,31
 570 -109 570 -109 712 -109 c 1,32,33
 774 -14 774 -14 810 105 c 1,34,35
 701 42 701 42 565 0 c 1,0,-1
851 272 m 1,36,37
 862 321 862 321 873 370 c 0,38,39
 894 467 894 467 894 542 c 0,40,41
 894 699 894 699 806 767 c 0,42,43
 688 859 688 859 468 859 c 1,44,45
 430 791 430 791 416 731 c 0,46,47
 406 685 406 685 406 642 c 0,48,49
 406 477 406 477 554 363 c 0,50,51
 661 280 661 280 851 272 c 1,36,37
EndSplineSet
Validated: 1
EndChar

StartChar: h
Encoding: 104 104 56
Width: 1225
GlyphClass: 2
Flags: W
HStem: 0 21G<111 230 774 893> 1110 20G<819.5 982> 1490 20G<673 792>
VStem: 947 275<408.594 806.463>
DStem2: 111 6 646 1027 0.235868 0.971785<378.428 1009.36>
LayerCount: 2
Fore
SplineSet
120 0 m 1,0,-1
 111 6 l 1,1,2
 243 409 243 409 310 724 c 0,3,4
 372 1017 372 1017 405 1387 c 1,5,6
 563 1409 563 1409 783 1510 c 1,7,-1
 792 1504 l 1,8,9
 709 1265 709 1265 646 1027 c 1,10,11
 759 1100 759 1100 880 1130 c 1,12,-1
 890 1130 l 1,13,14
 1074 1094 1074 1094 1159 955 c 0,15,16
 1222 853 1222 853 1222 716 c 0,17,18
 1222 645 1222 645 1205 565 c 0,19,20
 1161 358 1161 358 1161 123 c 1,21,22
 1003 101 1003 101 783 0 c 1,23,-1
 774 6 l 1,24,25
 881 295 881 295 933 534 c 0,26,27
 947 600 947 600 947 654 c 0,28,29
 947 764 947 764 888 825 c 0,30,31
 802 915 802 915 618 915 c 1,32,33
 602 847 602 847 587 778 c 0,34,35
 530 509 530 509 498 123 c 1,36,37
 340 101 340 101 120 0 c 1,0,-1
EndSplineSet
Validated: 1
EndChar

StartChar: i
Encoding: 105 105 57
Width: 572
GlyphClass: 2
Flags: W
HStem: 0 21G<111 230> 1110 20G<582 701>
VStem: 391 388<1321.37 1495.95>
LayerCount: 2
Fore
SplineSet
624 1616 m 1,0,-1
 634 1616 l 1,1,2
 697 1593 697 1593 744 1540 c 0,3,4
 779 1501 779 1501 779 1448 c 0,5,6
 779 1430 779 1430 774 1408 c 0,7,8
 757 1329 757 1329 688 1276 c 128,-1,9
 619 1223 619 1223 546 1200 c 1,10,-1
 536 1200 l 1,11,12
 459 1231 459 1231 422 1275 c 0,13,14
 391 1312 391 1312 391 1364 c 0,15,16
 391 1385 391 1385 396 1408 c 0,17,18
 413 1489 413 1489 479 1541 c 0,19,20
 533 1585 533 1585 624 1616 c 1,0,-1
120 0 m 1,21,-1
 111 6 l 1,22,23
 218 295 218 295 270 534 c 0,24,25
 321 774 321 774 324 1007 c 1,26,27
 472 1029 472 1029 692 1130 c 1,28,-1
 701 1124 l 1,29,30
 590 837 590 837 537 588 c 0,31,32
 488 358 488 358 488 123 c 1,33,34
 340 101 340 101 120 0 c 1,21,-1
EndSplineSet
Validated: 1
EndChar

StartChar: j
Encoding: 106 106 58
Width: 571
GlyphClass: 2
Flags: W
HStem: -380 21G<-108 19> 1110 20G<581 700>
VStem: 390 388<1321.37 1495.95>
LayerCount: 2
Fore
SplineSet
623 1616 m 1,0,-1
 633 1616 l 1,1,2
 696 1593 696 1593 743 1540 c 0,3,4
 778 1501 778 1501 778 1448 c 0,5,6
 778 1430 778 1430 773 1408 c 0,7,8
 756 1329 756 1329 687 1276 c 128,-1,9
 618 1223 618 1223 545 1200 c 1,10,-1
 535 1200 l 1,11,12
 458 1231 458 1231 421 1275 c 0,13,14
 390 1312 390 1312 390 1364 c 0,15,16
 390 1385 390 1385 395 1408 c 0,17,18
 412 1489 412 1489 478 1541 c 0,19,20
 532 1585 532 1585 623 1616 c 1,0,-1
-101 -380 m 1,21,-1
 -108 -374 l 1,22,23
 57 -172 57 -172 144 78 c 0,24,25
 216 283 216 283 269 534 c 0,26,27
 320 774 320 774 323 1007 c 1,28,29
 471 1029 471 1029 691 1130 c 1,30,-1
 700 1124 l 1,31,32
 587 833 587 833 536 588 c 0,33,34
 487 358 487 358 487 123 c 1,35,36
 411 -15 411 -15 302 -116 c 0,37,38
 139 -268 139 -268 -101 -380 c 1,21,-1
EndSplineSet
Validated: 1
EndChar

StartChar: k
Encoding: 107 107 59
Width: 1214
GlyphClass: 2
Flags: W
HStem: 0 21G<111 230 868 985> 1110 20G<948 1081> 1490 20G<673 792>
LayerCount: 2
Fore
SplineSet
1235 123 m 1,0,1
 1093 102 1093 102 877 0 c 1,2,-1
 868 6 l 1,3,4
 784 370 784 370 649 597 c 1,5,6
 594 548 594 548 537 485 c 1,7,8
 514 319 514 319 498 123 c 1,9,10
 340 101 340 101 120 0 c 1,11,-1
 111 6 l 1,12,13
 243 409 243 409 310 724 c 0,14,15
 372 1017 372 1017 405 1387 c 1,16,17
 563 1409 563 1409 783 1510 c 1,18,-1
 792 1504 l 1,19,20
 666 1140 666 1140 587 778 c 0,21,22
 575 723 575 723 565 664 c 1,23,24
 832 864 832 864 1064 1130 c 1,25,-1
 1081 1129 l 1,26,27
 1216 1052 1216 1052 1326 1023 c 1,28,29
 1091 907 1091 907 890 761 c 1,30,31
 977 450 977 450 1235 123 c 1,0,1
EndSplineSet
Validated: 1
EndChar

StartChar: l
Encoding: 108 108 60
Width: 582
GlyphClass: 2
Flags: W
HStem: 0 21G<111 230> 1490 20G<673 792>
VStem: 111 681
LayerCount: 2
Fore
SplineSet
120 0 m 1,0,-1
 111 6 l 1,1,2
 243 409 243 409 310 724 c 0,3,4
 372 1017 372 1017 405 1387 c 1,5,6
 563 1409 563 1409 783 1510 c 1,7,-1
 792 1504 l 1,8,9
 666 1140 666 1140 587 778 c 0,10,11
 530 509 530 509 498 123 c 1,12,13
 340 101 340 101 120 0 c 1,0,-1
EndSplineSet
Validated: 1
EndChar

StartChar: m
Encoding: 109 109 61
Width: 1888
GlyphClass: 2
Flags: W
HStem: 0 21G<111 232.5 774 893 1437 1556> 915 215<749.756 828.917 1377.49 1495.46>
VStem: 947 275<409.062 807.664> 1610 275<408.359 809.894>
LayerCount: 2
Fore
SplineSet
120 0 m 1,0,-1
 111 6 l 1,1,2
 218 295 218 295 270 534 c 0,3,4
 321 774 321 774 324 1007 c 1,5,6
 467 1027 467 1027 692 1130 c 1,7,-1
 701 1124 l 1,8,9
 685 1083 685 1083 669 1042 c 1,10,11
 771 1104 771 1104 880 1130 c 1,12,-1
 890 1130 l 1,13,14
 1069 1095 1069 1095 1154 963 c 1,15,16
 1333 1097 1333 1097 1543 1130 c 1,17,-1
 1553 1130 l 1,18,19
 1737 1094 1737 1094 1822 955 c 0,20,21
 1885 852 1885 852 1885 716 c 0,22,23
 1885 645 1885 645 1868 565 c 0,24,25
 1824 357 1824 357 1824 123 c 1,26,27
 1666 101 1666 101 1446 0 c 1,28,-1
 1437 6 l 1,29,30
 1544 295 1544 295 1596 534 c 0,31,32
 1610 601 1610 601 1610 656 c 0,33,34
 1610 764 1610 764 1554 824 c 0,35,36
 1468 914 1468 914 1333 915 c 0,37,38
 1262 915 1262 915 1194 883 c 1,39,40
 1222 807 1222 807 1222 716 c 0,41,42
 1222 645 1222 645 1205 565 c 0,43,44
 1161 360 1161 360 1161 123 c 1,45,46
 1003 101 1003 101 783 0 c 1,47,-1
 774 6 l 1,48,49
 881 295 881 295 933 534 c 0,50,51
 947 600 947 600 947 654 c 0,52,53
 947 764 947 764 888 825 c 0,54,55
 802 915 802 915 625 915 c 1,56,57
 570 745 570 745 537 588 c 0,58,59
 488 360 488 360 488 123 c 1,60,61
 345 103 345 103 120 0 c 1,0,-1
EndSplineSet
Validated: 1
EndChar

StartChar: n
Encoding: 110 110 62
Width: 1225
GlyphClass: 2
Flags: W
HStem: 0 21G<111 232.5 774 893> 1110 20G<579.5 701 825.5 982>
VStem: 947 275<408.828 806.238>
LayerCount: 2
Fore
SplineSet
120 0 m 1,0,-1
 111 6 l 1,1,2
 218 295 218 295 270 534 c 0,3,4
 321 774 321 774 324 1007 c 1,5,6
 467 1027 467 1027 692 1130 c 1,7,-1
 701 1124 l 1,8,9
 685 1083 685 1083 669 1042 c 1,10,11
 771 1104 771 1104 880 1130 c 1,12,-1
 890 1130 l 1,13,14
 1074 1094 1074 1094 1159 955 c 0,15,16
 1222 852 1222 852 1222 716 c 0,17,18
 1222 645 1222 645 1205 565 c 0,19,20
 1161 359 1161 359 1161 123 c 1,21,22
 1003 101 1003 101 783 0 c 1,23,-1
 774 6 l 1,24,25
 881 295 881 295 933 534 c 0,26,27
 947 600 947 600 947 654 c 0,28,29
 947 764 947 764 888 825 c 0,30,31
 802 915 802 915 625 915 c 1,32,33
 570 745 570 745 537 588 c 0,34,35
 488 358 488 358 488 123 c 1,36,37
 345 103 345 103 120 0 c 1,0,-1
EndSplineSet
Validated: 1
EndChar

StartChar: o
Encoding: 111 111 63
Width: 1120
GlyphClass: 2
Flags: W
HStem: 0 21G<474 686.5> 1110 20G<670.5 887>
VStem: 167 239<370 664.61> 954 239<464.734 760>
LayerCount: 2
Fore
SplineSet
893 271 m 1,0,1
 931 339 931 339 944 399 c 0,2,3
 954 445 954 445 954 488 c 0,4,5
 954 653 954 653 806 767 c 0,6,7
 688 859 688 859 468 859 c 1,8,9
 430 791 430 791 416 731 c 0,10,11
 406 685 406 685 406 642 c 0,12,13
 406 477 406 477 554 363 c 0,14,15
 673 271 673 271 893 271 c 1,0,1
565 0 m 1,16,-1
 555 0 l 1,17,18
 393 46 393 46 279 169 c 0,19,20
 167 289 167 289 167 451 c 0,21,22
 167 505 167 505 180 565 c 0,23,24
 220 754 220 754 387 906 c 0,25,26
 546 1052 546 1052 795 1130 c 1,27,-1
 805 1130 l 1,28,29
 969 1082 969 1082 1081 961 c 0,30,31
 1193 841 1193 841 1193 679 c 0,32,33
 1193 625 1193 625 1180 565 c 0,34,35
 1139 373 1139 373 972 222 c 0,36,37
 808 75 808 75 565 0 c 1,16,-1
EndSplineSet
Validated: 1
EndChar

StartChar: p
Encoding: 112 112 64
Width: 1193
GlyphClass: 2
Flags: W
HStem: -380 21G<31 138.5> 0 21G<570 763> 1110 20G<580 691 813.5 959>
VStem: 1027 239<467.204 679>
LayerCount: 2
Fore
SplineSet
638 0 m 1,0,-1
 628 0 l 1,1,2
 512 54 512 54 453 192 c 1,3,4
 414 -43 414 -43 397 -257 c 1,5,6
 238 -288 238 -288 39 -380 c 1,7,-1
 31 -374 l 1,8,9
 157 -10 157 -10 235 352 c 0,10,11
 292 621 292 621 324 1007 c 1,12,13
 478 1036 478 1036 682 1130 c 1,14,-1
 691 1124 l 1,15,16
 679 1086 679 1086 667 1048 c 1,17,18
 759 1096 759 1096 868 1130 c 1,19,-1
 878 1130 l 1,20,21
 1040 1084 1040 1084 1154 961 c 0,22,23
 1266 841 1266 841 1266 679 c 0,24,25
 1266 625 1266 625 1253 565 c 0,26,27
 1213 376 1213 376 1047 224 c 0,28,29
 888 78 888 78 638 0 c 1,0,-1
558 719 m 0,30,31
 543 650 543 650 543 590 c 0,32,33
 543 470 543 470 602 388 c 0,34,35
 693 260 693 260 963 260 c 1,36,37
 1001 328 1001 328 1017 399 c 0,38,39
 1027 445 1027 445 1027 488 c 0,40,41
 1027 653 1027 653 879 767 c 0,42,43
 761 858 761 858 598 858 c 1,44,45
 572 786 572 786 558 719 c 0,30,31
EndSplineSet
Validated: 1
EndChar

StartChar: q
Encoding: 113 113 65
Width: 1196
GlyphClass: 2
Flags: W
HStem: -380 21G<665 783> 0 21G<473 633> 1110 20G<673.5 886>
VStem: 167 239<451 664.107> 894 289<364.147 717.665>
LayerCount: 2
Fore
SplineSet
565 0 m 1,0,-1
 555 0 l 1,1,2
 391 48 391 48 279 169 c 0,3,4
 167 289 167 289 167 451 c 0,5,6
 167 505 167 505 180 565 c 0,7,8
 221 757 221 757 388 908 c 0,9,10
 552 1055 552 1055 795 1130 c 1,11,-1
 805 1130 l 1,12,13
 967 1084 967 1084 1081 961 c 0,14,15
 1183 851 1183 851 1183 666 c 0,16,17
 1183 581 1183 581 1162 481 c 0,18,19
 1084 113 1084 113 1051 -257 c 1,20,21
 893 -279 893 -279 673 -380 c 1,22,-1
 665 -374 l 1,23,24
 748 -136 748 -136 810 105 c 1,25,26
 701 42 701 42 565 0 c 1,0,-1
851 272 m 1,27,28
 862 321 862 321 873 370 c 0,29,30
 894 467 894 467 894 542 c 0,31,32
 894 699 894 699 806 767 c 0,33,34
 688 859 688 859 468 859 c 1,35,36
 430 791 430 791 416 731 c 0,37,38
 406 685 406 685 406 642 c 0,39,40
 406 477 406 477 554 363 c 0,41,42
 661 280 661 280 851 272 c 1,27,28
EndSplineSet
Validated: 1
EndChar

StartChar: r
Encoding: 114 114 66
Width: 974
GlyphClass: 2
Flags: W
HStem: 0 21G<111 232.5> 1110 20G<579.5 701 825.5 978>
LayerCount: 2
Fore
SplineSet
120 0 m 1,0,1
 111 6 l 1,2,3
 218 295 218 295 270 534 c 0,4,5
 321 774 321 774 324 1007 c 1,6,7
 467 1027 467 1027 692 1130 c 1,8,-1
 701 1124 l 1,9,10
 685 1083 685 1083 669 1042 c 1,11,12
 771 1104 771 1104 880 1130 c 1,13,-1
 890 1130 l 1,14,15
 1066 1096 1066 1096 1159 955 c 0,16,17
 1164 947 1164 947 1169 939 c 1,18,19
 1165 930 l 1,20,21
 1038 900 1038 900 888 825 c 1,22,23
 802 915 802 915 625 915 c 1,24,25
 570 745 570 745 537 588 c 0,26,27
 488 358 488 358 488 123 c 1,28,29
 345 103 345 103 120 0 c 1,0,1
EndSplineSet
Validated: 1
EndChar

StartChar: s
Encoding: 115 115 67
Width: 928
VWidth: 0
GlyphClass: 2
Flags: W
HStem: 0 21G<381 556> 1110 20G<631 803.5>
VStem: 261 188<750 891.75> 756 219<289.514 507.5>
DStem2: 770 681 428 528 0.912309 -0.409502<-368.83 119.493>
LayerCount: 2
Fore
SplineSet
470 0 m 1,0,-1
 459 0 l 1,1,2
 303 44 303 44 184 169 c 0,3,4
 130 225 130 225 102 294 c 1,5,-1
 108 305 l 1,6,7
 237 339 237 339 387 408 c 1,8,9
 499 257 499 257 734 222 c 1,10,11
 750 250 750 250 754 273 c 0,12,13
 756 286 756 286 756 298 c 0,14,15
 756 381 756 381 604 449 c 2,16,-1
 428 528 l 2,17,18
 261 603 261 603 261 750 c 0,19,20
 261 773 261 773 266 798 c 0,21,22
 294 929 294 929 457 1028 c 0,23,24
 563 1093 563 1093 699 1130 c 1,25,-1
 709 1130 l 1,26,27
 898 1085 898 1085 1009 917 c 1,28,-1
 1004 907 l 1,29,30
 877 875 877 875 716 802 c 1,31,32
 638 925 638 925 465 939 c 1,33,34
 453 918 453 918 450 901 c 0,35,36
 449 895 449 895 449 888 c 0,37,38
 449 825 449 825 609 753 c 2,39,-1
 770 681 l 2,40,41
 975 589 975 589 975 426 c 0,42,43
 975 412 975 412 973 398 c 0,44,45
 953 245 953 245 771 136 c 0,46,47
 642 59 642 59 470 0 c 1,0,-1
EndSplineSet
Validated: 1
EndChar

StartChar: t
Encoding: 116 116 68
Width: 810
GlyphClass: 2
Flags: W
HStem: 0 21G<235 342> 934 196<305.188 475.089 773.065 944.562> 1490 20G<783.5 896>
LayerCount: 2
Fore
SplineSet
244 0 m 1,0,-1
 235 6 l 1,1,2
 367 409 367 409 434 724 c 0,3,4
 459 841 459 841 479 970 c 1,5,6
 354 961 354 961 210 934 c 1,7,-1
 206 944 l 1,8,9
 286 1047 286 1047 329 1130 c 1,10,11
 414 1113 414 1113 498 1104 c 1,12,13
 516 1240 516 1240 529 1387 c 1,14,15
 680 1415 680 1415 887 1510 c 1,16,-1
 896 1504 l 1,17,18
 825 1300 825 1300 769 1096 c 1,19,20
 899 1103 899 1103 1039 1130 c 1,21,-1
 1043 1120 l 1,22,23
 965 1016 965 1016 920 934 c 1,24,25
 831 957 831 957 736 967 c 1,26,27
 712 872 712 872 691 778 c 0,28,29
 634 509 634 509 602 123 c 1,30,31
 440 90 440 90 244 0 c 1,0,-1
EndSplineSet
Validated: 1
EndChar

StartChar: u
Encoding: 117 117 69
Width: 1225
GlyphClass: 2
Flags: W
HStem: 0 21G<483 639.5 764 885.5> 1110 20G<572 691 1232.5 1354>
VStem: 243 276<320.764 724.873>
LayerCount: 2
Fore
SplineSet
585 0 m 1,0,-1
 575 0 l 1,1,2
 391 36 391 36 306 175 c 0,3,4
 243 278 243 278 243 414 c 0,5,6
 243 485 243 485 260 565 c 0,7,8
 304 770 304 770 304 1007 c 1,9,10
 462 1029 462 1029 682 1130 c 1,11,-1
 691 1124 l 1,12,13
 584 835 584 835 533 596 c 0,14,15
 519 530 519 530 519 476 c 0,16,17
 519 366 519 366 577 305 c 0,18,19
 663 215 663 215 840 215 c 1,20,21
 895 385 895 385 928 542 c 0,22,23
 977 772 977 772 977 1007 c 1,24,25
 1120 1027 1120 1027 1345 1130 c 1,26,-1
 1354 1124 l 1,27,28
 1248 836 1248 836 1196 596 c 0,29,30
 1141 338 1141 338 1141 123 c 1,31,32
 998 103 998 103 773 0 c 1,33,-1
 764 6 l 1,34,35
 780 47 780 47 796 88 c 1,36,37
 694 26 694 26 585 0 c 1,0,-1
EndSplineSet
Validated: 1
EndChar

StartChar: v
Encoding: 118 118 70
Width: 1167
GlyphClass: 2
Flags: W
HStem: 0 21G<396 515> 1110 20G<468 581>
LayerCount: 2
Fore
SplineSet
405 0 m 1,0,-1
 396 6 l 1,1,2
 390 559 390 559 220 1011 c 1,3,4
 364 1033 364 1033 572 1130 c 1,5,-1
 581 1124 l 1,6,7
 577 1035 577 1035 577 952 c 0,8,9
 577 547 577 547 677 265 c 1,10,11
 930 628 930 628 1091 1026 c 1,12,13
 1221 1055 1221 1055 1393 1134 c 1,14,-1
 1402 1128 l 1,15,16
 967 520 967 520 783 123 c 1,17,18
 625 101 625 101 405 0 c 1,0,-1
EndSplineSet
Validated: 1
EndChar

StartChar: w
Encoding: 119 119 71
Width: 1888
GlyphClass: 2
Flags: W
HStem: 0 215<633.008 750.509 1299.08 1378.24> 1110 20G<572 691 1235 1354 1895.5 2017>
VStem: 243 276<320.106 725.342> 906 276<320.686 725.108>
LayerCount: 2
Fore
SplineSet
585 0 m 1,0,-1
 575 0 l 1,1,2
 391 36 391 36 306 175 c 0,3,4
 243 278 243 278 243 414 c 0,5,6
 243 485 243 485 260 565 c 0,7,8
 304 772 304 772 304 1007 c 1,9,10
 462 1029 462 1029 682 1130 c 1,11,-1
 691 1124 l 1,12,13
 584 835 584 835 533 596 c 0,14,15
 519 529 519 529 519 474 c 0,16,17
 519 366 519 366 575 306 c 0,18,19
 660 216 660 216 795 215 c 0,20,21
 866 215 866 215 935 247 c 1,22,23
 906 325 906 325 906 416 c 0,24,25
 906 486 906 486 923 565 c 0,26,27
 967 771 967 771 967 1007 c 1,28,29
 1125 1029 1125 1029 1345 1130 c 1,30,-1
 1354 1124 l 1,31,32
 1247 835 1247 835 1196 596 c 0,33,34
 1182 530 1182 530 1182 476 c 0,35,36
 1182 366 1182 366 1240 305 c 0,37,38
 1326 215 1326 215 1503 215 c 1,39,40
 1555 375 1555 375 1591 542 c 0,41,42
 1640 769 1640 769 1640 1007 c 1,43,44
 1783 1027 1783 1027 2008 1130 c 1,45,-1
 2017 1124 l 1,46,47
 1910 835 1910 835 1859 596 c 0,48,49
 1804 337 1804 337 1804 123 c 1,50,51
 1661 103 1661 103 1436 0 c 1,52,-1
 1427 6 l 1,53,54
 1443 47 1443 47 1459 88 c 1,55,56
 1357 26 1357 26 1248 0 c 1,57,-1
 1238 0 l 1,58,59
 1059 35 1059 35 974 167 c 1,60,61
 795 33 795 33 585 0 c 1,0,-1
EndSplineSet
Validated: 1
EndChar

StartChar: x
Encoding: 120 120 72
Width: 1083
GlyphClass: 2
Flags: W
HStem: 0 21G<6 119 742 863> 1110 20G<465.5 592 1199 1312>
LayerCount: 2
Fore
SplineSet
15 0 m 1,0,-1
 6 6 l 1,1,2
 339 300 339 300 542 530 c 1,3,4
 437 759 437 759 230 1007 c 1,5,6
 348 1029 348 1029 583 1130 c 1,7,-1
 592 1124 l 1,8,9
 642 920 642 920 721 730 c 1,10,11
 854 875 854 875 946 1010 c 1,12,13
 1095 1035 1095 1035 1303 1130 c 1,14,-1
 1312 1124 l 1,15,16
 1008 852 1008 852 780 602 c 1,17,18
 904 343 904 343 1104 123 c 1,19,20
 975 102 975 102 751 0 c 1,21,-1
 742 6 l 1,22,23
 684 206 684 206 601 402 c 1,24,25
 476 268 476 268 373 120 c 1,26,27
 223 95 223 95 15 0 c 1,0,-1
EndSplineSet
Validated: 1
EndChar

StartChar: y
Encoding: 121 121 73
Width: 1225
GlyphClass: 2
Flags: W
HStem: -380 21G<674 792> 0 21G<483 645.5> 1110 20G<572 691 1235 1354>
VStem: 243 276<322.482 725.342>
LayerCount: 2
Fore
SplineSet
585 0 m 1,0,-1
 575 0 l 1,1,2
 391 36 391 36 306 175 c 0,3,4
 243 277 243 277 243 414 c 0,5,6
 243 485 243 485 260 565 c 0,7,8
 304 772 304 772 304 1007 c 1,9,10
 462 1029 462 1029 682 1130 c 1,11,-1
 691 1124 l 1,12,13
 584 835 584 835 533 596 c 0,14,15
 519 530 519 530 519 476 c 0,16,17
 519 366 519 366 577 305 c 0,18,19
 663 215 663 215 847 215 c 1,20,21
 863 283 863 283 878 352 c 0,22,23
 935 621 935 621 967 1007 c 1,24,25
 1125 1029 1125 1029 1345 1130 c 1,26,-1
 1354 1124 l 1,27,28
 1222 721 1222 721 1155 406 c 0,29,30
 1093 113 1093 113 1060 -257 c 1,31,32
 902 -279 902 -279 682 -380 c 1,33,-1
 674 -374 l 1,34,35
 757 -135 757 -135 819 103 c 1,36,37
 706 30 706 30 585 0 c 1,0,-1
EndSplineSet
Validated: 1
EndChar

StartChar: z
Encoding: 122 122 74
Width: 1009
GlyphClass: 2
Flags: W
HStem: 0 21G<12 141.5 795.5 915> 60 124<511 785.75> 1110 20G<382 503 1084.5 1216>
LayerCount: 2
Fore
SplineSet
16 0 m 1,0,1
 12 10 l 1,2,3
 456 482 456 482 716 945 c 1,4,5
 492 931 492 931 227 768 c 1,6,-1
 223 778 l 1,7,8
 353 959 353 959 411 1130 c 1,9,10
 595 1069 595 1069 776 1069 c 128,-1,11
 957 1069 957 1069 1212 1130 c 1,12,13
 1216 1120 l 1,14,15
 782 656 782 656 511 184 c 1,16,17
 781 184 781 184 1070 362 c 1,18,-1
 1074 352 l 1,19,20
 944 171 944 171 886 0 c 1,21,22
 705 60 705 60 490 60 c 0,23,24
 267 60 267 60 16 0 c 1,0,1
EndSplineSet
Validated: 1
EndChar

StartChar: braceleft
Encoding: 123 123 75
Width: 1197
GlyphClass: 2
Flags: W
HStem: 642 212<332.225 450>
VStem: 420 307<167.337 639.713>
LayerCount: 2
Fore
SplineSet
750 -345 m 1,0,1
 544 -195 544 -195 463 71 c 0,2,3
 420 210 420 210 420 367 c 0,4,5
 420 498 420 498 450 642 c 1,6,7
 265 642 265 642 156 612 c 1,8,-1
 152 622 l 1,9,10
 282 761 282 761 330 884 c 1,11,12
 401 854 401 854 496 854 c 1,13,14
 571 1209 571 1209 779 1505.5 c 128,-1,15
 987 1802 987 1802 1293 1927 c 1,16,17
 1406 1872 1406 1872 1460 1783 c 0,18,19
 1508 1704 1508 1704 1516 1595 c 1,20,21
 1374 1544 1374 1544 1275 1450 c 1,22,-1
 1265 1450 l 1,23,24
 1265 1548 1265 1548 1228 1631 c 128,-1,25
 1191 1714 1191 1714 1131 1741 c 1,26,27
 1054 1643 1054 1643 986 1501 c 0,28,29
 849 1212 849 1212 771 832 c 0,30,31
 727 618 727 618 727 452 c 0,32,33
 727 261 727 261 785 133 c 0,34,35
 849 -9 849 -9 975 -93 c 1,36,37
 1010 -36 1010 -36 1010 26 c 0,38,39
 1010 75 1010 75 992 135 c 1,40,-1
 999 141 l 1,41,42
 1063 82 1063 82 1171 53 c 1,43,44
 1111 -53 1111 -53 1031 -139 c 0,45,46
 914 -266 914 -266 750 -345 c 1,0,1
EndSplineSet
Validated: 1
EndChar

StartChar: bar
Encoding: 124 124 76
Width: 682
GlyphClass: 2
Flags: W
LayerCount: 2
Fore
SplineSet
138 -150 m 1,0,-1
 129 -144 l 1,1,2
 261 259 261 259 360 724 c 0,3,4
 454 1167 454 1167 487 1537 c 1,5,6
 645 1559 645 1559 865 1660 c 1,7,-1
 874 1654 l 1,8,9
 748 1293 748 1293 637 778 c 0,10,11
 548 359 548 359 516 -27 c 1,12,13
 358 -49 358 -49 138 -150 c 1,0,-1
EndSplineSet
Validated: 1
EndChar

StartChar: braceright
Encoding: 125 125 77
Width: 1197
GlyphClass: 2
Flags: W
HStem: 728 212<1084 1201.78>
VStem: 807 307<942.287 1414.66>
LayerCount: 2
Fore
SplineSet
241 -345 m 1,0,1
 128 -290 128 -290 74 -201 c 0,2,3
 26 -122 26 -122 18 -13 c 1,4,5
 160 38 160 38 259 132 c 1,6,-1
 269 132 l 1,7,8
 269 34 269 34 306 -49 c 128,-1,9
 343 -132 343 -132 403 -159 c 1,10,11
 480 -61 480 -61 548 81 c 0,12,13
 685 370 685 370 763 750 c 0,14,15
 807 964 807 964 807 1130 c 0,16,17
 807 1321 807 1321 749 1449 c 0,18,19
 685 1591 685 1591 559 1675 c 1,20,21
 524 1618 524 1618 524 1556 c 0,22,23
 524 1507 524 1507 542 1447 c 1,24,-1
 535 1441 l 1,25,26
 471 1500 471 1500 363 1529 c 1,27,28
 423 1635 423 1635 503 1721 c 0,29,30
 620 1848 620 1848 784 1927 c 1,31,32
 990 1777 990 1777 1071 1511 c 0,33,34
 1114 1372 1114 1372 1114 1215 c 0,35,36
 1114 1084 1114 1084 1084 940 c 1,37,38
 1269 940 1269 940 1378 970 c 1,39,-1
 1382 960 l 1,40,41
 1252 821 1252 821 1204 698 c 1,42,43
 1133 728 1133 728 1038 728 c 1,44,45
 963 373 963 373 755 76.5 c 128,-1,46
 547 -220 547 -220 241 -345 c 1,0,1
EndSplineSet
Validated: 1
EndChar

StartChar: asciitilde
Encoding: 126 126 78
Width: 1215
GlyphClass: 2
Flags: W
HStem: 548 234<815.113 1072.4> 711 234<459.728 716.887>
LayerCount: 2
Fore
SplineSet
600 945 m 0,0,1
 690 945 690 945 744 870 c 0,2,3
 808 782 808 782 935 782 c 0,4,5
 1119 782 1119 782 1298 936 c 1,6,-1
 1302 926 l 1,7,8
 1156 737 1156 737 1099 611 c 1,9,10
 1014 548 1014 548 932 548 c 0,11,12
 842 548 842 548 788 623 c 0,13,14
 724 711 724 711 597 711 c 0,15,16
 413 711 413 711 234 557 c 1,17,-1
 231 567 l 1,18,19
 381 754 381 754 433 882 c 1,20,21
 519 945 519 945 600 945 c 0,0,1
EndSplineSet
Validated: 1
EndChar

StartChar: exclamdown
Encoding: 161 161 80
Width: 662
GlyphClass: 2
Flags: W
HStem: -380 21G<51 172.5> 1110 20G<529.5 614.5>
VStem: 333 388<832.5 1008.63>
LayerCount: 2
Fore
SplineSet
59 -380 m 1,0,1
 51 -374 l 1,2,3
 153 -169 153 -169 232.5 85 c 128,-1,4
 312 339 312 339 372 623 c 1,5,6
 465 642 465 642 557 682 c 1,7,-1
 566 676 l 1,8,9
 506 392 506 392 484 170 c 0,10,11
 471 36 471 36 471 -93 c 0,12,13
 471 -176 471 -176 477 -257 c 1,14,15
 286 -279 286 -279 59 -380 c 1,0,1
566 1130 m 1,16,-1
 576 1130 l 1,17,18
 653 1099 653 1099 690 1055 c 0,19,20
 721 1018 721 1018 721 966 c 0,21,22
 721 945 721 945 716 922 c 0,23,24
 699 841 699 841 634 789 c 0,25,26
 579 745 579 745 488 714 c 1,27,-1
 478 714 l 1,28,29
 415 737 415 737 368 790 c 0,30,31
 333 829 333 829 333 882 c 0,32,33
 333 901 333 901 338 922 c 0,34,35
 355 1001 355 1001 424 1054 c 128,-1,36
 493 1107 493 1107 566 1130 c 1,16,-1
EndSplineSet
Validated: 1
EndChar

StartChar: sterling
Encoding: 163 163 81
Width: 1239
GlyphClass: 2
Flags: W
HStem: 0 21G<161 295.5 965.5 1084> 60 144<563.755 969.289> 590 196<654.438 966> 631 118<648 936.277> 1490 20G<1006 1228>
LayerCount: 2
Fore
SplineSet
170 0 m 1,0,-1
 161 6 l 1,1,2
 271 290 271 290 325 542 c 0,3,4
 333 578 333 578 339 613 c 1,5,6
 268 604 268 604 191 590 c 1,7,-1
 188 600 l 1,8,9
 268 703 268 703 311 786 c 1,10,11
 336 781 336 781 360 777 c 1,12,13
 365 835 365 835 365 890 c 0,14,15
 365 924 365 924 363 957 c 1,16,17
 548 1162 548 1162 707 1286 c 0,18,19
 876 1416 876 1416 1136 1510 c 1,20,-1
 1146 1510 l 1,21,22
 1310 1462 1310 1462 1422 1341 c 1,23,-1
 1417 1330 l 1,24,25
 1263 1303 1263 1303 1053 1199 c 1,26,27
 950 1239 950 1239 808 1239 c 1,28,29
 770 1150 770 1150 738 1052 c 0,30,31
 688 900 688 900 648 749 c 1,32,33
 854 749 854 749 1061 786 c 1,34,-1
 1065 776 l 1,35,36
 987 672 987 672 941 590 c 1,37,38
 790 630 790 630 620 631 c 1,39,40
 575 417 575 417 562 214 c 1,41,42
 618 204 618 204 695 204 c 0,43,44
 965 204 965 204 1254 382 c 1,45,-1
 1258 372 l 1,46,47
 1112 164 1112 164 1056 0 c 1,48,49
 875 60 875 60 660 60 c 0,50,51
 421 60 421 60 170 0 c 1,0,-1
EndSplineSet
Validated: 1
EndChar

StartChar: currency
Encoding: 164 164 82
Width: 1304
GlyphClass: 2
Flags: W
VStem: 350 239<607.5 851.31> 1033 238<642.067 886.5>
LayerCount: 2
Fore
SplineSet
640 1002 m 1,0,1
 611 954 611 954 597 889 c 0,2,3
 589 852 589 852 589 819 c 0,4,5
 589 680 589 680 722 590 c 0,6,7
 816 528 816 528 983 499 c 1,8,9
 1012 546 1012 546 1025 609 c 0,10,11
 1033 647 1033 647 1033 682 c 0,12,13
 1033 822 1033 822 901 911 c 0,14,15
 807 973 807 973 640 1002 c 1,0,1
913 1259 m 1,16,-1
 927 1259 l 1,17,18
 1076 1197 1076 1197 1156 1118 c 1,19,20
 1210 1172 1210 1172 1262 1226 c 1,21,22
 1331 1188 1331 1188 1437 1154 c 1,23,-1
 1437 1143 l 1,24,25
 1335 1076 1335 1076 1235 1006 c 1,26,27
 1271 930 1271 930 1271 843 c 0,28,29
 1271 796 1271 796 1260 745 c 0,30,31
 1229 598 1229 598 1120 484 c 1,32,33
 1171 434 1171 434 1222 390 c 1,34,35
 1166 313 1166 313 1109 199 c 1,36,-1
 1098 197 l 1,37,38
 1049 288 1049 288 993 379 c 1,39,40
 872 299 872 299 710 242 c 1,41,-1
 696 242 l 1,42,43
 561 294 561 294 476 374 c 1,44,45
 413 312 413 312 357 252 c 1,46,47
 289 292 289 292 181 324 c 1,48,-1
 181 335 l 1,49,50
 288 404 288 404 394 480 c 1,51,52
 350 561 350 561 350 654 c 0,53,54
 350 698 350 698 360 745 c 0,55,56
 390 885 390 885 492 1001 c 1,57,58
 446 1046 446 1046 396 1088 c 1,59,60
 451 1166 451 1166 509 1279 c 1,61,-1
 520 1281 l 1,62,63
 566 1195 566 1195 617 1114 c 1,64,65
 733 1197 733 1197 913 1259 c 1,16,-1
EndSplineSet
Validated: 1
EndChar

StartChar: yen
Encoding: 165 165 83
Width: 1406
GlyphClass: 2
Flags: W
HStem: 0 21G<525 647.5> 343 196<334.75 640.425 991.504 1259.56> 594 196<387.75 562.24 1152.94 1313> 1490 20G<564.5 687 1625 1716>
LayerCount: 2
Fore
SplineSet
534 0 m 1,0,1
 525 6 l 1,2,3
 601 204 601 204 646 380 c 1,4,5
 468 371 468 371 239 343 c 1,6,-1
 235 353 l 1,7,8
 315 456 315 456 359 539 c 1,9,10
 508 518 508 518 646 509 c 1,11,12
 631 568 631 568 613 626 c 1,13,14
 468 616 468 616 292 594 c 1,15,-1
 288 604 l 1,16,17
 368 707 368 707 412 790 c 1,18,19
 490 779 490 779 566 771 c 1,20,21
 462 1075 462 1075 305 1387 c 1,22,23
 451 1408 451 1408 678 1510 c 1,24,-1
 687 1504 l 1,25,26
 727 1102 727 1102 869 753 c 1,27,28
 936 753 936 753 964 754 c 1,29,30
 1201 1045 1201 1045 1396 1402 c 1,31,32
 1543 1437 1543 1437 1707 1510 c 1,33,-1
 1716 1504 l 1,34,35
 1392 1124 1392 1124 1149 762 c 1,36,37
 1275 771 1275 771 1408 790 c 1,38,-1
 1412 780 l 1,39,40
 1334 676 1334 676 1288 594 c 1,41,42
 1174 615 1174 615 1060 625 c 1,43,44
 1022 565 1022 565 986 505 c 1,45,46
 1162 512 1162 512 1355 539 c 1,47,-1
 1358 529 l 1,48,49
 1280 425 1280 425 1235 343 c 1,50,51
 1094 369 1094 369 953 379 c 1,52,53
 935 259 935 259 932 123 c 1,54,55
 761 101 761 101 534 0 c 1,0,1
EndSplineSet
Validated: 1
EndChar

StartChar: brokenbar
Encoding: 166 166 84
Width: 682
GlyphClass: 2
Flags: W
VStem: 290 211<192.73 380.298> 498 211<1122.73 1310.3>
LayerCount: 2
Fore
SplineSet
865 1660 m 1,0,-1
 874 1654 l 1,1,2
 775 1424 775 1424 733 1230 c 0,3,4
 709 1115 709 1115 709 1005 c 0,5,6
 709 953 709 953 714 903 c 1,7,8
 566 881 566 881 346 780 c 1,9,-1
 337 786 l 1,10,11
 432 1018 432 1018 469 1189 c 0,12,13
 498 1322 498 1322 498 1486 c 0,14,15
 498 1511 498 1511 497 1537 c 1,16,17
 645 1559 645 1559 865 1660 c 1,0,-1
138 -150 m 1,18,-1
 129 -144 l 1,19,20
 224 88 224 88 261 259 c 0,21,22
 290 392 290 392 290 556 c 0,23,24
 290 581 290 581 289 607 c 1,25,26
 437 629 437 629 657 730 c 1,27,-1
 666 724 l 1,28,29
 567 494 567 494 526 300 c 0,30,31
 501 183 501 183 501 71 c 0,32,33
 501 21 501 21 506 -27 c 1,34,35
 358 -49 358 -49 138 -150 c 1,18,-1
EndSplineSet
Validated: 1
EndChar

StartChar: section
Encoding: 167 167 85
Width: 1068
VWidth: 0
GlyphClass: 2
Flags: W
HStem: 0 21G<434.5 607.5> 1490 20G<781.5 954.5>
VStem: 264 160<705 911> 412 187<1136 1271.28> 790 187<238.719 374> 965 160<599 805>
DStem2: 623 668 473 463 0.912309 -0.409502<-206.214 305.926> 755 1119 590 921 0.912309 -0.409502<-182.458 329.682>
LayerCount: 2
Fore
SplineSet
539 0 m 1,0,-1
 529 0 l 1,1,2
 340 45 340 45 229 213 c 1,3,-1
 234 223 l 1,4,5
 361 255 361 255 522 328 c 1,6,7
 600 205 600 205 774 191 c 1,8,9
 786 212 786 212 789 229 c 0,10,11
 790 235 790 235 790 241 c 0,12,13
 790 321 790 321 634 391 c 2,14,-1
 473 463 l 2,15,16
 264 557 264 557 264 705 c 0,17,18
 264 718 264 718 266 732 c 0,19,20
 281 852 281 852 430 944 c 1,21,-1
 438 940 l 1,22,23
 430 927 430 927 427 911 c 0,24,25
 424 896 424 896 424 882 c 0,26,27
 424 757 424 757 623 668 c 2,28,-1
 799 589 l 2,29,30
 977 509 977 509 977 374 c 0,31,32
 977 354 977 354 973 332 c 0,33,34
 947 202 947 202 782 102 c 0,35,36
 676 37 676 37 539 0 c 1,0,-1
850 1510 m 1,37,-1
 860 1510 l 1,38,39
 1049 1465 1049 1465 1160 1297 c 1,40,-1
 1155 1287 l 1,41,42
 1028 1255 1028 1255 867 1182 c 1,43,44
 789 1305 789 1305 615 1319 c 1,45,46
 603 1298 603 1298 600 1281 c 0,47,48
 599 1275 599 1275 599 1269 c 0,49,50
 599 1189 599 1189 755 1119 c 2,51,-1
 916 1047 l 2,52,53
 1125 953 1125 953 1125 805 c 0,54,55
 1125 792 1125 792 1123 778 c 0,56,57
 1108 658 1108 658 959 566 c 1,58,-1
 951 570 l 1,59,60
 959 583 959 583 962 599 c 0,61,62
 965 614 965 614 965 628 c 0,63,64
 965 753 965 753 766 842 c 2,65,-1
 590 921 l 2,66,67
 412 1001 412 1001 412 1136 c 0,68,69
 412 1156 412 1156 416 1178 c 0,70,71
 442 1308 442 1308 607 1408 c 0,72,73
 713 1473 713 1473 850 1510 c 1,37,-1
EndSplineSet
Validated: 1
EndChar

StartChar: dieresis
Encoding: 168 168 86
Width: 647
GlyphClass: 2
Flags: W
HStem: 1248 318
VStem: 315 297<1329.39 1487.57> 632 297<1328.3 1487.13>
LayerCount: 2
Fore
SplineSet
812 1566 m 1,0,-1
 819 1566 l 1,1,2
 867 1548 867 1548 903 1508 c 0,3,4
 929 1478 929 1478 929 1437 c 0,5,6
 929 1422 929 1422 926 1407 c 0,7,8
 913 1347 913 1347 860 1306.5 c 128,-1,9
 807 1266 807 1266 751 1248 c 1,10,-1
 744 1248 l 1,11,12
 685 1271 685 1271 656 1305 c 0,13,14
 632 1334 632 1334 632 1374 c 0,15,16
 632 1390 632 1390 636 1407 c 0,17,18
 649 1469 649 1469 700 1509 c 0,19,20
 743 1543 743 1543 812 1566 c 1,0,-1
494 1566 m 1,21,-1
 501 1566 l 1,22,23
 550 1548 550 1548 586 1508 c 0,24,25
 612 1479 612 1479 612 1437 c 0,26,27
 612 1423 612 1423 609 1407 c 0,28,29
 596 1347 596 1347 542.5 1306.5 c 128,-1,30
 489 1266 489 1266 433 1248 c 1,31,-1
 426 1248 l 1,32,33
 367 1271 367 1271 338 1305 c 0,34,35
 315 1333 315 1333 315 1373 c 0,36,37
 315 1389 315 1389 319 1407 c 0,38,39
 332 1469 332 1469 382 1509 c 0,40,41
 425 1543 425 1543 494 1566 c 1,21,-1
EndSplineSet
Validated: 1
EndChar

StartChar: copyright
Encoding: 169 169 87
Width: 1321
GlyphClass: 2
Flags: W
HStem: 386 69<586.729 931.797> 588 193<835.521 916.931> 1458 72<790.407 1145.08>
VStem: 298 76<660.38 1035.98> 541 199<871.878 1052.73> 1352 77<870.317 1252.73>
LayerCount: 2
Fore
SplineSet
986 1530 m 0,0,1
 1228 1530 1228 1530 1347 1357 c 0,2,3
 1429 1238 1429 1238 1429 1087 c 0,4,5
 1429 1023 1429 1023 1414 953 c 0,6,7
 1360 701 1360 701 1167 549 c 0,8,9
 961 386 961 386 741 386 c 0,10,11
 518 386 518 386 388 549 c 0,12,13
 298 662 298 662 298 818 c 0,14,15
 298 882 298 882 313 953 c 0,16,17
 365 1197 365 1197 558 1362 c 0,18,19
 754 1530 754 1530 986 1530 c 0,0,1
969 1458 m 0,20,21
 783 1458 783 1458 606 1312 c 0,22,23
 431 1168 431 1168 387 953 c 0,24,25
 374 889 374 889 374 832 c 0,26,27
 374 696 374 696 448 600 c 0,28,29
 560 455 560 455 759 455 c 0,30,31
 946 455 946 455 1126 605 c 0,32,33
 1295 745 1295 745 1339 953 c 0,34,35
 1352 1017 1352 1017 1352 1075 c 0,36,37
 1352 1209 1352 1209 1281 1311 c 0,38,39
 1177 1458 1177 1458 969 1458 c 0,20,21
927 1078 m 1,40,-1
 915 1080 l 1,41,42
 857 1122 857 1122 767 1134 c 1,43,44
 754 1102 754 1102 747 1068 c 0,45,46
 740 1033 740 1033 740 1002 c 0,47,48
 740 894 740 894 829 830 c 0,49,50
 898 781 898 781 991 781 c 0,51,52
 1077 781 1077 781 1135 825 c 1,53,-1
 1144 820 l 1,54,55
 1103 761 1103 761 1038 708 c 8,56,57
 950 637 950 637 815 588 c 1,58,-1
 806 588 l 1,59,60
 697 618 697 618 624 692 c 0,61,62
 541 775 541 775 541 885 c 0,63,64
 541 919 541 919 549 955 c 0,65,66
 578 1090 578 1090 712 1200 c 0,67,68
 796 1270 796 1270 936 1320 c 1,69,-1
 945 1320 l 1,70,71
 1048 1291 1048 1291 1126 1216 c 0,72,73
 1142 1201 1142 1201 1155 1185 c 1,74,75
 1055 1157 1055 1157 927 1078 c 1,40,-1
EndSplineSet
Validated: 1
EndChar

StartChar: ordfeminine
Encoding: 170 170 88
Width: 687
GlyphClass: 2
Flags: W
HStem: 704 196<270.812 468.313 477.678 553.383 562.625 757.562> 745 118<298.602 729.553>
VStem: 301 187<1103 1223.52> 704 180<1060.45 1330.66>
LayerCount: 2
Fore
SplineSet
657 1550 m 1,0,1
 665 1550 l 1,2,3
 748 1514 748 1514 809 1458 c 0,4,5
 884 1389 884 1389 884 1288 c 0,6,7
 884 1256 884 1256 877 1221 c 8,8,9
 847 1078 847 1078 844 935 c 1,10,11
 754 926 754 926 641 893 c 1,12,-1
 635 897 l 1,13,14
 644 925 644 925 651 951 c 1,15,16
 567 898 567 898 549 893 c 1,17,-1
 541 893 l 1,18,19
 431 922 431 922 368 970 c 0,20,21
 301 1022 301 1022 301 1103 c 0,22,23
 301 1117 301 1117 303 1133 c 0,24,25
 328 1298 328 1298 572 1298 c 1,26,-1
 570 1288 l 1,27,28
 503 1255 503 1255 490 1196 c 0,29,30
 488 1187 488 1187 488 1178 c 0,31,32
 488 1133 488 1133 540 1101 c 0,33,34
 588 1072 588 1072 680 1060 c 1,35,36
 690 1085 690 1085 695 1106 c 0,37,38
 704 1152 704 1152 704 1192 c 0,39,40
 704 1289 704 1289 649 1343 c 0,41,42
 576 1415 576 1415 457 1443 c 1,43,44
 531 1505 531 1505 657 1550 c 1,0,1
295 900 m 1,45,46
 410 863 410 863 558 863 c 128,-1,47
 706 863 706 863 852 900 c 1,48,-1
 856 890 l 1,49,50
 778 786 778 786 733 704 c 1,51,52
 623 745 623 745 473 745 c 128,-1,53
 323 745 323 745 176 704 c 1,54,-1
 172 714 l 1,55,56
 251 817 251 817 295 900 c 1,45,46
EndSplineSet
Validated: 1
EndChar

StartChar: guillemotleft
Encoding: 171 171 89
Width: 1476
GlyphClass: 2
Flags: W
LayerCount: 2
Fore
SplineSet
791 612 m 1,0,1
 894 755 894 755 959 891 c 1,2,3
 1268 1023 1268 1023 1582 1301 c 1,4,-1
 1585 1291 l 1,5,6
 1463 1120 1463 1120 1406 997 c 1,7,8
 1210 928 1210 928 1027 763 c 1,9,10
 1155 568 1155 568 1404 445 c 1,11,-1
 1408 435 l 1,12,13
 1302 308 1302 308 1251 202 c 1,14,15
 1067 489 1067 489 795 602 c 1,16,-1
 791 612 l 1,0,1
240 612 m 1,17,18
 343 755 343 755 408 891 c 1,19,20
 717 1023 717 1023 1031 1301 c 1,21,-1
 1034 1291 l 1,22,23
 912 1120 912 1120 855 997 c 1,24,25
 659 928 659 928 476 763 c 1,26,27
 604 568 604 568 853 445 c 1,28,-1
 857 435 l 1,29,30
 751 308 751 308 700 202 c 1,31,32
 516 489 516 489 244 602 c 1,33,-1
 240 612 l 1,17,18
EndSplineSet
Validated: 1
EndChar

StartChar: logicalnot
Encoding: 172 172 90
Width: 1234
GlyphClass: 2
Flags: W
HStem: 656 176<462.937 1031.71>
LayerCount: 2
Fore
SplineSet
421 888 m 1,0,1
 612 832 612 832 816 832 c 0,2,3
 1047 832 1047 832 1309 898 c 1,4,-1
 1313 888 l 1,5,6
 1151 652 1151 652 1063 404 c 1,7,8
 951 370 951 370 812 295 c 1,9,-1
 803 301 l 1,10,11
 954 444 954 444 1039 623 c 1,12,13
 890 656 890 656 734 656 c 0,14,15
 503 656 503 656 241 590 c 1,16,-1
 238 600 l 1,17,18
 374 774 374 774 421 888 c 1,0,1
EndSplineSet
Validated: 1
EndChar

StartChar: uni00AD
Encoding: 173 173 91
Width: 1234
VWidth: 0
GlyphClass: 2
Flags: W
HStem: 590 298<400.246 462.937 1016.42 1145.94> 656 176<462.937 1088.05>
LayerCount: 2
Fore
SplineSet
421 888 m 1,0,1
 612 832 612 832 816 832 c 0,2,3
 1047 832 1047 832 1309 898 c 1,4,-1
 1313 888 l 1,5,6
 1167 690 1167 690 1130 600 c 1,7,8
 939 656 939 656 734 656 c 0,9,10
 503 656 503 656 241 590 c 1,11,-1
 238 600 l 1,12,13
 374 774 374 774 421 888 c 1,0,1
EndSplineSet
Validated: 1
EndChar

StartChar: registered
Encoding: 174 174 92
Width: 1321
GlyphClass: 2
Flags: W
HStem: 386 69<586.729 931.797> 770 85<744.688 845> 1158 192<688.412 960.513> 1458 72<790.407 1145.08>
VStem: 298 76<660.38 1035.98> 606 118<701 1055> 982 207<952.774 1113> 1352 77<870.317 1252.73>
LayerCount: 2
Fore
SplineSet
986 1530 m 0,0,1
 1228 1530 1228 1530 1347 1357 c 0,2,3
 1429 1238 1429 1238 1429 1087 c 0,4,5
 1429 1023 1429 1023 1414 953 c 0,6,7
 1360 701 1360 701 1167 549 c 0,8,9
 961 386 961 386 741 386 c 0,10,11
 518 386 518 386 388 549 c 0,12,13
 298 662 298 662 298 818 c 0,14,15
 298 882 298 882 313 953 c 0,16,17
 365 1197 365 1197 558 1362 c 0,18,19
 754 1530 754 1530 986 1530 c 0,0,1
969 1458 m 0,20,21
 783 1458 783 1458 606 1312 c 0,22,23
 431 1168 431 1168 387 953 c 0,24,25
 374 889 374 889 374 832 c 0,26,27
 374 696 374 696 448 600 c 0,28,29
 560 455 560 455 759 455 c 0,30,31
 946 455 946 455 1126 605 c 0,32,33
 1295 745 1295 745 1339 953 c 0,34,35
 1352 1017 1352 1017 1352 1075 c 0,36,37
 1352 1209 1352 1209 1281 1311 c 0,38,39
 1177 1458 1177 1458 969 1458 c 0,20,21
1141 656 m 1,40,41
 1051 645 1051 645 933 601 c 1,42,-1
 923 606 l 1,43,44
 894 710 894 710 845 774 c 1,45,-1
 803 770 l 0,46,47
 760 770 760 770 728 776 c 1,48,49
 724 747 724 747 724 701 c 0,50,51
 724 674 724 674 725 642 c 1,52,53
 635 633 635 633 523 600 c 1,54,-1
 510 608 l 1,55,56
 561 778 561 778 575 842 c 0,57,58
 602 967 602 967 606 1055 c 1,59,60
 727 1062 727 1062 805 1095 c 1,61,-1
 811 1087 l 1,62,63
 757 929 757 929 744 866 c 1,64,65
 758 855 758 855 803 855 c 0,66,67
 877 855 877 855 931 916 c 0,68,69
 967 956 967 956 978 1012 c 0,70,71
 982 1031 982 1031 982 1048 c 0,72,73
 982 1085 982 1085 963 1111 c 0,74,75
 928 1158 928 1158 852 1158 c 0,76,77
 736 1158 736 1158 564 1054 c 1,78,-1
 559 1061 l 1,79,80
 633 1198 633 1198 660 1294 c 1,81,82
 784 1350 784 1350 897 1350 c 0,83,84
 1050 1350 1050 1350 1126 1274 c 0,85,86
 1189 1211 1189 1211 1189 1113 c 0,87,88
 1189 1088 1189 1088 1185 1061 c 0,89,90
 1175 994 1175 994 1131 931 c 0,91,92
 1089 873 1089 873 1011 826 c 1,93,94
 1049 759 1049 759 1141 656 c 1,40,41
EndSplineSet
Validated: 1
EndChar

StartChar: macron
Encoding: 175 175 93
Width: 686
GlyphClass: 2
Flags: W
HStem: 1310 196<399.812 596.344 605.647 681.899 691.109 885> 1351 118<427.602 856.553>
LayerCount: 2
Fore
SplineSet
424 1506 m 1,0,1
 539 1469 539 1469 686.5 1469 c 128,-1,2
 834 1469 834 1469 980 1506 c 1,3,-1
 984 1496 l 1,4,5
 906 1392 906 1392 860 1310 c 1,6,7
 750 1351 750 1351 601 1351 c 128,-1,8
 452 1351 452 1351 304 1310 c 1,9,-1
 301 1320 l 1,10,11
 380 1423 380 1423 424 1506 c 1,0,1
EndSplineSet
Validated: 1
EndChar

StartChar: degree
Encoding: 176 176 94
Width: 732
GlyphClass: 2
Flags: W
VStem: 257 184<1027.5 1255.87> 783 183<1055.19 1284>
LayerCount: 2
Fore
SplineSet
480 1352 m 1,0,1
 457 1314 457 1314 447 1265 c 0,2,3
 441 1237 441 1237 441 1211 c 0,4,5
 441 1104 441 1104 544 1035 c 0,6,7
 616 987 616 987 744 965 c 1,8,9
 767 1002 767 1002 777 1050 c 0,10,11
 783 1079 783 1079 783 1105 c 0,12,13
 783 1214 783 1214 680 1282 c 0,14,15
 608 1330 608 1330 480 1352 c 1,0,1
690 1550 m 1,16,-1
 700 1550 l 1,17,18
 833 1495 833 1495 896 1421 c 0,19,20
 966 1337 966 1337 966 1231 c 0,21,22
 966 1194 966 1194 957 1154 c 0,23,24
 922 990 922 990 762 880 c 0,25,26
 665 814 665 814 534 767 c 1,27,-1
 524 767 l 1,28,29
 411 810 411 810 344 880 c 0,30,31
 257 970 257 970 257 1085 c 0,32,33
 257 1119 257 1119 265 1154 c 0,34,35
 298 1307 298 1307 440 1421 c 0,36,37
 534 1496 534 1496 690 1550 c 1,16,-1
EndSplineSet
Validated: 1
EndChar

StartChar: plusminus
Encoding: 177 177 95
Width: 1234
GlyphClass: 2
Flags: W
HStem: 158 298<308.246 370.937 924.424 1053.94> 224 176<370.937 996.063> 780 298<440.246 499.689 1057.93 1185.94>
LayerCount: 2
Fore
SplineSet
329 456 m 1,0,1
 520 400 520 400 724 400 c 0,2,3
 955 400 955 400 1217 466 c 1,4,-1
 1221 456 l 1,5,6
 1075 258 1075 258 1038 168 c 1,7,8
 847 224 847 224 643 224 c 0,9,10
 412 224 412 224 150 158 c 1,11,-1
 146 168 l 1,12,13
 282 342 282 342 329 456 c 1,0,1
753 1319 m 1,14,15
 872 1342 872 1342 1067 1441 c 1,16,-1
 1076 1435 l 1,17,18
 975 1223 975 1223 923 1023 c 1,19,20
 1125 1031 1125 1031 1349 1088 c 1,21,-1
 1353 1078 l 1,22,23
 1207 880 1207 880 1170 790 c 1,24,25
 1033 830 1033 830 888 842 c 1,26,27
 875 744 875 744 875 646 c 0,28,29
 875 597 875 597 878 549 c 1,30,31
 784 531 784 531 564 427 c 1,32,-1
 555 433 l 1,33,34
 656 645 656 645 708 845 c 1,35,36
 506 837 506 837 282 780 c 1,37,-1
 278 790 l 1,38,39
 414 964 414 964 461 1078 c 1,40,41
 598 1038 598 1038 743 1026 c 1,42,43
 756 1126 756 1126 756 1225 c 0,44,45
 756 1272 756 1272 753 1319 c 1,14,15
EndSplineSet
Validated: 1
EndChar

StartChar: uni00B2
Encoding: 178 178 96
Width: 640
GlyphClass: 2
Flags: W
HStem: 818 142<444.559 752.598>
VStem: 299 147<1239.41 1368.25> 653 230<1219.6 1369.03>
LayerCount: 2
Fore
SplineSet
630 1550 m 1,0,-1
 641 1550 l 1,1,2
 764 1511 764 1511 821 1462 c 0,3,4
 883 1407 883 1407 883 1329 c 0,5,6
 883 1305 883 1305 877 1279 c 0,7,8
 852 1161 852 1161 687 1087 c 2,9,-1
 442 977 l 1,10,11
 490 960 490 960 548 960 c 0,12,13
 680 960 680 960 830 1017 c 1,14,-1
 835 1011 l 1,15,16
 784 909 784 909 757 790 c 1,17,18
 616 818 616 818 494 818 c 0,19,20
 366 818 366 818 197 794 c 1,21,-1
 190 800 l 1,22,23
 231 946 231 946 337 1034 c 0,24,25
 401 1087 401 1087 527 1164 c 0,26,27
 653 1242 653 1242 653 1274 c 0,28,29
 653 1318 653 1318 567 1350 c 2,30,-1
 480 1382 l 1,31,32
 455 1354 455 1354 448 1320 c 0,33,34
 446 1309 446 1309 446 1300 c 0,35,36
 446 1251 446 1251 505 1234 c 1,37,-1
 356 1159 l 1,38,39
 299 1186 299 1186 299 1245 c 0,40,41
 299 1261 299 1261 303 1279 c 0,42,43
 326 1388 326 1388 450 1465 c 0,44,45
 544 1524 544 1524 630 1550 c 1,0,-1
EndSplineSet
Validated: 1
EndChar

StartChar: uni00B3
Encoding: 179 179 97
Width: 653
GlyphClass: 2
Flags: W
VStem: 329 135<1249.92 1399.55> 630 209<1277.36 1380> 659 202<962.637 1114.57>
LayerCount: 2
Fore
SplineSet
630 1550 m 1,0,1
 643 1550 l 1,2,3
 712 1530 712 1530 780 1482 c 0,4,5
 839 1440 839 1440 839 1380 c 0,6,7
 839 1367 839 1367 836 1353 c 0,8,9
 819 1274 819 1274 729 1231 c 1,10,11
 785 1221 785 1221 824 1184 c 0,12,13
 861 1149 861 1149 861 1094 c 0,14,15
 861 1074 861 1074 856 1051 c 0,16,17
 833 941 833 941 702 856 c 0,18,19
 621 803 621 803 503 784 c 1,20,-1
 490 784 l 1,21,22
 382 800 382 800 316 855 c 0,23,24
 257 903 257 903 229 984 c 1,25,-1
 399 1072 l 1,26,27
 425 1018 425 1018 480 981 c 0,28,29
 534 945 534 945 627 925 c 1,30,31
 646 959 646 959 656 1009 c 0,32,33
 659 1023 659 1023 659 1036 c 0,34,35
 659 1123 659 1123 524 1149 c 1,36,-1
 526 1159 l 1,37,38
 619 1202 619 1202 629 1285 c 0,39,40
 630 1291 630 1291 630 1297 c 0,41,42
 630 1341 630 1341 578 1361 c 2,43,-1
 480 1400 l 1,44,45
 470 1374 470 1374 466 1353 c 0,46,47
 464 1345 464 1345 464 1337 c 0,48,49
 464 1298 464 1298 512 1277 c 1,50,-1
 379 1197 l 1,51,52
 329 1225 329 1225 329 1287 c 0,53,54
 329 1297 329 1297 330 1307 c 0,55,56
 342 1402 342 1402 465 1478 c 0,57,58
 556 1534 556 1534 630 1550 c 1,0,1
EndSplineSet
Validated: 1
EndChar

StartChar: acute
Encoding: 180 180 98
Width: 494
GlyphClass: 2
Flags: W
HStem: 1180 430
VStem: 283 502
LayerCount: 2
Fore
SplineSet
525 1610 m 1,0,1
 607 1529 607 1529 785 1486 c 1,2,-1
 788 1476 l 1,3,4
 538 1386 538 1386 405 1180 c 1,5,6
 395 1180 l 1,7,8
 346 1217 346 1217 283 1238 c 1,9,10
 327 1472 327 1472 525 1610 c 1,0,1
EndSplineSet
Validated: 1
EndChar

StartChar: periodcentered
Encoding: 183 183 99
Width: 418
GlyphClass: 2
Flags: W
HStem: 548 416
VStem: 175 387<667.955 843.95>
LayerCount: 2
Fore
SplineSet
409 964 m 1,0,-1
 419 964 l 1,1,2
 482 941 482 941 528 888 c 0,3,4
 562 849 562 849 562 796 c 0,5,6
 562 774 562 774 558 756 c 0,7,8
 542 677 542 677 472.5 624 c 128,-1,9
 403 571 403 571 330 548 c 1,10,-1
 320 548 l 1,11,12
 243 579 243 579 206 623 c 0,13,14
 175 660 175 660 175 712 c 0,15,16
 175 737 175 737 180 756 c 0,17,18
 198 837 198 837 263 889 c 0,19,20
 318 933 318 933 409 964 c 1,0,-1
EndSplineSet
Validated: 1
EndChar

StartChar: cedilla
Encoding: 184 184 100
Width: 466
GlyphClass: 2
Flags: W
HStem: -380 204<26.9893 141.807> 0 68<86 143.18>
VStem: 165 251<-159.081 -32.6777>
LayerCount: 2
Fore
SplineSet
86 68 m 1,0,-1
 303 68 l 1,1,-1
 289 0 l 1,2,3
 416 -26 416 -26 416 -122 c 0,4,5
 416 -139 416 -139 412 -159 c 0,6,7
 365 -380 365 -380 -55 -380 c 1,8,-1
 -59 -370 l 1,9,10
 14 -264 14 -264 43 -176 c 1,11,12
 147 -176 147 -176 163 -99 c 0,13,14
 165 -90 165 -90 165 -82 c 0,15,16
 165 -24 165 -24 72 0 c 1,17,-1
 86 68 l 1,0,-1
EndSplineSet
Validated: 1
EndChar

StartChar: uni00B9
Encoding: 185 185 101
Width: 522
GlyphClass: 2
Flags: W
VStem: 297 490
LayerCount: 2
Fore
SplineSet
779 1550 m 1,0,-1
 787 1545 l 1,1,2
 722 1393 722 1393 681 1202 c 0,3,4
 637 994 637 994 637 824 c 1,5,6
 555 819 555 819 368 758 c 1,7,-1
 360 764 l 1,8,9
 424 927 424 927 473 1156 c 0,10,11
 500 1283 500 1283 506 1348 c 1,12,13
 446 1298 446 1298 382 1214 c 1,14,15
 361 1252 361 1252 297 1302 c 1,16,17
 405 1373 405 1373 511 1487 c 1,18,19
 626 1500 626 1500 779 1550 c 1,0,-1
EndSplineSet
Validated: 1
EndChar

StartChar: ordmasculine
Encoding: 186 186 102
Width: 687
GlyphClass: 2
Flags: W
HStem: 704 196<270.812 468.313 477.678 553.383 562.625 757.562> 745 118<298.602 729.553>
VStem: 303 179<1139.03 1318.22> 724 180<1123.5 1307.17>
LayerCount: 2
Fore
SplineSet
506 1384 m 1,0,1
 496 1362 496 1362 491 1338 c 0,2,3
 482 1297 482 1297 482 1262 c 0,4,5
 482 1161 482 1161 556 1113 c 0,6,7
 621 1071 621 1071 700 1060 c 1,8,9
 710 1085 710 1085 715 1106 c 0,10,11
 724 1146 724 1146 724 1181 c 0,12,13
 724 1279 724 1279 655 1331 c 0,14,15
 605 1370 605 1370 506 1384 c 1,0,1
657 1550 m 1,16,-1
 665 1550 l 1,17,18
 762 1523 762 1523 829 1458 c 0,19,20
 904 1384 904 1384 904 1285 c 0,21,22
 904 1254 904 1254 897 1221 c 0,23,24
 870 1095 870 1095 750 1000 c 24,25,26
 671 937 671 937 549 893 c 1,27,-1
 541 893 l 1,28,29
 443 920 443 920 377 985 c 0,30,31
 303 1059 303 1059 303 1158 c 0,32,33
 303 1189 303 1189 310 1222 c 0,34,35
 336 1344 336 1344 457 1443 c 0,36,37
 531 1505 531 1505 657 1550 c 1,16,-1
295 900 m 1,38,39
 410 863 410 863 558 863 c 128,-1,40
 706 863 706 863 852 900 c 1,41,-1
 856 890 l 1,42,43
 778 786 778 786 733 704 c 1,44,45
 623 745 623 745 473 745 c 128,-1,46
 323 745 323 745 176 704 c 1,47,-1
 172 714 l 1,48,49
 251 817 251 817 295 900 c 1,38,39
EndSplineSet
Validated: 1
EndChar

StartChar: guillemotright
Encoding: 187 187 103
Width: 1475
GlyphClass: 2
Flags: W
LayerCount: 2
Fore
SplineSet
1004 891 m 1,0,1
 901 748 901 748 836 612 c 1,2,3
 527 480 527 480 213 202 c 1,4,-1
 210 212 l 1,5,6
 332 383 332 383 389 506 c 1,7,8
 585 575 585 575 768 740 c 1,9,10
 640 935 640 935 391 1058 c 1,11,-1
 387 1068 l 1,12,13
 493 1195 493 1195 544 1301 c 1,14,15
 728 1014 728 1014 1000 901 c 1,16,-1
 1004 891 l 1,0,1
1555 891 m 1,17,18
 1452 748 1452 748 1387 612 c 1,19,20
 1078 480 1078 480 764 202 c 1,21,-1
 761 212 l 1,22,23
 883 383 883 383 940 506 c 1,24,25
 1136 575 1136 575 1319 740 c 1,26,27
 1191 935 1191 935 942 1058 c 1,28,-1
 938 1068 l 1,29,30
 1044 1195 1044 1195 1095 1301 c 1,31,32
 1279 1014 1279 1014 1551 901 c 1,33,-1
 1555 891 l 1,17,18
EndSplineSet
Validated: 1
EndChar

StartChar: onequarter
Encoding: 188 188 104
Width: 1635
GlyphClass: 2
Flags: W
HStem: 0 21G<500 562 1214 1303> 161 86<1104.56 1275.51> 1490 20G<784.5 869 1394 1456>
VStem: 1353 137<285.283 449.881>
LayerCount: 2
Fore
SplineSet
552 0 m 1,0,1
 448 65 448 65 241 99 c 1,2,3
 859 731 859 731 1394 1504 c 1,4,-1
 1404 1510 l 1,5,6
 1508 1445 1508 1445 1715 1411 c 1,7,8
 1095 778 1095 778 562 6 c 1,9,-1
 552 0 l 1,0,1
861 1510 m 1,10,-1
 869 1505 l 1,11,12
 804 1353 804 1353 763 1162 c 0,13,14
 719 954 719 954 719 784 c 1,15,16
 637 779 637 779 450 718 c 1,17,-1
 442 724 l 1,18,19
 506 887 506 887 554 1116 c 0,20,21
 581 1243 581 1243 587 1308 c 1,22,23
 527 1258 527 1258 464 1174 c 1,24,25
 443 1212 443 1212 378 1262 c 1,26,27
 486 1333 486 1333 593 1447 c 1,28,29
 708 1460 708 1460 861 1510 c 1,10,-1
1222 0 m 1,30,-1
 1214 5 l 1,31,32
 1257 96 1257 96 1276 161 c 1,33,34
 1138 161 1138 161 1031 147 c 1,35,36
 1004 220 1004 220 964 265 c 1,37,38
 1170 468 1170 468 1364 724 c 1,39,40
 1462 734 1462 734 1634 793 c 1,41,-1
 1641 787 l 1,42,43
 1569 614 1569 614 1529.5 426.5 c 128,-1,44
 1490 239 1490 239 1490 72 c 1,45,46
 1384 62 1384 62 1222 0 c 1,30,-1
1104 247 m 1,47,48
 1254 251 1254 251 1301 259 c 1,49,50
 1313 300 1313 300 1326 363 c 0,51,52
 1349 472 1349 472 1353 575 c 1,53,54
 1218 422 1218 422 1104 247 c 1,47,48
EndSplineSet
Validated: 1
EndChar

StartChar: onehalf
Encoding: 189 189 105
Width: 1758
GlyphClass: 2
Flags: W
HStem: 0 21G<500 562 999 1090.5> 24 142<1253.56 1561.6> 1490 20G<784.5 869 1394 1456>
VStem: 1108 147<445.414 574.25> 1462 230<425.6 575.025>
LayerCount: 2
Fore
SplineSet
1439 756 m 1,0,-1
 1450 756 l 1,1,2
 1573 717 1573 717 1630 668 c 0,3,4
 1692 613 1692 613 1692 535 c 0,5,6
 1692 511 1692 511 1686 485 c 0,7,8
 1661 367 1661 367 1496 293 c 2,9,-1
 1251 183 l 1,10,11
 1299 166 1299 166 1357 166 c 0,12,13
 1489 166 1489 166 1639 223 c 1,14,-1
 1644 217 l 1,15,16
 1593 115 1593 115 1566 -4 c 1,17,18
 1425 24 1425 24 1303 24 c 0,19,20
 1175 24 1175 24 1006 0 c 1,21,-1
 999 6 l 1,22,23
 1040 152 1040 152 1146 240 c 0,24,25
 1210 293 1210 293 1336 370 c 0,26,27
 1462 448 1462 448 1462 480 c 0,28,29
 1462 524 1462 524 1376 556 c 2,30,-1
 1289 588 l 1,31,32
 1264 560 1264 560 1257 526 c 0,33,34
 1255 515 1255 515 1255 506 c 0,35,36
 1255 457 1255 457 1314 440 c 1,37,-1
 1165 365 l 1,38,39
 1108 392 1108 392 1108 451 c 0,40,41
 1108 467 1108 467 1112 485 c 0,42,43
 1135 594 1135 594 1259 671 c 0,44,45
 1353 730 1353 730 1439 756 c 1,0,-1
552 0 m 1,46,47
 448 65 448 65 241 99 c 1,48,49
 859 731 859 731 1394 1504 c 1,50,-1
 1404 1510 l 1,51,52
 1508 1445 1508 1445 1715 1411 c 1,53,54
 1095 778 1095 778 562 6 c 1,55,-1
 552 0 l 1,46,47
861 1510 m 1,56,-1
 869 1505 l 1,57,58
 804 1353 804 1353 763 1162 c 0,59,60
 719 954 719 954 719 784 c 1,61,62
 637 779 637 779 450 718 c 1,63,-1
 442 724 l 1,64,65
 506 887 506 887 554 1116 c 0,66,67
 581 1243 581 1243 587 1308 c 1,68,69
 527 1258 527 1258 464 1174 c 1,70,71
 443 1212 443 1212 378 1262 c 1,72,73
 486 1333 486 1333 593 1447 c 1,74,75
 708 1460 708 1460 861 1510 c 1,56,-1
EndSplineSet
Validated: 1
EndChar

StartChar: threequarters
Encoding: 190 190 106
Width: 1737
GlyphClass: 2
Flags: W
HStem: 0 21G<602 664 1316 1405> 161 86<1206.56 1377.51> 1490 20G<675 759.5 1496 1558>
VStem: 411 135<1209.92 1359.55> 712 209<1237.36 1340> 741 202<922.637 1074.57> 1455 137<285.283 449.881>
LayerCount: 2
Fore
SplineSet
712 1510 m 1,0,1
 725 1510 l 1,2,3
 794 1490 794 1490 862 1442 c 0,4,5
 921 1400 921 1400 921 1340 c 0,6,7
 921 1327 921 1327 918 1313 c 0,8,9
 901 1234 901 1234 811 1191 c 1,10,11
 867 1181 867 1181 906 1144 c 0,12,13
 943 1109 943 1109 943 1054 c 0,14,15
 943 1034 943 1034 938 1011 c 0,16,17
 915 901 915 901 784 816 c 0,18,19
 703 763 703 763 585 744 c 1,20,-1
 572 744 l 1,21,22
 464 760 464 760 398 815 c 0,23,24
 339 863 339 863 311 944 c 1,25,-1
 481 1032 l 1,26,27
 507 978 507 978 562 941 c 0,28,29
 616 905 616 905 709 885 c 1,30,31
 728 919 728 919 738 969 c 0,32,33
 741 983 741 983 741 996 c 0,34,35
 741 1083 741 1083 606 1109 c 1,36,-1
 608 1119 l 1,37,38
 701 1162 701 1162 711 1245 c 0,39,40
 712 1251 712 1251 712 1257 c 0,41,42
 712 1301 712 1301 660 1321 c 2,43,-1
 562 1360 l 1,44,45
 552 1334 552 1334 548 1313 c 0,46,47
 546 1305 546 1305 546 1297 c 0,48,49
 546 1258 546 1258 594 1237 c 1,50,-1
 461 1157 l 1,51,52
 411 1185 411 1185 411 1247 c 0,53,54
 411 1257 411 1257 412 1267 c 0,55,56
 424 1362 424 1362 547 1438 c 0,57,58
 638 1494 638 1494 712 1510 c 1,0,1
654 0 m 1,59,60
 550 65 550 65 343 99 c 1,61,62
 961 731 961 731 1496 1504 c 1,63,-1
 1506 1510 l 1,64,65
 1610 1445 1610 1445 1817 1411 c 1,66,67
 1197 778 1197 778 664 6 c 1,68,-1
 654 0 l 1,59,60
1324 0 m 1,69,-1
 1316 5 l 1,70,71
 1359 96 1359 96 1378 161 c 1,72,73
 1240 161 1240 161 1133 147 c 1,74,75
 1106 220 1106 220 1066 265 c 1,76,77
 1272 468 1272 468 1466 724 c 1,78,79
 1564 734 1564 734 1736 793 c 1,80,-1
 1743 787 l 1,81,82
 1671 614 1671 614 1631.5 426.5 c 128,-1,83
 1592 239 1592 239 1592 72 c 1,84,85
 1486 62 1486 62 1324 0 c 1,69,-1
1206 247 m 1,86,87
 1356 251 1356 251 1403 259 c 1,88,89
 1415 300 1415 300 1428 363 c 0,90,91
 1451 472 1451 472 1455 575 c 1,92,93
 1320 422 1320 422 1206 247 c 1,86,87
EndSplineSet
Validated: 1
EndChar

StartChar: questiondown
Encoding: 191 191 107
Width: 1239
GlyphClass: 2
Flags: W
HStem: -380 21G<416.5 698> 1110 20G<827.5 912.5>
VStem: 130 298<27.9688 238.93> 631 388<832.5 1008.63> 977 180<-0.601562 163>
LayerCount: 2
Fore
SplineSet
864 1130 m 1,0,-1
 874 1130 l 1,1,2
 951 1099 951 1099 988 1055 c 0,3,4
 1019 1018 1019 1018 1019 966 c 0,5,6
 1019 945 1019 945 1014 922 c 0,7,8
 997 841 997 841 932 789 c 0,9,10
 877 745 877 745 786 714 c 1,11,-1
 776 714 l 1,12,13
 713 737 713 737 666 790 c 0,14,15
 631 829 631 829 631 882 c 0,16,17
 631 901 631 901 636 922 c 0,18,19
 653 1001 653 1001 722 1054 c 128,-1,20
 791 1107 791 1107 864 1130 c 1,0,-1
553 -380 m 1,21,-1
 543 -380 l 1,22,23
 290 -286 290 -286 180 -127 c 0,24,25
 130 -56 130 -56 130 47 c 0,26,27
 130 82 130 82 136 121 c 0,28,29
 165 320 165 320 398 453 c 2,30,-1
 575 554 l 2,31,32
 645 594 645 594 671 624 c 1,33,34
 764 642 764 642 855 682 c 1,35,-1
 864 676 l 1,36,37
 844 580 844 580 716 467 c 2,38,-1
 524 296 l 2,39,40
 448 228 448 228 431 152 c 0,41,42
 428 136 428 136 428 122 c 0,43,44
 428 68 428 68 474 26 c 0,45,46
 633 -116 633 -116 926 -116 c 1,47,48
 962 -77 962 -77 973 -30 c 0,49,50
 977 -8 977 -8 977 12 c 0,51,52
 977 81 977 81 924 133 c 0,53,54
 868 188 868 188 773 222 c 1,55,56
 912 238 912 238 1081 319 c 1,57,-1
 1088 317 l 1,58,59
 1157 258 1157 258 1157 163 c 0,60,61
 1157 133 1157 133 1150 99 c 0,62,63
 1118 -50 1118 -50 969 -175 c 0,64,65
 843 -280 843 -280 553 -380 c 1,21,-1
EndSplineSet
Validated: 1
EndChar

StartChar: multiply
Encoding: 215 215 108
Width: 1146
VWidth: 0
GlyphClass: 2
Flags: W
LayerCount: 2
Fore
SplineSet
981 1118 m 1,0,1
 1064 1054 1064 1054 1246 1001 c 1,2,-1
 1246 989 l 1,3,4
 1033 879 1033 879 857 744 c 1,5,6
 975 608 975 608 1142 499 c 1,7,-1
 1137 487 l 1,8,9
 909 421 909 421 822 370 c 1,10,11
 775 502 775 502 704 614 c 1,12,13
 584 502 584 502 482 370 c 1,14,15
 417 421 417 421 217 487 c 1,16,-1
 216 499 l 1,17,18
 429 609 429 609 605 744 c 1,19,20
 487 880 487 880 320 989 c 1,21,-1
 326 1001 l 1,22,23
 530 1054 530 1054 641 1118 c 1,24,25
 688 986 688 986 759 874 c 1,26,27
 878 986 878 986 981 1118 c 1,0,1
EndSplineSet
Validated: 1
EndChar

StartChar: divide
Encoding: 247 247 109
Width: 1234
VWidth: 0
GlyphClass: 2
Flags: W
HStem: 590 298<400.246 462.937 1016.42 1145.94> 656 176<462.937 1088.05>
VStem: 501 388<276.5 452.626> 661 387<1033.95 1209.95>
LayerCount: 2
Fore
SplineSet
656 158 m 1,0,-1
 646 158 l 1,1,2
 583 181 583 181 536 234 c 0,3,4
 501 273 501 273 501 326 c 0,5,6
 501 345 501 345 506 366 c 0,7,8
 523 445 523 445 592 498 c 128,-1,9
 661 551 661 551 734 574 c 1,10,-1
 744 574 l 1,11,12
 821 543 821 543 858 499 c 0,13,14
 889 462 889 462 889 410 c 0,15,16
 889 389 889 389 884 366 c 0,17,18
 867 285 867 285 802 233 c 0,19,20
 747 189 747 189 656 158 c 1,0,-1
421 888 m 1,21,22
 612 832 612 832 816 832 c 0,23,24
 1047 832 1047 832 1309 898 c 1,25,-1
 1313 888 l 1,26,27
 1167 690 1167 690 1130 600 c 1,28,29
 939 656 939 656 734 656 c 0,30,31
 503 656 503 656 241 590 c 1,32,-1
 238 600 l 1,33,34
 374 774 374 774 421 888 c 1,21,22
895 1330 m 1,35,-1
 905 1330 l 1,36,37
 968 1307 968 1307 1014 1254 c 0,38,39
 1048 1215 1048 1215 1048 1162 c 0,40,41
 1048 1140 1048 1140 1044 1122 c 0,42,43
 1028 1043 1028 1043 958.5 990 c 128,-1,44
 889 937 889 937 816 914 c 1,45,-1
 806 914 l 1,46,47
 729 945 729 945 692 989 c 0,48,49
 661 1026 661 1026 661 1078 c 0,50,51
 661 1100 661 1100 666 1122 c 0,52,53
 684 1203 684 1203 749 1255 c 0,54,55
 804 1299 804 1299 895 1330 c 1,35,-1
EndSplineSet
Validated: 1
EndChar

StartChar: endash
Encoding: 8211 8211 110
Width: 1234
VWidth: 0
GlyphClass: 2
Flags: W
HStem: 590 298<400.246 462.937 1016.42 1145.94> 656 176<462.937 1088.05>
LayerCount: 2
Fore
SplineSet
421 888 m 1,0,1
 612 832 612 832 816 832 c 0,2,3
 1047 832 1047 832 1309 898 c 1,4,-1
 1313 888 l 1,5,6
 1167 690 1167 690 1130 600 c 1,7,8
 939 656 939 656 734 656 c 0,9,10
 503 656 503 656 241 590 c 1,11,-1
 238 600 l 1,12,13
 374 774 374 774 421 888 c 1,0,1
EndSplineSet
Validated: 1
EndChar

StartChar: emdash
Encoding: 8212 8212 111
Width: 1634
GlyphClass: 2
Flags: W
HStem: 590 298<400.246 557.017 1301.34 1545.94> 656 176<502.134 1443.53>
LayerCount: 2
Fore
SplineSet
421 888 m 1,0,1
 708 832 708 832 1016 832 c 0,2,3
 1338 832 1338 832 1709 898 c 1,4,-1
 1713 888 l 1,5,6
 1567 690 1567 690 1530 600 c 1,7,8
 1221 656 1221 656 934 656 c 0,9,10
 636 656 636 656 241 590 c 1,11,-1
 238 600 l 1,12,13
 374 774 374 774 421 888 c 1,0,1
EndSplineSet
Validated: 1
EndChar

StartChar: afii00208
Encoding: 8213 8213 112
Width: 1634
GlyphClass: 2
Flags: W
HStem: 590 298<400.246 557.017 1301.34 1545.94> 656 176<502.134 1443.53>
LayerCount: 2
Fore
SplineSet
421 888 m 1,0,1
 708 832 708 832 1016 832 c 0,2,3
 1338 832 1338 832 1709 898 c 1,4,-1
 1713 888 l 1,5,6
 1567 690 1567 690 1530 600 c 1,7,8
 1221 656 1221 656 934 656 c 0,9,10
 636 656 636 656 241 590 c 1,11,-1
 238 600 l 1,12,13
 374 774 374 774 421 888 c 1,0,1
EndSplineSet
Validated: 1
EndChar

StartChar: quoteleft
Encoding: 8216 8216 113
Width: 452
GlyphClass: 2
Flags: W
HStem: 1534 16<747.466 758>
VStem: 254 399<972.05 1201.97>
LayerCount: 2
Fore
SplineSet
761 1550 m 1,0,-1
 758 1534 l 1,1,2
 556 1408 556 1408 508 1268 c 1,3,4
 585 1237 585 1237 622 1193 c 0,5,6
 653 1156 653 1156 653 1104 c 0,7,8
 653 1080 653 1080 648 1060 c 0,9,10
 630 979 630 979 565 927 c 0,11,12
 510 883 510 883 419 852 c 1,13,-1
 409 852 l 1,14,15
 349 872 349 872 312 913 c 0,16,17
 254 977 254 977 254 1068 c 0,18,19
 254 1101 254 1101 262 1139 c 0,20,21
 325 1437 325 1437 761 1550 c 1,0,-1
EndSplineSet
Validated: 1
EndChar

StartChar: quoteright
Encoding: 8217 8217 114
Width: 453
GlyphClass: 2
Flags: W
HStem: 852 16<205 215.534>
VStem: 311 398<1200.03 1429.95>
LayerCount: 2
Fore
SplineSet
544 1550 m 1,0,-1
 554 1550 l 1,1,2
 614 1530 614 1530 651 1489 c 0,3,4
 709 1425 709 1425 709 1334 c 0,5,6
 709 1301 709 1301 701 1263 c 0,7,8
 638 965 638 965 202 852 c 1,9,-1
 205 868 l 1,10,11
 407 994 407 994 456 1134 c 1,12,13
 379 1165 379 1165 342 1209 c 0,14,15
 311 1246 311 1246 311 1298 c 0,16,17
 311 1319 311 1319 316 1342 c 0,18,19
 333 1423 333 1423 399 1475 c 0,20,21
 453 1519 453 1519 544 1550 c 1,0,-1
EndSplineSet
Validated: 1
EndChar

StartChar: quotesinglbase
Encoding: 8218 8218 115
Width: 453
GlyphClass: 2
Flags: W
HStem: -282 16<-36 -25.4661>
VStem: 70 398<66.0256 296.195>
LayerCount: 2
Fore
SplineSet
215 0 m 1,0,1
 138 31 138 31 101 75 c 0,2,3
 70 112 70 112 70 164 c 0,4,5
 70 185 70 185 75 208 c 0,6,7
 92 289 92 289 157 341 c 0,8,9
 212 385 212 385 303 416 c 1,10,-1
 313 416 l 1,11,12
 373 396 373 396 410 355 c 0,13,14
 468 291 468 291 468 200 c 0,15,16
 468 167 468 167 460 129 c 0,17,18
 397 -169 397 -169 -39 -282 c 1,19,-1
 -36 -266 l 1,20,21
 166 -140 166 -140 215 0 c 1,0,1
EndSplineSet
Validated: 1
EndChar

StartChar: quotereversed
Encoding: 8219 8219 116
Width: 453
GlyphClass: 2
Flags: W
HStem: 852 16<608.51 616.688>
VStem: 280 199<1032.02 1202>
LayerCount: 2
Fore
SplineSet
568 1550 m 1,0,1
 645 1519 645 1519 683 1475 c 0,2,3
 714 1438 714 1438 714 1386 c 0,4,5
 714 1363 714 1363 709 1342 c 0,6,7
 690 1260 690 1260 626 1209 c 0,8,9
 571 1165 571 1165 480 1134 c 1,10,11
 479 1124 479 1124 479 1115 c 0,12,13
 479 986 479 986 617 868 c 1,14,-1
 614 852 l 1,15,16
 280 949 280 949 280 1183 c 0,17,18
 280 1221 280 1221 289 1263 c 0,19,20
 318 1401 318 1401 435 1489 c 0,21,22
 490 1530 490 1530 558 1550 c 1,23,-1
 568 1550 l 1,0,1
EndSplineSet
Validated: 1
EndChar

StartChar: quotedblleft
Encoding: 8220 8220 117
Width: 916
GlyphClass: 2
Flags: W
HStem: 1534 16<747.466 758 1211.47 1222>
VStem: 254 399<972.05 1201.97> 718 399<972.05 1201.97>
LayerCount: 2
Fore
SplineSet
761 1550 m 1,0,-1
 758 1534 l 1,1,2
 556 1408 556 1408 508 1268 c 1,3,4
 585 1237 585 1237 622 1193 c 0,5,6
 653 1156 653 1156 653 1104 c 0,7,8
 653 1079 653 1079 648 1060 c 0,9,10
 630 979 630 979 565 927 c 0,11,12
 510 883 510 883 419 852 c 1,13,-1
 409 852 l 1,14,15
 349 872 349 872 312 913 c 0,16,17
 254 977 254 977 254 1068 c 0,18,19
 254 1101 254 1101 262 1139 c 0,20,21
 325 1437 325 1437 761 1550 c 1,0,-1
1225 1550 m 1,22,-1
 1222 1534 l 1,23,24
 1020 1408 1020 1408 972 1268 c 1,25,26
 1049 1237 1049 1237 1086 1193 c 0,27,28
 1117 1156 1117 1156 1117 1104 c 0,29,30
 1117 1080 1117 1080 1112 1060 c 0,31,32
 1094 979 1094 979 1029 927 c 0,33,34
 974 883 974 883 883 852 c 1,35,-1
 873 852 l 1,36,37
 813 872 813 872 776 913 c 0,38,39
 718 977 718 977 718 1068 c 0,40,41
 718 1101 718 1101 726 1139 c 0,42,43
 789 1437 789 1437 1225 1550 c 1,22,-1
EndSplineSet
Validated: 1
EndChar

StartChar: quotedblright
Encoding: 8221 8221 118
Width: 917
GlyphClass: 2
Flags: W
HStem: 852 16<205 215.534 669 679.534>
VStem: 311 398<1200.03 1429.95> 775 398<1200.03 1429.95>
LayerCount: 2
Fore
SplineSet
920 1134 m 1,0,1
 843 1165 843 1165 806 1209 c 0,2,3
 775 1246 775 1246 775 1298 c 0,4,5
 775 1319 775 1319 780 1342 c 0,6,7
 797 1423 797 1423 863 1475 c 0,8,9
 918 1519 918 1519 1008 1550 c 1,10,-1
 1018 1550 l 1,11,12
 1078 1530 1078 1530 1115 1489 c 0,13,14
 1173 1425 1173 1425 1173 1334 c 0,15,16
 1173 1301 1173 1301 1165 1263 c 0,17,18
 1102 965 1102 965 666 852 c 1,19,-1
 669 868 l 1,20,21
 871 994 871 994 920 1134 c 1,0,1
456 1134 m 1,22,23
 379 1165 379 1165 342 1209 c 0,24,25
 311 1246 311 1246 311 1298 c 0,26,27
 311 1319 311 1319 316 1342 c 0,28,29
 333 1423 333 1423 399 1475 c 0,30,31
 454 1519 454 1519 544 1550 c 1,32,-1
 554 1550 l 1,33,34
 614 1530 614 1530 651 1489 c 0,35,36
 709 1425 709 1425 709 1334 c 0,37,38
 709 1301 709 1301 701 1263 c 0,39,40
 638 965 638 965 202 852 c 1,41,-1
 205 868 l 1,42,43
 407 994 407 994 456 1134 c 1,22,23
EndSplineSet
Validated: 1
EndChar

StartChar: quotedblbase
Encoding: 8222 8222 119
Width: 917
GlyphClass: 2
Flags: W
HStem: -282 16<-36 -25.4661 428 438.534>
VStem: 70 398<66.0256 296.195> 534 398<66.0256 296.195>
LayerCount: 2
Fore
SplineSet
679 0 m 1,0,1
 602 31 602 31 565 75 c 0,2,3
 534 112 534 112 534 164 c 0,4,5
 534 185 534 185 539 208 c 0,6,7
 556 289 556 289 621 341 c 0,8,9
 676 385 676 385 767 416 c 1,10,-1
 777 416 l 1,11,12
 837 396 837 396 874 355 c 0,13,14
 932 291 932 291 932 200 c 0,15,16
 932 167 932 167 924 129 c 0,17,18
 861 -169 861 -169 425 -282 c 1,19,-1
 428 -266 l 1,20,21
 630 -140 630 -140 679 0 c 1,0,1
215 0 m 1,22,23
 138 31 138 31 101 75 c 0,24,25
 70 112 70 112 70 164 c 0,26,27
 70 185 70 185 75 208 c 0,28,29
 92 289 92 289 157 341 c 0,30,31
 212 385 212 385 303 416 c 1,32,-1
 313 416 l 1,33,34
 373 396 373 396 410 355 c 0,35,36
 468 291 468 291 468 200 c 0,37,38
 468 167 468 167 460 129 c 0,39,40
 397 -169 397 -169 -39 -282 c 1,41,-1
 -36 -266 l 1,42,43
 166 -140 166 -140 215 0 c 1,22,23
EndSplineSet
Validated: 1
EndChar

StartChar: dagger
Encoding: 8224 8224 120
Width: 1020
GlyphClass: 2
Flags: W
HStem: 0 21G<340 447> 934 196<410.188 580.089 878.065 1049.56> 1490 20G<888.5 1001>
LayerCount: 2
Fore
SplineSet
349 0 m 1,0,-1
 340 6 l 1,1,2
 472 409 472 409 539 724 c 0,3,4
 564 841 564 841 584 970 c 1,5,6
 459 961 459 961 315 934 c 1,7,-1
 311 944 l 1,8,9
 391 1047 391 1047 434 1130 c 1,10,11
 519 1113 519 1113 603 1104 c 1,12,13
 621 1240 621 1240 634 1387 c 1,14,15
 785 1415 785 1415 992 1510 c 1,16,-1
 1001 1504 l 1,17,18
 930 1300 930 1300 874 1096 c 1,19,20
 1004 1103 1004 1103 1144 1130 c 1,21,-1
 1148 1120 l 1,22,23
 1070 1016 1070 1016 1025 934 c 1,24,25
 936 957 936 957 841 967 c 1,26,27
 817 872 817 872 796 778 c 0,28,29
 739 509 739 509 707 123 c 1,30,31
 545 90 545 90 349 0 c 1,0,-1
EndSplineSet
Validated: 1
EndChar

StartChar: daggerdbl
Encoding: 8225 8225 121
Width: 1020
GlyphClass: 2
Flags: W
HStem: 0 21G<340 447> 380 196<291.438 458.998 758.25 930.812> 934 196<410.188 580.089 878.065 1049.56> 1490 20G<888.5 1001>
DStem2: 496 543 796 778 0.240518 0.970645<63.193 431.57>
LayerCount: 2
Fore
SplineSet
349 0 m 1,0,-1
 340 6 l 1,1,2
 411 223 411 223 463 414 c 1,3,4
 335 407 335 407 197 380 c 1,5,-1
 193 390 l 1,6,7
 271 494 271 494 316 576 c 1,8,9
 403 553 403 553 496 543 c 1,10,11
 520 637 520 637 539 724 c 0,12,13
 564 841 564 841 584 970 c 1,14,15
 459 961 459 961 315 934 c 1,16,-1
 311 944 l 1,17,18
 391 1047 391 1047 434 1130 c 1,19,20
 519 1113 519 1113 603 1104 c 1,21,22
 621 1240 621 1240 634 1387 c 1,23,24
 785 1415 785 1415 992 1510 c 1,25,-1
 1001 1504 l 1,26,27
 930 1300 930 1300 874 1096 c 1,28,29
 1004 1103 1004 1103 1144 1130 c 1,30,-1
 1148 1120 l 1,31,32
 1070 1016 1070 1016 1025 934 c 1,33,34
 936 957 936 957 841 967 c 1,35,36
 817 872 817 872 796 778 c 0,37,38
 773 669 773 669 754 540 c 1,39,40
 890 549 890 549 1026 576 c 1,41,-1
 1030 566 l 1,42,43
 950 463 950 463 907 380 c 1,44,45
 830 397 830 397 736 406 c 1,46,47
 720 274 720 274 707 123 c 1,48,49
 545 90 545 90 349 0 c 1,0,-1
EndSplineSet
Validated: 1
EndChar

StartChar: bullet
Encoding: 8226 8226 122
Width: 912
VWidth: 0
GlyphClass: 2
Flags: W
LayerCount: 2
Fore
SplineSet
693 1138 m 1,0,-1
 703 1138 l 1,1,2
 836 1083 836 1083 898 1009 c 0,3,4
 968 925 968 925 968 818 c 0,5,6
 968 782 968 782 960 742 c 0,7,8
 925 578 925 578 764 468 c 0,9,10
 667 402 667 402 536 355 c 1,11,-1
 526 355 l 1,12,13
 413 398 413 398 346 468 c 0,14,15
 260 558 260 558 260 671 c 0,16,17
 260 705 260 705 268 742 c 0,18,19
 301 895 301 895 442 1009 c 0,20,21
 537 1084 537 1084 693 1138 c 1,0,-1
EndSplineSet
Validated: 1
EndChar

StartChar: ellipsis
Encoding: 8230 8230 123
Width: 1302
GlyphClass: 2
Flags: W
HStem: 0 416
VStem: 59 388<121.374 297.5> 501 388<121.374 297.5> 943 388<121.374 297.5>
CounterMasks: 1 70
LayerCount: 2
Fore
SplineSet
1098 0 m 1,0,-1
 1088 0 l 1,1,2
 1011 31 1011 31 974 75 c 0,3,4
 943 112 943 112 943 164 c 0,5,6
 943 185 943 185 948 208 c 0,7,8
 965 289 965 289 1030 341 c 0,9,10
 1085 385 1085 385 1176 416 c 1,11,-1
 1186 416 l 1,12,13
 1249 393 1249 393 1296 340 c 0,14,15
 1331 301 1331 301 1331 248 c 0,16,17
 1331 229 1331 229 1326 208 c 0,18,19
 1309 129 1309 129 1240 76 c 128,-1,20
 1171 23 1171 23 1098 0 c 1,0,-1
656 0 m 1,21,-1
 646 0 l 1,22,23
 569 31 569 31 532 75 c 0,24,25
 501 112 501 112 501 164 c 0,26,27
 501 185 501 185 506 208 c 0,28,29
 523 289 523 289 588 341 c 0,30,31
 643 385 643 385 734 416 c 1,32,-1
 744 416 l 1,33,34
 807 393 807 393 854 340 c 0,35,36
 889 301 889 301 889 248 c 0,37,38
 889 229 889 229 884 208 c 0,39,40
 867 129 867 129 798 76 c 128,-1,41
 729 23 729 23 656 0 c 1,21,-1
214 0 m 1,42,-1
 204 0 l 1,43,44
 127 31 127 31 90 75 c 0,45,46
 59 112 59 112 59 164 c 0,47,48
 59 185 59 185 64 208 c 0,49,50
 81 289 81 289 146 341 c 0,51,52
 201 385 201 385 292 416 c 1,53,-1
 302 416 l 1,54,55
 365 393 365 393 412 340 c 0,56,57
 447 301 447 301 447 248 c 0,58,59
 447 229 447 229 442 208 c 0,60,61
 425 129 425 129 356 76 c 128,-1,62
 287 23 287 23 214 0 c 1,42,-1
EndSplineSet
Validated: 1
EndChar

StartChar: perthousand
Encoding: 8240 8240 124
Width: 2560
GlyphClass: 2
Flags: W
HStem: 0 21G<597 659 1301.5 1456 2032.5 2187> 1490 20G<694 848.5 1491 1553>
VStem: 339 183<987.5 1215.87> 865 183<1010.64 1244> 1102 183<266 494.807> 1628 183<294.128 522.5> 1833 183<266 494.807> 2359 183<294.128 522.5>
LayerCount: 2
Fore
SplineSet
2319 198 m 1,0,1
 2342 236 2342 236 2353 285 c 0,2,3
 2359 313 2359 313 2359 339 c 0,4,5
 2359 447 2359 447 2255 515 c 0,6,7
 2183 563 2183 563 2055 585 c 1,8,9
 2032 548 2032 548 2022 500 c 0,10,11
 2016 471 2016 471 2016 445 c 0,12,13
 2016 336 2016 336 2119 268 c 0,14,15
 2191 220 2191 220 2319 198 c 1,0,1
2109 0 m 1,16,-1
 2099 0 l 1,17,18
 1966 55 1966 55 1903 129 c 0,19,20
 1833 213 1833 213 1833 319 c 0,21,22
 1833 356 1833 356 1842 396 c 0,23,24
 1877 560 1877 560 2037 670 c 0,25,26
 2134 736 2134 736 2265 783 c 1,27,-1
 2275 783 l 1,28,29
 2388 740 2388 740 2455 670 c 0,30,31
 2542 580 2542 580 2542 465 c 0,32,33
 2542 431 2542 431 2534 396 c 0,34,35
 2501 243 2501 243 2359 129 c 0,36,37
 2265 54 2265 54 2109 0 c 1,16,-1
1588 198 m 1,38,39
 1611 236 1611 236 1622 285 c 0,40,41
 1628 313 1628 313 1628 339 c 0,42,43
 1628 447 1628 447 1524 515 c 0,44,45
 1452 563 1452 563 1324 585 c 1,46,47
 1301 548 1301 548 1291 500 c 0,48,49
 1285 471 1285 471 1285 445 c 0,50,51
 1285 336 1285 336 1388 268 c 0,52,53
 1460 220 1460 220 1588 198 c 1,38,39
1378 0 m 1,54,-1
 1368 0 l 1,55,56
 1235 55 1235 55 1172 129 c 0,57,58
 1102 213 1102 213 1102 319 c 0,59,60
 1102 356 1102 356 1111 396 c 0,61,62
 1146 560 1146 560 1306 670 c 0,63,64
 1403 736 1403 736 1534 783 c 1,65,-1
 1544 783 l 1,66,67
 1657 740 1657 740 1724 670 c 0,68,69
 1811 580 1811 580 1811 465 c 0,70,71
 1811 431 1811 431 1803 396 c 0,72,73
 1770 243 1770 243 1628 129 c 0,74,75
 1534 54 1534 54 1378 0 c 1,54,-1
562 1312 m 1,76,77
 539 1274 539 1274 528 1225 c 0,78,79
 522 1197 522 1197 522 1171 c 0,80,81
 522 1064 522 1064 625 995 c 0,82,83
 697 947 697 947 826 925 c 1,84,85
 849 962 849 962 859 1010 c 0,86,87
 865 1039 865 1039 865 1065 c 0,88,89
 865 1174 865 1174 762 1242 c 0,90,91
 690 1290 690 1290 562 1312 c 1,76,77
772 1510 m 1,92,-1
 782 1510 l 1,93,94
 915 1455 915 1455 978 1381 c 0,95,96
 1048 1297 1048 1297 1048 1191 c 0,97,98
 1048 1150 1048 1150 1039 1110 c 0,99,100
 1005 950 1005 950 844 840 c 0,101,102
 747 774 747 774 616 727 c 1,103,-1
 606 727 l 1,104,105
 493 770 493 770 426 840 c 0,106,107
 339 930 339 930 339 1045 c 0,108,109
 339 1079 339 1079 347 1114 c 0,110,111
 380 1267 380 1267 522 1381 c 0,112,113
 616 1456 616 1456 772 1510 c 1,92,-1
649 0 m 1,114,115
 545 65 545 65 338 99 c 1,116,117
 956 731 956 731 1491 1504 c 1,118,-1
 1501 1510 l 1,119,120
 1605 1445 1605 1445 1812 1411 c 1,121,122
 1192 778 1192 778 659 6 c 1,123,-1
 649 0 l 1,114,115
EndSplineSet
Validated: 1
EndChar

StartChar: minute
Encoding: 8242 8242 125
Width: 407
GlyphClass: 2
Flags: W
HStem: 1147 403
VStem: 269 442
LayerCount: 2
Fore
SplineSet
477 1524 m 1,0,1
 619 1524 619 1524 711 1550 c 1,2,-1
 715 1544 l 1,3,4
 603 1319 603 1319 445 1157 c 1,5,6
 323 1157 323 1157 269 1147 c 1,7,-1
 265 1154 l 1,8,9
 427 1362 427 1362 477 1524 c 1,0,1
EndSplineSet
Validated: 1
EndChar

StartChar: second
Encoding: 8243 8243 126
Width: 744
GlyphClass: 2
Flags: W
HStem: 1147 403
LayerCount: 2
Fore
SplineSet
814 1524 m 1,0,1
 956 1524 956 1524 1048 1550 c 1,2,-1
 1052 1544 l 1,3,4
 940 1319 940 1319 782 1157 c 1,5,6
 660 1157 660 1157 606 1147 c 1,7,-1
 602 1154 l 1,8,9
 764 1362 764 1362 814 1524 c 1,0,1
477 1524 m 1,10,11
 619 1524 619 1524 711 1550 c 1,12,-1
 715 1544 l 1,13,14
 603 1319 603 1319 445 1157 c 1,15,16
 323 1157 323 1157 269 1147 c 1,17,-1
 265 1154 l 1,18,19
 427 1362 427 1362 477 1524 c 1,10,11
EndSplineSet
Validated: 1
EndChar

StartChar: guilsinglleft
Encoding: 8249 8249 127
Width: 925
GlyphClass: 2
Flags: W
LayerCount: 2
Fore
SplineSet
240 612 m 1,0,1
 343 755 343 755 408 891 c 1,2,3
 717 1023 717 1023 1031 1301 c 1,4,-1
 1034 1291 l 1,5,6
 912 1120 912 1120 855 997 c 1,7,8
 659 928 659 928 476 763 c 1,9,10
 604 568 604 568 853 445 c 1,11,-1
 857 435 l 1,12,13
 751 308 751 308 700 202 c 1,14,15
 516 489 516 489 244 602 c 1,16,-1
 240 612 l 1,0,1
EndSplineSet
Validated: 1
EndChar

StartChar: guilsinglright
Encoding: 8250 8250 128
Width: 924
GlyphClass: 2
Flags: W
LayerCount: 2
Fore
SplineSet
1004 891 m 1,0,1
 901 748 901 748 836 612 c 1,2,3
 527 480 527 480 213 202 c 1,4,-1
 210 212 l 1,5,6
 332 383 332 383 389 506 c 1,7,8
 585 575 585 575 768 740 c 1,9,10
 640 935 640 935 391 1058 c 1,11,-1
 387 1068 l 1,12,13
 493 1195 493 1195 544 1301 c 1,14,15
 728 1014 728 1014 1000 901 c 1,16,-1
 1004 891 l 1,0,1
EndSplineSet
Validated: 1
EndChar

StartChar: fraction
Encoding: 8260 8260 129
Width: 1215
GlyphClass: 2
Flags: W
HStem: 0 21G<290 352> 1490 20G<1184 1246>
LayerCount: 2
Fore
SplineSet
342 0 m 1,0,1
 238 65 238 65 31 99 c 1,2,3
 649 731 649 731 1184 1504 c 1,4,-1
 1194 1510 l 1,5,6
 1298 1445 1298 1445 1505 1411 c 1,7,8
 885 778 885 778 352 6 c 1,9,-1
 342 0 l 1,0,1
EndSplineSet
Validated: 1
EndChar

StartChar: Euro
Encoding: 8364 8364 130
Width: 1483
GlyphClass: 2
Flags: W
HStem: 0 314<994 1149> 516 196<271.188 377.966 798.351 1196.56> 557 118<723 1165.06> 767 196<852.351 1250> 808 118<653 1218.06> 1490 20G<1028 1303.5>
LayerCount: 2
Fore
SplineSet
858 0 m 1,0,-1
 848 0 l 1,1,2
 597 98 597 98 483 261 c 0,3,4
 394 388 394 388 381 539 c 1,5,6
 284 530 284 530 176 516 c 1,7,-1
 172 526 l 1,8,9
 252 629 252 629 295 712 c 1,10,11
 341 706 341 706 386 700 c 1,12,13
 390 723 390 723 395 746 c 0,14,15
 399 767 399 767 404 787 c 1,16,17
 320 779 320 779 229 767 c 1,18,-1
 225 777 l 1,19,20
 305 880 305 880 349 963 c 1,21,22
 408 955 408 955 467 948 c 1,23,24
 548 1109 548 1109 704 1254 c 0,25,26
 887 1425 887 1425 1169 1510 c 1,27,-1
 1179 1510 l 1,28,29
 1428 1412 1428 1412 1543 1249 c 1,30,-1
 1538 1238 l 1,31,32
 1383 1211 1383 1211 1147 1093 c 1,33,34
 976 1196 976 1196 765 1196 c 1,35,36
 683 1075 683 1075 653 932 c 1,37,38
 751 926 751 926 845 926 c 0,39,40
 1080 926 1080 926 1345 963 c 1,41,-1
 1349 953 l 1,42,43
 1271 849 1271 849 1225 767 c 1,44,45
 1003 808 1003 808 779 808 c 0,46,47
 714 808 714 808 641 805 c 1,48,49
 643 739 643 739 663 678 c 1,50,51
 728 675 728 675 791 675 c 0,52,53
 1026 675 1026 675 1291 712 c 1,54,-1
 1295 702 l 1,55,56
 1217 598 1217 598 1172 516 c 1,57,58
 950 557 950 557 723 557 c 1,59,60
 772 487 772 487 851 426 c 0,61,62
 994 314 994 314 1176 314 c 0,63,64
 1333 314 1333 314 1449 410 c 1,65,-1
 1459 404 l 1,66,67
 1401 328 1401 328 1323 256 c 0,68,69
 1149 92 1149 92 858 0 c 1,0,-1
EndSplineSet
Validated: 1
EndChar

StartChar: afii61248
Encoding: 8453 8453 131
Width: 1619
GlyphClass: 2
Flags: W
HStem: 0 21G<483 545 1136.5 1267> 778 193<640.519 721.578> 1490 20G<670 800.5 1377 1439>
VStem: 345 202<1060.13 1241.84> 927 199<276.876 464.721> 1393 201<263.942 457.179>
LayerCount: 2
Fore
SplineSet
535 0 m 1,0,1
 431 65 431 65 224 99 c 1,2,3
 842 731 842 731 1377 1504 c 1,4,-1
 1387 1510 l 1,5,6
 1491 1445 1491 1445 1698 1411 c 1,7,8
 1078 778 1078 778 545 6 c 1,9,-1
 535 0 l 1,0,1
740 1510 m 1,10,-1
 749 1510 l 1,11,12
 852 1481 852 1481 931 1406 c 0,13,14
 947 1391 947 1391 959 1375 c 1,15,16
 859 1347 859 1347 732 1268 c 1,17,-1
 719 1270 l 1,18,19
 661 1312 661 1312 571 1324 c 1,20,21
 560 1297 560 1297 556 1273 c 0,22,23
 547 1231 547 1231 547 1195 c 0,24,25
 547 1082 547 1082 634 1020 c 0,26,27
 703 971 703 971 795 971 c 0,28,29
 881 971 881 971 940 1015 c 1,30,-1
 949 1010 l 1,31,32
 908 951 908 951 843 898 c 8,33,34
 755 827 755 827 619 778 c 1,35,-1
 610 778 l 1,36,37
 501 808 501 808 428 882 c 0,38,39
 345 965 345 965 345 1075 c 0,40,41
 345 1109 345 1109 353 1145 c 0,42,43
 381 1277 381 1277 516 1390 c 0,44,45
 600 1460 600 1460 740 1510 c 1,10,-1
1152 546 m 1,46,47
 1145 537 1145 537 1136 495 c 0,48,49
 1126 449 1126 449 1126 410 c 0,50,51
 1126 298 1126 298 1207 245 c 0,52,53
 1279 198 1279 198 1369 186 c 1,54,55
 1380 213 1380 213 1384 237 c 0,56,57
 1393 282 1393 282 1393 320 c 0,58,59
 1393 429 1393 429 1318 487 c 0,60,61
 1262 530 1262 530 1152 546 c 1,46,47
1200 0 m 1,62,-1
 1191 0 l 1,63,64
 1082 30 1082 30 1009 103 c 0,65,66
 927 186 927 186 927 297 c 0,67,68
 927 330 927 330 934 366 c 0,69,70
 963 501 963 501 1097 612 c 0,71,72
 1181 681 1181 681 1320 731 c 1,73,-1
 1329 731 l 1,74,75
 1437 701 1437 701 1511 628 c 0,76,77
 1594 546 1594 546 1594 433 c 0,78,79
 1594 400 1594 400 1587 365 c 0,80,81
 1557 225 1557 225 1423 119 c 24,82,83
 1334 49 1334 49 1200 0 c 1,62,-1
EndSplineSet
Validated: 1
EndChar

StartChar: afii61289
Encoding: 8467 8467 132
Width: 1096
GlyphClass: 2
Flags: W
HStem: 1 236<533 703.422> 1490 20G<1024 1115>
LayerCount: 2
Fore
SplineSet
588 1 m 0,0,1
 478 1 478 1 414 64 c 1,2,-1
 376 21 l 1,3,-1
 14 21 l 1,4,5
 225 214 225 214 340 337 c 1,6,7
 345 403 345 403 359 471 c 0,8,9
 387 602 387 602 448 741 c 0,10,11
 653 1210 653 1210 857 1401 c 1,12,13
 969 1510 969 1510 1079 1510 c 0,14,15
 1151 1510 1151 1510 1203 1458 c 0,16,17
 1235 1426 1235 1426 1235 1357 c 0,18,19
 1235 1315 1235 1315 1223 1258 c 0,20,21
 1204 1168 1204 1168 1142 1023 c 0,22,23
 1006 704 1006 704 635 291 c 1,24,25
 635 237 635 237 651 237 c 0,26,27
 682 237 682 237 740 336 c 1,28,-1
 1057 336 l 1,29,30
 955 197 955 197 826 99 c 128,-1,31
 697 1 697 1 588 1 c 0,0,1
EndSplineSet
Validated: 1
EndChar

StartChar: trademark
Encoding: 8482 8482 133
Width: 1690
GlyphClass: 2
Flags: W
VStem: 1601 168<908.219 1221.16>
LayerCount: 2
Fore
SplineSet
443 847 m 1,0,-1
 435 852 l 1,1,2
 498 999 498 999 532 1156 c 0,3,4
 559 1282 559 1282 572 1405 c 1,5,6
 464 1382 464 1382 346 1304 c 1,7,-1
 338 1310 l 1,8,9
 377 1380 377 1380 438 1550 c 1,10,11
 562 1518 562 1518 698 1518 c 128,-1,12
 834 1518 834 1518 999 1548 c 1,13,-1
 1007 1543 l 1,14,15
 968 1473 968 1473 906 1302 c 1,16,17
 846 1381 846 1381 760 1403 c 1,18,19
 724 1300 724 1300 698 1174 c 0,20,21
 670 1043 670 1043 661 903 c 1,22,23
 560 893 560 893 443 847 c 1,0,-1
901 847 m 1,24,-1
 892 852 l 1,25,26
 1015 1109 1015 1109 1109 1415 c 1,27,28
 1100 1452 1100 1452 1073 1487 c 1,29,30
 1202 1513 1202 1513 1313 1550 c 1,31,-1
 1321 1545 l 1,32,33
 1321 1253 1321 1253 1385 1031 c 1,34,35
 1519 1242 1519 1242 1603 1462 c 1,36,37
 1601 1476 1601 1476 1595 1488 c 1,38,39
 1712 1510 1712 1510 1801 1550 c 1,40,-1
 1809 1545 l 1,41,42
 1769 1282 1769 1282 1769 1051 c 0,43,44
 1769 977 1769 977 1773 906 c 1,45,46
 1702 893 1702 893 1572 847 c 1,47,-1
 1564 852 l 1,48,49
 1599 1019 1599 1019 1601 1228 c 1,50,51
 1513 1091 1513 1091 1430 898 c 1,52,53
 1350 893 1350 893 1232 847 c 1,54,-1
 1224 852 l 1,55,56
 1211 1090 1211 1090 1173 1268 c 1,57,58
 1082 1087 1082 1087 1038 889 c 1,59,60
 972 881 972 881 901 847 c 1,24,-1
EndSplineSet
Validated: 1
EndChar

StartChar: uni2126
Encoding: 8486 8486 134
Width: 1446
VWidth: 0
GlyphClass: 2
Flags: W
HStem: 0 21G<12 102.5 575.5 644.381 808.19 874.5 1255.5 1346> 28 93<941.375 1127.89> 1490 20G<898 1173.5>
VStem: 249 273<405.076 847.757> 1250 267<649.174 912>
LayerCount: 2
Fore
SplineSet
640 0 m 1,0,1
 511 28 511 28 350 28 c 128,-1,2
 189 28 189 28 16 0 c 1,3,-1
 12 10 l 1,4,5
 137 175 137 175 201 312 c 1,6,7
 328 171 328 171 557 121 c 1,8,-1
 568 175 l 1,9,10
 249 307 249 307 249 605 c 0,11,12
 249 672 249 672 265 748 c 0,13,14
 323 1020 323 1020 574 1254 c 0,15,16
 757 1425 757 1425 1039 1510 c 1,17,-1
 1049 1510 l 1,18,19
 1298 1412 1298 1412 1413 1249 c 0,20,21
 1517 1102 1517 1102 1517 912 c 0,22,23
 1517 842 1517 842 1503 766 c 0,24,25
 1422 331 1422 331 950 175 c 1,26,-1
 939 121 l 1,27,28
 1193 160 1193 160 1496 312 c 1,29,-1
 1500 302 l 1,30,31
 1379 131 1379 131 1313 0 c 1,32,33
 1198 28 1198 28 1071.5 28 c 128,-1,34
 945 28 945 28 804 0 c 1,35,-1
 848 210 l 1,36,37
 1182 361 1182 361 1238 625 c 0,38,39
 1250 681 1250 681 1250 733 c 0,40,41
 1250 950 1250 950 1038 1080 c 0,42,43
 850 1196 850 1196 635 1196 c 1,44,45
 582 1082 582 1082 553 946 c 0,46,47
 522 798 522 798 522 672 c 0,48,49
 522 384 522 384 686 210 c 1,50,-1
 640 0 l 1,0,1
EndSplineSet
Validated: 1
EndChar

StartChar: estimated
Encoding: 8494 8494 135
Width: 1241
GlyphClass: 2
Flags: W
HStem: 0 183<488.071 848.035> 506 184<540 992> 945 185<631.618 989.607>
LayerCount: 2
Fore
SplineSet
619 0 m 0,0,1
 368 0 368 0 249 165 c 0,2,3
 166 281 166 281 166 432 c 0,4,5
 166 497 166 497 181 568 c 0,6,7
 233 812 233 812 422 970 c 0,8,9
 614 1130 614 1130 856 1130 c 0,10,11
 1082 1130 1082 1130 1207 974 c 0,12,13
 1308 847 1308 847 1308 669 c 0,14,15
 1308 592 1308 592 1289 506 c 1,16,-1
 501 506 l 1,17,-1
 448 259 l 1,18,19
 527 183 527 183 658 183 c 0,20,21
 866 183 866 183 1024 371 c 1,22,-1
 1167 275 l 1,23,24
 1039 120 1039 120 894 56 c 0,25,26
 762 0 762 0 619 0 c 0,0,1
992 690 m 1,27,-1
 1030 872 l 1,28,29
 948 945 948 945 818 945 c 0,30,31
 686 945 686 945 578 871 c 1,32,-1
 540 690 l 1,33,-1
 992 690 l 1,27,-1
EndSplineSet
Validated: 1
EndChar

StartChar: partialdiff
Encoding: 8706 8706 136
Width: 1275
GlyphClass: 2
Flags: W
HStem: 0 236<448.234 685.719> 810 264<698.617 930.338> 1257 253<724.729 1050.89>
VStem: 136 293<253.914 517.107> 1083 301<996.868 1223.81>
LayerCount: 2
Fore
SplineSet
482 0 m 0,0,1
 226 0 226 0 158 171 c 0,2,3
 136 228 136 228 136 299 c 0,4,5
 136 356 136 356 150 422 c 0,6,7
 201 662 201 662 387 844 c 0,8,9
 623 1074 623 1074 870 1074 c 0,10,11
 997 1074 997 1074 1073 995 c 1,12,13
 1083 1050 1083 1050 1083 1097 c 0,14,15
 1083 1133 1083 1133 1077 1163 c 0,16,17
 1058 1257 1058 1257 908 1257 c 0,18,19
 772 1257 772 1257 571 1132 c 1,20,-1
 635 1433 l 1,21,22
 803 1510 803 1510 994 1510 c 0,23,24
 1301 1510 1301 1510 1367 1263 c 0,25,26
 1384 1199 1384 1199 1384 1121 c 0,27,28
 1384 1030 1384 1030 1361 921 c 0,29,30
 1285 563 1285 563 1043 281 c 0,31,32
 801 0 801 0 482 0 c 0,0,1
548 236 m 0,33,34
 668 236 668 236 782 358 c 0,35,36
 895 479 895 479 973 677 c 1,37,38
 966 735 966 735 928 772 c 0,39,40
 890 810 890 810 826 810 c 0,41,42
 727 810 727 810 592 683 c 0,43,44
 468 567 468 567 435 405 c 0,45,46
 429 373 429 373 429 347 c 0,47,48
 429 236 429 236 548 236 c 0,33,34
EndSplineSet
Validated: 1
EndChar

StartChar: uni2206
Encoding: 8710 8710 137
Width: 1441
GlyphClass: 2
Flags: W
HStem: 0 21G<6 188 1253.5 1437> 54 133<375.269 1031.21> 1490 20G<1074.5 1197>
LayerCount: 2
Fore
SplineSet
1437 5 m 1,0,-1
 1428 0 l 1,1,2
 1079 54 1079 54 720 54 c 128,-1,3
 361 54 361 54 15 0 c 1,4,-1
 6 6 l 1,5,6
 455 646 455 646 790 1387 c 1,7,8
 961 1409 961 1409 1188 1510 c 1,9,-1
 1197 1504 l 1,10,11
 1245 755 1245 755 1437 5 c 1,0,-1
1036 212 m 1,12,13
 1016 759 1016 759 897 1193 c 1,14,15
 585 704 585 704 366 203 c 1,16,17
 550 187 550 187 677 187 c 0,18,19
 883 187 883 187 1036 212 c 1,12,13
EndSplineSet
Validated: 1
EndChar

StartChar: product
Encoding: 8719 8719 138
Width: 1421
GlyphClass: 2
Flags: W
HStem: -380 21G<61 182.5 820 941.5> 1305 152<778.355 1174.89> 1490 20G<460 580 1441 1600>
LayerCount: 2
Fore
SplineSet
69 -380 m 1,0,-1
 61 -374 l 1,1,2
 193 29 193 29 300 534 c 0,3,4
 428 1134 428 1134 460 1504 c 1,5,-1
 468 1510 l 1,6,7
 692 1457 692 1457 1006 1457 c 0,8,9
 1286 1457 1286 1457 1596 1510 c 1,10,-1
 1600 1500 l 1,11,12
 1470 1125 1470 1125 1356 588 c 0,13,14
 1258 129 1258 129 1226 -257 c 1,15,16
 1055 -279 1055 -279 828 -380 c 1,17,-1
 820 -374 l 1,18,19
 952 29 952 29 1059 534 c 0,20,21
 1144 936 1144 936 1182 1285 c 1,22,23
 1079 1305 1079 1305 972 1305 c 0,24,25
 851 1305 851 1305 776 1297 c 1,26,27
 680 978 680 978 597 588 c 0,28,29
 499 129 499 129 467 -257 c 1,30,31
 296 -279 296 -279 69 -380 c 1,0,-1
EndSplineSet
Validated: 1
EndChar

StartChar: summation
Encoding: 8721 8721 139
Width: 1289
GlyphClass: 2
Flags: W
HStem: -380 21G<-69 64.5 934.5 1053> -320 144<486.969 919.389> 1490 20G<564.5 766.5 1337.5 1456>
LayerCount: 2
Fore
SplineSet
-61 -380 m 1,0,1
 -69 -374 l 1,2,3
 389 109 389 109 693 586 c 1,4,5
 562 978 562 978 316 1387 c 1,6,7
 445 1407 445 1407 684 1510 c 1,8,9
 849 1435 849 1435 1027 1435 c 0,10,11
 1223 1435 1223 1435 1452 1510 c 1,12,-1
 1456 1500 l 1,13,14
 1308 1292 1308 1292 1261 1162 c 1,15,16
 1092 1174 1092 1174 968 1230 c 0,17,18
 815 1300 815 1300 689 1424 c 1,19,20
 798 972 798 972 1064 560 c 1,21,22
 746 233 746 233 481 -171 c 1,23,24
 524 -176 524 -176 591 -176 c 0,25,26
 935 -176 935 -176 1223 2 c 1,27,-1
 1227 -8 l 1,28,29
 1081 -216 1081 -216 1025 -380 c 1,30,31
 844 -320 844 -320 529 -320 c 0,32,33
 190 -320 190 -320 -61 -380 c 1,0,1
EndSplineSet
Validated: 1
EndChar

StartChar: minus
Encoding: 8722 8722 140
Width: 1234
VWidth: 0
GlyphClass: 2
Flags: W
HStem: 590 298<400.246 462.937 1016.42 1145.94> 656 176<462.937 1088.05>
LayerCount: 2
Fore
SplineSet
421 888 m 1,0,1
 612 832 612 832 816 832 c 0,2,3
 1047 832 1047 832 1309 898 c 1,4,-1
 1313 888 l 1,5,6
 1167 690 1167 690 1130 600 c 1,7,8
 939 656 939 656 734 656 c 0,9,10
 503 656 503 656 241 590 c 1,11,-1
 238 600 l 1,12,13
 374 774 374 774 421 888 c 1,0,1
EndSplineSet
Validated: 1
EndChar

StartChar: uni2215
Encoding: 8725 8725 141
Width: 1215
GlyphClass: 2
Flags: W
HStem: 0 21G<290 352> 1490 20G<1184 1246>
LayerCount: 2
Fore
SplineSet
342 0 m 1,0,1
 238 65 238 65 31 99 c 1,2,3
 649 731 649 731 1184 1504 c 1,4,-1
 1194 1510 l 1,5,6
 1298 1445 1298 1445 1505 1411 c 1,7,8
 885 778 885 778 352 6 c 1,9,-1
 342 0 l 1,0,1
EndSplineSet
Validated: 1
EndChar

StartChar: uni2219
Encoding: 8729 8729 142
Width: 418
GlyphClass: 2
Flags: W
HStem: 548 416
VStem: 175 387<667.955 843.95>
LayerCount: 2
Fore
SplineSet
409 964 m 1,0,-1
 419 964 l 1,1,2
 482 941 482 941 528 888 c 0,3,4
 562 849 562 849 562 796 c 0,5,6
 562 774 562 774 558 756 c 0,7,8
 542 677 542 677 472.5 624 c 128,-1,9
 403 571 403 571 330 548 c 1,10,-1
 320 548 l 1,11,12
 243 579 243 579 206 623 c 0,13,14
 175 660 175 660 175 712 c 0,15,16
 175 737 175 737 180 756 c 0,17,18
 198 837 198 837 263 889 c 0,19,20
 318 933 318 933 409 964 c 1,0,-1
EndSplineSet
Validated: 1
EndChar

StartChar: radical
Encoding: 8730 8730 143
Width: 1326
GlyphClass: 2
Flags: W
HStem: 0 21G<354 473> 1490 20G<1491 1586>
VStem: 354 219<304.834 487.28>
LayerCount: 2
Fore
SplineSet
363 0 m 1,0,-1
 354 6 l 1,1,2
 354 463 354 463 226 779 c 1,3,4
 377 806 377 806 574 902 c 1,5,-1
 582 896 l 1,6,7
 573 784 573 784 573 685 c 0,8,9
 573 426 573 426 632 255 c 1,10,11
 1059 867 1059 867 1275 1402 c 1,12,13
 1405 1431 1405 1431 1577 1510 c 1,14,-1
 1586 1504 l 1,15,16
 1082 818 1082 818 741 123 c 1,17,18
 583 101 583 101 363 0 c 1,0,-1
EndSplineSet
Validated: 1
EndChar

StartChar: infinity
Encoding: 8734 8734 144
Width: 1446
VWidth: 0
GlyphClass: 2
Flags: W
VStem: 260 182<646.556 842.579> 1322 182<649.027 846.494>
LayerCount: 2
Fore
SplineSet
693 1138 m 1,0,-1
 703 1138 l 1,1,2
 810 1106 810 1106 883 1025 c 0,3,4
 965 934 965 934 995 805 c 0,5,6
 1027 672 1027 672 1080 623 c 0,7,8
 1155 555 1155 555 1281 553 c 1,9,10
 1306 594 1306 594 1315 640 c 0,11,12
 1322 676 1322 676 1322 709 c 0,13,14
 1322 824 1322 824 1234 890 c 0,15,16
 1126 970 1126 970 966 1002 c 1,17,18
 1083 1085 1083 1085 1227 1138 c 1,19,-1
 1237 1138 l 1,20,21
 1350 1095 1350 1095 1417 1025 c 0,22,23
 1504 935 1504 935 1504 820 c 0,24,25
 1504 786 1504 786 1496 751 c 0,26,27
 1459 578 1459 578 1298 468 c 0,28,29
 1201 402 1201 402 1070 355 c 1,30,-1
 1060 355 l 1,31,32
 953 387 953 387 880 468 c 0,33,34
 798 559 798 559 768 688 c 0,35,36
 736 821 736 821 683 870 c 0,37,38
 608 938 608 938 483 940 c 1,39,40
 458 899 458 899 449 853 c 0,41,42
 442 817 442 817 442 784 c 0,43,44
 442 669 442 669 530 603 c 0,45,46
 638 523 638 523 798 491 c 1,47,48
 680 408 680 408 536 355 c 1,49,-1
 526 355 l 1,50,51
 413 398 413 398 346 468 c 0,52,53
 260 558 260 558 260 671 c 0,54,55
 260 705 260 705 268 742 c 0,56,57
 301 895 301 895 442 1009 c 0,58,59
 536 1084 536 1084 693 1138 c 1,0,-1
EndSplineSet
Validated: 1
EndChar

StartChar: approxequal
Encoding: 8776 8776 145
Width: 1215
GlyphClass: 2
Flags: W
HStem: 349 234<773.113 1030.4> 512 234<417.728 674.887> 751 234<860.066 1115.42> 914 234<505.995 760.285>
LayerCount: 2
Fore
SplineSet
558 746 m 0,0,1
 648 746 648 746 702 671 c 0,2,3
 766 583 766 583 893 583 c 0,4,5
 1077 583 1077 583 1256 737 c 1,6,-1
 1260 727 l 1,7,8
 1114 538 1114 538 1057 412 c 1,9,10
 972 349 972 349 890 349 c 0,11,12
 800 349 800 349 746 424 c 0,13,14
 682 512 682 512 555 512 c 0,15,16
 371 512 371 512 192 358 c 1,17,-1
 188 368 l 1,18,19
 338 555 338 555 391 683 c 1,20,21
 477 746 477 746 558 746 c 0,0,1
643 1148 m 0,22,23
 733 1148 733 1148 787 1073 c 0,24,25
 851 985 851 985 978 985 c 0,26,27
 1162 985 1162 985 1341 1139 c 1,28,-1
 1345 1129 l 1,29,30
 1199 940 1199 940 1142 814 c 1,31,32
 1057 751 1057 751 976 751 c 0,33,34
 886 751 886 751 832 826 c 0,35,36
 768 914 768 914 640 914 c 0,37,38
 456 914 456 914 278 760 c 1,39,-1
 274 770 l 1,40,41
 424 957 424 957 477 1085 c 1,42,43
 562 1148 562 1148 643 1148 c 0,22,23
EndSplineSet
Validated: 1
EndChar

StartChar: notequal
Encoding: 8800 8800 146
Width: 1234
VWidth: 0
GlyphClass: 2
Flags: W
HStem: 373 298<353.906 416.915 969.394 1099.25> 439 176<764 1041.06> 809 298<446.246 508.937 1058.94 1191.94> 875 176<508.937 793>
DStem2: 647 620 764 615 0.496872 0.867824<53.7949 293.838>
LayerCount: 2
Fore
SplineSet
1012 1332 m 1,0,1
 1101 1332 1101 1332 1219 1347 c 1,2,-1
 1224 1338 l 1,3,4
 1121 1200 1121 1200 1028 1059 c 1,5,6
 1185 1074 1185 1074 1355 1117 c 1,7,-1
 1359 1107 l 1,8,9
 1213 909 1213 909 1176 819 c 1,10,11
 1042 858 1042 858 909 870 c 1,12,13
 883 826 883 826 857 783 c 0,14,15
 808 697 808 697 764 615 c 1,16,17
 1003 615 1003 615 1263 681 c 1,18,-1
 1267 671 l 1,19,20
 1121 473 1121 473 1083 383 c 1,21,22
 892 439 892 439 688 439 c 0,23,24
 680 439 680 439 671 439 c 1,25,26
 596 289 596 289 542 154 c 1,27,28
 445 154 445 154 335 139 c 1,29,-1
 329 148 l 1,30,31
 431 284 431 284 528 431 c 1,32,33
 369 416 369 416 195 373 c 1,34,-1
 191 383 l 1,35,36
 327 557 327 557 375 671 c 1,37,38
 509 631 509 631 647 620 c 1,39,40
 684 681 684 681 719 743 c 0,41,42
 757 809 757 809 793 875 c 1,43,44
 549 875 549 875 288 809 c 1,45,-1
 284 819 l 1,46,47
 420 993 420 993 467 1107 c 1,48,49
 658 1051 658 1051 862 1051 c 0,50,51
 873 1051 873 1051 884 1051 c 1,52,53
 954 1192 954 1192 1012 1332 c 1,0,1
EndSplineSet
Validated: 1
EndChar

StartChar: lessequal
Encoding: 8804 8804 147
Width: 1361
GlyphClass: 2
Flags: W
HStem: 0 298<274.246 341.189 978.141 1096.4> 66 176<341.189 997.785> 1490 20G<1225 1518>
LayerCount: 2
Fore
SplineSet
454 1040 m 1,0,1
 943 1186 943 1186 1507 1510 c 1,2,-1
 1518 1508 l 1,3,4
 1401 1351 1401 1351 1345 1234 c 1,5,6
 966 1143 966 1143 592 911 c 1,7,8
 828 724 828 724 1328 627 c 1,9,-1
 1332 617 l 1,10,11
 1202 486 1202 486 1149 344 c 1,12,13
 806 641 806 641 274 742 c 1,14,-1
 271 752 l 1,15,16
 407 926 407 926 454 1040 c 1,0,1
116 0 m 1,17,-1
 112 10 l 1,18,19
 248 184 248 184 295 298 c 1,20,21
 505 242 505 242 736 242 c 0,22,23
 1009 242 1009 242 1254 298 c 1,24,-1
 1258 288 l 1,25,26
 1112 90 1112 90 1075 0 c 1,27,28
 872 66 872 66 638 66 c 0,29,30
 378 66 378 66 116 0 c 1,17,-1
EndSplineSet
Validated: 1
EndChar

StartChar: greaterequal
Encoding: 8805 8805 148
Width: 1360
GlyphClass: 2
Flags: W
HStem: 0 298<327.246 394.189 1031.14 1149.4> 66 176<394.189 1050.79> 1490 20G<585.5 777.5>
LayerCount: 2
Fore
SplineSet
606 1510 m 1,0,1
 949 1213 949 1213 1481 1112 c 1,2,-1
 1484 1102 l 1,3,4
 1348 928 1348 928 1301 814 c 1,5,6
 812 668 812 668 248 344 c 1,7,-1
 237 346 l 1,8,9
 354 503 354 503 410 620 c 1,10,11
 789 711 789 711 1163 943 c 1,12,13
 927 1130 927 1130 427 1227 c 1,14,-1
 423 1237 l 1,15,16
 565 1395 565 1395 606 1510 c 1,0,1
169 0 m 1,17,-1
 165 10 l 1,18,19
 301 184 301 184 348 298 c 1,20,21
 558 242 558 242 789 242 c 0,22,23
 1062 242 1062 242 1307 298 c 1,24,-1
 1311 288 l 1,25,26
 1165 90 1165 90 1128 0 c 1,27,28
 925 66 925 66 691 66 c 0,29,30
 431 66 431 66 169 0 c 1,17,-1
EndSplineSet
Validated: 1
EndChar

StartChar: lozenge
Encoding: 9674 9674 149
Width: 1178
GlyphClass: 2
Flags: W
DStem2: 217 738 502 776 0.660649 0.750695<216.811 660.363> 502 776 217 738 0.436739 -0.899588<0 452.144> 701 370 585 -20 0.672237 0.740336<0 436.366> 914 1530 795 1109 0.417012 -0.908901<333.023 788.808>
LayerCount: 2
Fore
SplineSet
701 370 m 1,0,-1
 990 697 l 1,1,-1
 795 1109 l 1,2,-1
 502 776 l 1,3,-1
 701 370 l 1,0,-1
585 -20 m 1,4,-1
 217 738 l 1,5,-1
 914 1530 l 1,6,-1
 1276 741 l 1,7,-1
 585 -20 l 1,4,-1
EndSplineSet
Validated: 1
EndChar

StartChar: Y
Encoding: 89 89 150
Width: 1396
Flags: W
HStem: 0 21G<520 642.5> 1490 20G<558.5 682 1620 1711>
LayerCount: 2
Fore
SplineSet
529 0 m 1,0,1
 520 6 l 1,2,3
 612 244 612 244 657 451 c 1,4,5
 540 910 540 910 300 1387 c 1,6,7
 444 1409 444 1409 673 1510 c 1,8,-1
 682 1504 l 1,9,10
 751 1021 751 1021 892 672 c 1,11,12
 1169 1013 1169 1013 1391 1402 c 1,13,14
 1538 1437 1538 1437 1702 1510 c 1,15,-1
 1711 1504 l 1,16,17
 1258 973 1258 973 964 477 c 1,18,19
 931 315 931 315 927 123 c 1,20,21
 756 101 756 101 529 0 c 1,0,1
EndSplineSet
Validated: 1
EndChar

StartChar: X
Encoding: 88 88 151
Width: 1275
Flags: W
HStem: 0 21G<16 138.5 919 1034.5> 1490 20G<560 677 1455.5 1578>
LayerCount: 2
Fore
SplineSet
25 0 m 1,0,-1
 16 6 l 1,1,2
 423 407 423 407 664 704 c 1,3,4
 519 1052 519 1052 300 1387 c 1,5,6
 452 1409 452 1409 668 1510 c 1,7,-1
 677 1504 l 1,8,9
 737 1220 737 1220 854 939 c 1,10,11
 1041 1166 1041 1166 1171 1387 c 1,12,13
 1342 1409 1342 1409 1569 1510 c 1,14,-1
 1578 1504 l 1,15,16
 1231 1167 1231 1167 915 791 c 1,17,18
 1080 430 1080 430 1296 123 c 1,19,20
 1141 96 1141 96 928 0 c 1,21,-1
 919 6 l 1,22,23
 848 280 848 280 725 553 c 1,24,25
 543 316 543 316 423 123 c 1,26,27
 252 101 252 101 25 0 c 1,0,-1
EndSplineSet
Validated: 1
EndChar

StartChar: Z
Encoding: 90 90 152
Width: 1239
Flags: W
HStem: 0 21G<41 197.5 969.5 1104> 60 144<600.755 993.5> 1306 144<597.75 924.843> 1490 20G<491 609.5 1333.5 1468>
LayerCount: 2
Fore
SplineSet
50 0 m 1,0,-1
 41 6 l 1,1,2
 606 709 606 709 926 1302 c 1,3,4
 889 1306 889 1306 850 1306 c 0,5,6
 610 1306 610 1306 321 1128 c 1,7,-1
 317 1138 l 1,8,9
 463 1346 463 1346 519 1510 c 1,10,11
 700 1450 700 1450 969 1450 c 0,12,13
 1208 1450 1208 1450 1459 1510 c 1,14,-1
 1468 1504 l 1,15,16
 906 803 906 803 599 214 c 1,17,18
 655 204 655 204 730 204 c 0,19,20
 985 204 985 204 1274 382 c 1,21,-1
 1278 372 l 1,22,23
 1132 164 1132 164 1076 0 c 1,24,25
 863 60 863 60 604 60 c 128,-1,26
 345 60 345 60 50 0 c 1,0,-1
EndSplineSet
Validated: 1
EndChar

StartChar: J
Encoding: 74 74 153
Width: 662
Flags: W
HStem: -380 21G<-77 64> 1490 20G<719.5 842>
LayerCount: 2
Fore
SplineSet
-70 -380 m 1,0,1
 -77 -374 l 1,2,3
 97 -160 97 -160 175 78 c 0,4,5
 256 328 256 328 319 627 c 0,6,7
 402 1017 402 1017 435 1387 c 1,8,9
 606 1409 606 1409 833 1510 c 1,10,-1
 842 1504 l 1,11,12
 716 1140 716 1140 637 778 c 0,13,14
 580 509 580 509 548 123 c 1,15,16
 470 -19 470 -19 363 -116 c 0,17,18
 198 -268 198 -268 -70 -380 c 1,0,1
EndSplineSet
Validated: 1
EndChar

StartChar: U
Encoding: 85 85 154
Width: 1459
VWidth: 0
Flags: W
HStem: 0 21G<585 780.5 938 1060.5> 1490 20G<719.5 842 1516.5 1639>
VStem: 312 313<407.863 801.105>
LayerCount: 2
Fore
SplineSet
947 0 m 1,0,-1
 938 6 l 1,1,2
 955 60 955 60 972 112 c 1,3,4
 854 47 854 47 707 0 c 1,5,-1
 697 0 l 1,6,7
 473 43 473 43 374 202 c 0,8,9
 312 302 312 302 312 468 c 0,10,11
 312 589 312 589 345 746 c 0,12,13
 403 1017 403 1017 435 1387 c 1,14,15
 606 1409 606 1409 833 1510 c 1,16,-1
 842 1504 l 1,17,18
 714 1139 714 1139 655 860 c 0,19,20
 625 720 625 720 625 614 c 0,21,22
 625 430 625 430 716 352 c 0,23,24
 820 262 820 262 1019 262 c 1,25,26
 1094 521 1094 521 1137 724 c 0,27,28
 1199 1017 1199 1017 1232 1387 c 1,29,30
 1403 1409 1403 1409 1630 1510 c 1,31,-1
 1639 1504 l 1,32,33
 1513 1140 1513 1140 1434 778 c 0,34,35
 1377 509 1377 509 1345 123 c 1,36,37
 1174 101 1174 101 947 0 c 1,0,-1
EndSplineSet
Validated: 1
EndChar

StartChar: K
Encoding: 75 75 155
Width: 1341
Flags: W
HStem: 0 21G<141 263.5 920 1043> 1490 20G<719.5 842 1459.5 1582>
LayerCount: 2
Fore
SplineSet
150 0 m 1,0,-1
 141 6 l 1,1,2
 273 409 273 409 340 724 c 0,3,4
 402 1017 402 1017 435 1387 c 1,5,6
 606 1409 606 1409 833 1510 c 1,7,-1
 842 1504 l 1,8,9
 706 1112 706 1112 637 778 c 0,10,11
 626 725 626 725 616 667 c 1,12,13
 951 1020 951 1020 1175 1387 c 1,14,15
 1346 1409 1346 1409 1573 1510 c 1,16,-1
 1582 1504 l 1,17,18
 1232 1198 1232 1198 1000 896 c 1,19,20
 1060 536 1060 536 1307 123 c 1,21,22
 1157 101 1157 101 929 0 c 1,23,-1
 920 6 l 1,24,25
 870 374 870 374 751 615 c 1,26,27
 654 508 654 508 576 402 c 1,28,29
 560 271 560 271 548 123 c 1,30,31
 377 101 377 101 150 0 c 1,0,-1
EndSplineSet
Validated: 1
EndChar

StartChar: Q
Encoding: 81 81 156
Width: 1394
VWidth: 0
Flags: W
HStem: 0 21G<566.5 766.5 951 1030> 1490 20G<872 1147.5>
VStem: 222 262<503.5 847.264> 1231 262<664.549 1006>
LayerCount: 2
Fore
SplineSet
702 0 m 1,0,-1
 692 0 l 1,1,2
 441 98 441 98 327 261 c 0,3,4
 222 412 222 412 222 595 c 0,5,6
 222 668 222 668 238 746 c 0,7,8
 296 1020 296 1020 548 1254 c 0,9,10
 731 1425 731 1425 1013 1510 c 1,11,-1
 1023 1510 l 1,12,13
 1272 1412 1272 1412 1387 1249 c 0,14,15
 1493 1098 1493 1098 1493 914 c 0,16,17
 1493 843 1493 843 1477 766 c 0,18,19
 1419 492 1419 492 1160 249 c 1,20,21
 1190 172 1190 172 1230 97 c 1,22,23
 1100 62 1100 62 960 0 c 1,24,-1
 951 6 l 1,25,26
 945 52 945 52 937 96 c 1,27,28
 831 41 831 41 702 0 c 1,0,-1
1127 346 m 1,29,30
 1192 453 1192 453 1217 574 c 0,31,32
 1231 641 1231 641 1231 701 c 0,33,34
 1231 939 1231 939 1012 1080 c 0,35,36
 833 1196 833 1196 609 1196 c 1,37,38
 527 1075 527 1075 498 936 c 0,39,40
 484 869 484 869 484 809 c 0,41,42
 484 572 484 572 703 430 c 0,43,44
 781 379 781 379 869 350 c 1,45,46
 838 438 838 438 796 517 c 1,47,48
 928 553 928 553 1065 614 c 1,49,-1
 1073 608 l 1,50,51
 1087 475 1087 475 1127 346 c 1,29,30
EndSplineSet
Validated: 1
EndChar

StartChar: P
Encoding: 80 80 157
Width: 1371
VWidth: 0
Flags: W
HStem: 0 21G<189 311.5> 360 170<639.744 965.874> 1182 328<647.358 1054.12>
VStem: 1182 314<795.128 1065.74>
LayerCount: 2
Fore
SplineSet
198 0 m 1,0,-1
 189 6 l 1,1,2
 283 231 283 231 335 474 c 0,3,4
 378 676 378 676 378 845 c 0,5,6
 378 866 378 866 377 887 c 1,7,8
 548 909 548 909 775 1010 c 1,9,-1
 783 1004 l 1,10,11
 692 799 692 799 638 555 c 1,12,13
 703 530 703 530 783 530 c 0,14,15
 953 530 953 530 1072 657 c 0,16,17
 1150 741 1150 741 1174 856 c 0,18,19
 1182 891 1182 891 1182 924 c 0,20,21
 1182 1008 1182 1008 1131 1074 c 0,22,23
 1050 1182 1050 1182 841 1182 c 0,24,25
 560 1182 560 1182 293 976 c 1,26,-1
 289 985 l 1,27,28
 428 1228 428 1228 475 1402 c 1,29,30
 716 1510 716 1510 934 1510 c 0,31,32
 1218 1510 1218 1510 1371 1353 c 0,33,34
 1496 1224 1496 1224 1496 1030 c 0,35,36
 1496 981 1496 981 1488 927 c 0,37,38
 1452 685 1452 685 1231 514 c 0,39,40
 1033 361 1033 361 747 360 c 0,41,42
 676 360 676 360 607 376 c 1,43,44
 595 277 595 277 595 176 c 0,45,46
 595 149 595 149 596 123 c 1,47,48
 425 101 425 101 198 0 c 1,0,-1
EndSplineSet
Validated: 1
EndChar

StartChar: D
Encoding: 68 68 158
Width: 1461
VWidth: 0
Flags: W
HStem: 0 164<592.399 906.388> 1182 328<647.358 1061.62>
VStem: 1226 334<646.605 1019.54>
LayerCount: 2
Fore
SplineSet
198 0 m 1,0,-1
 189 6 l 1,1,2
 283 231 283 231 335 474 c 0,3,4
 378 676 378 676 378 845 c 0,5,6
 378 866 378 866 377 887 c 1,7,8
 548 909 548 909 775 1010 c 1,9,-1
 783 1004 l 1,10,11
 687 788 687 788 632 528 c 0,12,13
 593 344 593 344 590 189 c 1,14,15
 673 164 673 164 743 164 c 0,16,17
 927 164 927 164 1069 358 c 0,18,19
 1171 497 1171 497 1211 687 c 0,20,21
 1226 760 1226 760 1226 824 c 0,22,23
 1226 943 1226 943 1174 1034 c 0,24,25
 1087 1182 1087 1182 841 1182 c 0,26,27
 560 1182 560 1182 293 976 c 1,28,-1
 289 985 l 1,29,30
 428 1228 428 1228 475 1402 c 1,31,32
 716 1510 716 1510 934 1510 c 0,33,34
 1262 1510 1262 1510 1432 1319 c 0,35,36
 1560 1175 1560 1175 1560 942 c 0,37,38
 1560 862 1560 862 1545 772 c 0,39,40
 1500 499 1500 499 1308 283 c 0,41,42
 1058 0 1058 0 707 0 c 0,43,44
 645 0 645 0 539 19 c 0,45,46
 449 35 449 35 404 35 c 0,47,48
 307 35 307 35 198 0 c 1,0,-1
EndSplineSet
Validated: 1
EndChar

StartChar: R
Encoding: 82 82 159
Width: 1452
VWidth: 0
Flags: W
HStem: 0 21G<189 311.5 1047 1179.5> 360 170<640.394 849.797> 1182 328<647.358 1055.39>
VStem: 1182 314<784.24 1064.59>
LayerCount: 2
Fore
SplineSet
198 0 m 1,0,1
 189 6 l 1,2,3
 283 231 283 231 335 474 c 0,4,5
 378 676 378 676 378 845 c 0,6,7
 378 866 378 866 377 887 c 1,8,9
 548 909 548 909 775 1010 c 1,10,-1
 783 1004 l 1,11,12
 692 799 692 799 638 555 c 1,13,14
 703 530 703 530 783 530 c 0,15,16
 953 530 953 530 1072 657 c 0,17,18
 1147 738 1147 738 1174 856 c 0,19,20
 1182 891 1182 891 1182 924 c 0,21,22
 1182 1008 1182 1008 1131 1074 c 0,23,24
 1050 1182 1050 1182 841 1182 c 0,25,26
 560 1182 560 1182 293 976 c 1,27,-1
 289 985 l 1,28,29
 428 1228 428 1228 475 1402 c 1,30,31
 716 1510 716 1510 934 1510 c 0,32,33
 1204 1510 1204 1510 1364 1346 c 0,34,35
 1496 1210 1496 1210 1496 1008 c 0,36,37
 1496 970 1496 970 1489 923 c 0,38,39
 1450 664 1450 664 1231 514 c 0,40,41
 1180 479 1180 479 1111 451 c 1,42,43
 1191 305 1191 305 1418 123 c 1,44,45
 1303 101 1303 101 1056 0 c 1,46,-1
 1047 6 l 1,47,48
 968 201 968 201 812 360 c 1,49,50
 676 360 676 360 607 376 c 1,51,52
 595 277 595 277 595 176 c 0,53,54
 595 149 595 149 596 123 c 1,55,56
 425 101 425 101 198 0 c 1,0,1
EndSplineSet
Validated: 1
EndChar

StartChar: S
Encoding: 83 83 160
Width: 1200
VWidth: 0
Flags: W
HStem: 0 21G<450 712> 1490 20G<834 1012.5>
VStem: 395 223<1018 1213> 982 276<394.5 676>
DStem2: 762 1024 578 744 0.889175 -0.457568<-172.867 402.749>
LayerCount: 2
Fore
SplineSet
613 0 m 1,0,-1
 603 0 l 1,1,2
 297 102 297 102 149 419 c 1,3,-1
 155 429 l 1,4,5
 300 448 300 448 473 518 c 1,6,7
 617 294 617 294 933 252 c 1,8,9
 966 302 966 302 978 363 c 0,10,11
 982 384 982 384 982 405 c 0,12,13
 982 533 982 533 783 637 c 2,14,-1
 578 744 l 2,15,16
 395 840 395 840 395 1018 c 0,17,18
 395 1037 395 1037 398 1057 c 0,19,20
 421 1227 421 1227 609 1359 c 0,21,22
 744 1454 744 1454 924 1510 c 1,23,-1
 934 1510 l 1,24,25
 1091 1450 1091 1450 1169 1378 c 0,26,27
 1243 1310 1243 1310 1261 1214 c 1,28,-1
 1256 1204 l 1,29,30
 1114 1186 1114 1186 950 1119 c 1,31,32
 925 1189 925 1189 863 1225 c 0,33,34
 773 1276 773 1276 645 1276 c 1,35,36
 625 1243 625 1243 620 1213 c 0,37,38
 618 1200 618 1200 618 1187 c 0,39,40
 618 1098 618 1098 762 1024 c 2,41,-1
 1036 883 l 2,42,43
 1258 769 1258 769 1258 583 c 0,44,45
 1258 558 1258 558 1253 532 c 0,46,47
 1219 340 1219 340 974 170 c 0,48,49
 811 57 811 57 613 0 c 1,0,-1
EndSplineSet
Validated: 1
EndChar

StartChar: two
Encoding: 50 50 161
Width: 1244
VWidth: 0
Flags: W
HStem: 71 227<423.083 966.405> 1490 20G<773.5 1051>
VStem: 315 174<967 1130.6> 991 352<897.101 1135>
LayerCount: 2
Fore
SplineSet
164 10 m 1,0,1
 115 48 115 48 115 104 c 0,2,3
 115 119 115 119 119 135 c 0,4,5
 147 269 147 269 640 628 c 2,6,-1
 845 778 l 2,7,8
 971 869 971 869 988 947 c 0,9,10
 991 963 991 963 991 978 c 0,11,12
 991 1032 991 1032 946 1074 c 0,13,14
 791 1216 791 1216 523 1216 c 1,15,16
 500 1190 500 1190 492 1147 c 0,17,18
 489 1132 489 1132 489 1118 c 0,19,20
 489 1056 489 1056 548 997 c 0,21,22
 604 941 604 941 699 908 c 1,23,24
 560 892 560 892 391 811 c 1,25,-1
 384 813 l 1,26,27
 315 872 315 872 315 967 c 0,28,29
 315 997 315 997 322 1031 c 0,30,31
 354 1180 354 1180 503 1305 c 0,32,33
 628 1410 628 1410 919 1510 c 1,34,-1
 929 1510 l 1,35,36
 1173 1426 1173 1426 1292 1257 c 0,37,38
 1343 1184 1343 1184 1343 1086 c 0,39,40
 1343 1049 1343 1049 1336 1009 c 0,41,42
 1293 765 1293 765 984 615 c 2,43,-1
 690 472 l 2,44,45
 498 379 498 379 420 312 c 1,46,47
 518 298 518 298 700 298 c 0,48,49
 934 298 934 298 1231 392 c 1,50,-1
 1235 382 l 1,51,52
 1089 174 1089 174 1033 10 c 1,53,54
 814 71 814 71 620 71 c 0,55,56
 395 71 395 71 164 10 c 1,0,1
EndSplineSet
Validated: 1
EndChar

StartChar: three
Encoding: 51 51 162
Width: 1263
Flags: W
HStem: 0 21G<470 741.5> 1490 20G<858 1027.5>
VStem: 421 179<1045 1194.41> 976 306<1042 1249> 1006 297<453.801 733.5>
LayerCount: 2
Fore
SplineSet
633 0 m 1,0,-1
 623 0 l 1,1,2
 317 102 317 102 169 419 c 1,3,-1
 175 429 l 1,4,5
 320 448 320 448 493 518 c 1,6,7
 637 294 637 294 953 252 c 1,8,9
 982 306 982 306 994 360 c 0,10,11
 1006 416 1006 416 1006 463 c 0,12,13
 1006 557 1006 557 959 618 c 8,14,15
 871 734 871 734 666 741 c 9,16,-1
 668 751 l 1,17,18
 936 846 936 846 971 1010 c 0,19,20
 976 1032 976 1032 976 1052 c 0,21,22
 976 1128 976 1128 910 1183 c 0,23,24
 805 1274 805 1274 632 1274 c 1,25,26
 611 1242 611 1242 603 1204 c 0,27,28
 600 1189 600 1189 600 1174 c 0,29,30
 600 1058 600 1058 808 1001 c 1,31,32
 670 985 670 985 500 904 c 1,33,-1
 493 906 l 1,34,35
 421 958 421 958 421 1045 c 0,36,37
 421 1070 421 1070 427 1099 c 0,38,39
 459 1248 459 1248 642 1375 c 0,40,41
 772 1465 772 1465 944 1510 c 1,42,-1
 954 1510 l 1,43,44
 1101 1465 1101 1465 1202 1371 c 0,45,46
 1282 1297 1282 1297 1282 1201 c 0,47,48
 1282 1176 1282 1176 1276 1149 c 0,49,50
 1246 1009 1246 1009 1084 933 c 1,51,52
 1154 920 1154 920 1203 883 c 0,53,54
 1303 806 1303 806 1303 661 c 0,55,56
 1303 627 1303 627 1298 590 c 0,57,58
 1264 350 1264 350 1005 178 c 0,59,60
 850 74 850 74 633 0 c 1,0,-1
EndSplineSet
Validated: 1
EndChar

StartChar: five
Encoding: 53 53 163
Width: 1253
VWidth: 0
Flags: W
HStem: 0 21G<470 753.5> 754 233<580 1039.5> 1162 273<984.758 1224.11> 1490 20G<754.5 889.5 1315.5 1405>
VStem: 502 217<1065.84 1263.58> 1006 303<439.5 749>
LayerCount: 2
Fore
SplineSet
633 0 m 1,0,1
 623 0 l 1,2,3
 317 102 317 102 169 419 c 1,4,-1
 175 429 l 1,5,6
 320 448 320 448 493 518 c 1,7,8
 637 294 637 294 953 252 c 1,9,10
 982 306 982 306 994 360 c 0,11,12
 1006 416 1006 416 1006 463 c 0,13,14
 1006 557 1006 557 959 618 c 0,15,16
 855 754 855 754 656 754 c 0,17,18
 504 754 504 754 354 686 c 1,19,-1
 349 694 l 1,20,21
 409 835 409 835 456 1060 c 0,22,23
 496 1247 496 1247 502 1417 c 1,24,25
 676 1431 676 1431 833 1510 c 1,26,27
 946 1435 946 1435 1076 1435 c 0,28,29
 1230 1435 1230 1435 1401 1510 c 1,30,-1
 1405 1500 l 1,31,32
 1257 1292 1257 1292 1210 1162 c 1,33,34
 1042 1162 1042 1162 942.5 1230 c 128,-1,35
 843 1298 843 1298 823 1450 c 1,36,37
 779 1341 779 1341 752 1212 c 0,38,39
 719 1054 719 1054 719 937 c 1,40,41
 831 987 831 987 956 987 c 0,42,43
 1123 987 1123 987 1216 900 c 0,44,45
 1309 814 1309 814 1309 684 c 0,46,47
 1309 640 1309 640 1298 590 c 0,48,49
 1248 357 1248 357 1005 178 c 0,50,51
 874 82 874 82 633 0 c 1,0,1
EndSplineSet
Validated: 1
EndChar

StartChar: paragraph
Encoding: 182 182 164
Width: 1098
Flags: W
HStem: 0 21G<607 659.5> 1490 20G<730 893 1238.5 1308>
LayerCount: 2
Fore
SplineSet
616 0 m 1,0,-1
 607 6 l 1,1,2
 732 389 732 389 798 688 c 1,3,4
 721 663 721 663 643 663 c 0,5,6
 464 663 464 663 351 787 c 0,7,8
 279 865 279 865 279 983 c 0,9,10
 279 1031 279 1031 291 1085 c 0,11,12
 331 1272 331 1272 486 1392 c 0,13,14
 639 1510 639 1510 821 1510 c 0,15,16
 965 1510 965 1510 1069 1424 c 1,17,18
 1178 1456 1178 1456 1299 1510 c 1,19,-1
 1308 1504 l 1,20,21
 1182 1140 1182 1140 1103 778 c 0,22,23
 1046 509 1046 509 1014 123 c 1,24,25
 934 112 934 112 847 87 c 1,26,-1
 1108 1313 l 1,27,-1
 1048 1313 l 1,28,-1
 783 66 l 1,29,30
 703 39 703 39 616 0 c 1,0,-1
EndSplineSet
Validated: 1
EndChar

StartChar: uni00B5
Encoding: 181 181 165
Width: 1245
Flags: W
HStem: -380 21G<31 149> 0 21G<553.5 659.5 784 905.5> 1110 20G<592 711 1252.5 1374>
LayerCount: 2
Fore
SplineSet
605 0 m 1,0,-1
 595 0 l 1,1,2
 512 16 512 16 449 53 c 1,3,4
 430 -91 430 -91 417 -257 c 1,5,6
 259 -279 259 -279 39 -380 c 1,7,-1
 31 -374 l 1,8,9
 163 29 163 29 229 344 c 0,10,11
 291 637 291 637 324 1007 c 1,12,13
 482 1029 482 1029 702 1130 c 1,14,-1
 711 1124 l 1,15,16
 600 816 600 816 552 593 c 0,17,18
 538 529 538 529 538 476 c 0,19,20
 538 366 538 366 597 305 c 0,21,22
 683 215 683 215 860 215 c 1,23,24
 915 385 915 385 948 542 c 0,25,26
 997 772 997 772 997 1007 c 1,27,28
 1140 1027 1140 1027 1365 1130 c 1,29,-1
 1374 1124 l 1,30,31
 1266 833 1266 833 1216 596 c 0,32,33
 1161 337 1161 337 1161 123 c 1,34,35
 1018 103 1018 103 793 0 c 1,36,-1
 784 6 l 1,37,38
 800 47 800 47 816 88 c 1,39,40
 714 26 714 26 605 0 c 1,0,-1
EndSplineSet
Validated: 1
EndChar

StartChar: M
Encoding: 77 77 166
Width: 1745
Flags: W
HStem: 0 21G<11 84 637 764 1369 1493> 1490 20G<679 795 1713.5 1836>
VStem: 1479 269<406.448 950.952>
LayerCount: 2
Fore
SplineSet
20 0 m 1,0,1
 11 6 l 1,2,3
 311 673 311 673 474 1237 c 1,4,5
 453 1317 453 1317 413 1387 c 1,6,7
 572 1414 572 1414 786 1510 c 1,8,-1
 795 1504 l 1,9,10
 816 785 816 785 925 304 c 1,11,12
 1229 779 1229 779 1461 1292 c 1,13,14
 1455 1350 1455 1350 1429 1387 c 1,15,16
 1600 1409 1600 1409 1827 1510 c 1,17,-1
 1836 1504 l 1,18,19
 1748 971 1748 971 1748 485 c 0,20,21
 1748 300 1748 300 1761 123 c 1,22,23
 1608 103 1608 103 1378 0 c 1,24,-1
 1369 6 l 1,25,26
 1470 508 1470 508 1479 965 c 1,27,28
 1254 608 1254 608 1019 123 c 1,29,30
 882 105 882 105 646 0 c 1,31,-1
 637 6 l 1,32,33
 621 487 621 487 539 918 c 1,34,35
 372 533 372 533 262 90 c 1,36,37
 148 57 148 57 20 0 c 1,0,1
EndSplineSet
Validated: 1
EndChar

StartChar: B
Encoding: 66 66 167
Width: 1387
VWidth: 0
Flags: W
HStem: 0 164<591.516 936.026> 662 8<805 811.656> 1182 328<647.64 1019.06>
VStem: 1080 297<970 1200> 1119 306<395.369 686.732>
LayerCount: 2
Fore
SplineSet
198 0 m 1,0,-1
 189 6 l 1,1,2
 283 231 283 231 335 474 c 0,3,4
 378 676 378 676 378 845 c 0,5,6
 378 866 378 866 377 887 c 1,7,8
 548 909 548 909 775 1010 c 1,9,-1
 783 1004 l 1,10,11
 687 788 687 788 632 528 c 0,12,13
 593 344 593 344 590 189 c 1,14,15
 673 164 673 164 762 164 c 0,16,17
 909 164 909 164 1016 268 c 0,18,19
 1092 341 1092 341 1113 443 c 0,20,21
 1119 472 1119 472 1119 497 c 0,22,23
 1119 568 1119 568 1073 617 c 0,24,25
 1023 670 1023 670 915 670 c 0,26,27
 860 670 860 670 810 662 c 1,28,-1
 805 670 l 1,29,30
 912 730 912 730 987 812 c 0,31,32
 1059 891 1059 891 1075 970 c 0,33,34
 1080 996 1080 996 1080 1019 c 0,35,36
 1080 1085 1080 1085 1036 1126 c 0,37,38
 976 1182 976 1182 841 1182 c 0,39,40
 598 1182 598 1182 293 976 c 1,41,-1
 289 985 l 1,42,43
 428 1228 428 1228 475 1402 c 1,44,45
 716 1510 716 1510 934 1510 c 0,46,47
 1185 1510 1185 1510 1296 1394 c 0,48,49
 1377 1308 1377 1308 1377 1200 c 0,50,51
 1377 1168 1377 1168 1370 1134 c 0,52,53
 1348 1031 1348 1031 1262 946 c 0,54,55
 1246 930 1246 930 1225 914 c 1,56,57
 1285 889 1285 889 1333 843 c 0,58,59
 1425 758 1425 758 1425 614 c 0,60,61
 1425 559 1425 559 1416 512 c 0,62,63
 1377 298 1377 298 1184 151 c 0,64,65
 986 0 986 0 726 0 c 0,66,67
 645 0 645 0 539 19 c 0,68,69
 449 35 449 35 404 35 c 0,70,71
 307 35 307 35 198 0 c 1,0,-1
EndSplineSet
Validated: 1
EndChar

StartChar: F
Encoding: 70 70 168
Width: 1096
Flags: W
HStem: 0 21G<141 263.5> 644 144<639 897.25> 1162 273<984.758 1224.11> 1490 20G<719.5 889.5 1315.5 1405>
LayerCount: 2
Fore
SplineSet
150 0 m 1,0,1
 141 6 l 1,2,3
 273 409 273 409 340 724 c 0,4,5
 402 1017 402 1017 435 1387 c 1,6,7
 606 1409 606 1409 833 1510 c 1,8,9
 946 1435 946 1435 1076 1435 c 0,10,11
 1230 1435 1230 1435 1401 1510 c 1,12,-1
 1405 1500 l 1,13,14
 1257 1292 1257 1292 1210 1162 c 1,15,16
 1042 1162 1042 1162 942.5 1230 c 128,-1,17
 843 1298 843 1298 823 1450 c 1,18,19
 711 1118 711 1118 639 788 c 1,20,21
 887 788 887 788 1176 966 c 1,22,-1
 1180 956 l 1,23,24
 1035 749 1035 749 978 584 c 1,25,26
 797 644 797 644 612 644 c 1,27,28
 572 414 572 414 548 123 c 1,29,30
 377 101 377 101 150 0 c 1,0,1
EndSplineSet
Validated: 1
EndChar

StartChar: AE
Encoding: 198 198 169
Width: 1886
Flags: W
HStem: 0 21G<6 97 858 992.5 1662.5 1781> 60 144<1274.75 1666.29> 644 144<746.652 1039 1356 1614.25> 1162 273<1701.76 1941.11> 1490 20G<1349.5 1606.5 2032.5 2122>
LayerCount: 2
Fore
SplineSet
15 0 m 1,0,-1
 6 6 l 1,1,2
 455 646 455 646 790 1387 c 1,3,4
 1149 1395 1149 1395 1550 1510 c 1,5,6
 1663 1435 1663 1435 1793 1435 c 0,7,8
 1947 1435 1947 1435 2118 1510 c 1,9,-1
 2122 1500 l 1,10,11
 1974 1292 1974 1292 1927 1162 c 1,12,13
 1759 1162 1759 1162 1659.5 1230 c 128,-1,14
 1560 1298 1560 1298 1540 1450 c 1,15,16
 1428 1118 1428 1118 1356 788 c 1,17,18
 1604 788 1604 788 1893 966 c 1,19,-1
 1897 956 l 1,20,21
 1752 749 1752 749 1695 584 c 1,22,23
 1514 644 1514 644 1329 644 c 1,24,25
 1296 453 1296 453 1273 214 c 1,26,27
 1329 204 1329 204 1392 204 c 0,28,29
 1662 204 1662 204 1951 382 c 1,30,-1
 1955 372 l 1,31,32
 1809 164 1809 164 1753 0 c 1,33,34
 1572 60 1572 60 1357 60 c 0,35,36
 1118 60 1118 60 867 0 c 1,37,-1
 858 6 l 1,38,39
 973 359 973 359 1039 644 c 1,40,41
 804 640 804 640 553 599 c 1,42,43
 454 395 454 395 326 108 c 1,44,45
 179 73 179 73 15 0 c 1,0,-1
1069 788 m 1,46,47
 1116 1027 1116 1027 1149 1355 c 1,48,49
 905 1285 905 1285 682 851 c 1,50,51
 854 794 854 794 1069 788 c 1,46,47
EndSplineSet
Validated: 1
EndChar

StartChar: Eth
Encoding: 208 208 170
Width: 1461
VWidth: 0
Flags: W
HStem: 0 164<592.399 906.388> 516 196<671.783 950.562> 556 119<666 921.746> 1182 328<647.358 1061.62>
VStem: 1226 334<646.605 1019.54>
LayerCount: 2
Fore
SplineSet
198 0 m 1,0,-1
 189 6 l 1,1,2
 283 231 283 231 335 474 c 0,3,4
 342 507 342 507 348 540 c 1,5,6
 275 531 275 531 196 516 c 1,7,-1
 192 526 l 1,8,9
 272 629 272 629 315 712 c 1,10,11
 343 706 343 706 370 702 c 1,12,13
 378 777 378 777 378 846 c 0,14,15
 378 867 378 867 377 887 c 1,16,17
 548 909 548 909 775 1010 c 1,18,-1
 783 1004 l 1,19,20
 712 844 712 844 666 675 c 1,21,22
 851 675 851 675 1045 712 c 1,23,-1
 1049 702 l 1,24,25
 971 598 971 598 926 516 c 1,26,27
 790 552 790 552 638 556 c 1,28,29
 595 353 595 353 590 189 c 1,30,31
 673 164 673 164 743 164 c 0,32,33
 927 164 927 164 1069 358 c 0,34,35
 1171 497 1171 497 1211 687 c 0,36,37
 1226 760 1226 760 1226 824 c 0,38,39
 1226 943 1226 943 1174 1034 c 0,40,41
 1087 1182 1087 1182 841 1182 c 0,42,43
 560 1182 560 1182 293 976 c 1,44,-1
 289 985 l 1,45,46
 428 1228 428 1228 475 1402 c 1,47,48
 716 1510 716 1510 934 1510 c 0,49,50
 1262 1510 1262 1510 1432 1319 c 0,51,52
 1560 1175 1560 1175 1560 942 c 0,53,54
 1560 862 1560 862 1545 772 c 0,55,56
 1500 499 1500 499 1308 283 c 0,57,58
 1058 0 1058 0 707 0 c 0,59,60
 645 0 645 0 539 19 c 0,61,62
 449 35 449 35 404 35 c 0,63,64
 307 35 307 35 198 0 c 1,0,-1
EndSplineSet
Validated: 1
EndChar

StartChar: Dcroat
Encoding: 272 272 171
Width: 1461
VWidth: 0
Flags: W
HStem: 0 164<592.399 906.388> 516 196<671.783 950.562> 556 119<666 921.746> 1182 328<647.358 1061.62>
VStem: 1226 334<646.605 1019.54>
LayerCount: 2
Fore
SplineSet
198 0 m 1,0,-1
 189 6 l 1,1,2
 283 231 283 231 335 474 c 0,3,4
 342 507 342 507 348 540 c 1,5,6
 275 531 275 531 196 516 c 1,7,-1
 192 526 l 1,8,9
 272 629 272 629 315 712 c 1,10,11
 343 706 343 706 370 702 c 1,12,13
 378 777 378 777 378 846 c 0,14,15
 378 867 378 867 377 887 c 1,16,17
 548 909 548 909 775 1010 c 1,18,-1
 783 1004 l 1,19,20
 712 844 712 844 666 675 c 1,21,22
 851 675 851 675 1045 712 c 1,23,-1
 1049 702 l 1,24,25
 971 598 971 598 926 516 c 1,26,27
 790 552 790 552 638 556 c 1,28,29
 595 353 595 353 590 189 c 1,30,31
 673 164 673 164 743 164 c 0,32,33
 927 164 927 164 1069 358 c 0,34,35
 1171 497 1171 497 1211 687 c 0,36,37
 1226 760 1226 760 1226 824 c 0,38,39
 1226 943 1226 943 1174 1034 c 0,40,41
 1087 1182 1087 1182 841 1182 c 0,42,43
 560 1182 560 1182 293 976 c 1,44,-1
 289 985 l 1,45,46
 428 1228 428 1228 475 1402 c 1,47,48
 716 1510 716 1510 934 1510 c 0,49,50
 1262 1510 1262 1510 1432 1319 c 0,51,52
 1560 1175 1560 1175 1560 942 c 0,53,54
 1560 862 1560 862 1545 772 c 0,55,56
 1500 499 1500 499 1308 283 c 0,57,58
 1058 0 1058 0 707 0 c 0,59,60
 645 0 645 0 539 19 c 0,61,62
 449 35 449 35 404 35 c 0,63,64
 307 35 307 35 198 0 c 1,0,-1
EndSplineSet
Validated: 1
EndChar

StartChar: Hbar
Encoding: 294 294 172
Width: 1421
Flags: W
HStem: 0 21G<141 263.5 900 1022.5> 656 158<652.199 1075.55> 1216 118<787 1177> 1490 20G<719.5 842 1478.5 1601>
LayerCount: 2
Fore
SplineSet
150 0 m 1,0,-1
 141 6 l 1,1,2
 273 409 273 409 340 724 c 0,3,4
 385 936 385 936 415 1189 c 1,5,6
 342 1183 342 1183 266 1175 c 1,7,-1
 262 1185 l 1,8,9
 342 1288 342 1288 385 1371 c 1,10,11
 408 1368 408 1368 433 1366 c 1,12,13
 434 1377 434 1377 435 1387 c 1,14,15
 606 1409 606 1409 833 1510 c 1,16,-1
 842 1504 l 1,17,18
 813 1421 813 1421 787 1339 c 1,19,20
 911 1334 911 1334 1037 1334 c 0,21,22
 1114 1334 1114 1334 1190 1336 c 1,23,24
 1193 1362 1193 1362 1194 1387 c 1,25,26
 1365 1409 1365 1409 1592 1510 c 1,27,-1
 1601 1504 l 1,28,29
 1575 1430 1575 1430 1551 1356 c 1,30,31
 1623 1362 1623 1362 1696 1371 c 1,32,-1
 1700 1361 l 1,33,34
 1622 1257 1622 1257 1577 1175 c 1,35,36
 1538 1180 1538 1180 1499 1185 c 1,37,38
 1440 981 1440 981 1396 778 c 0,39,40
 1339 509 1339 509 1307 123 c 1,41,42
 1136 101 1136 101 909 0 c 1,43,-1
 900 6 l 1,44,45
 1011 336 1011 336 1079 630 c 1,46,47
 969 656 969 656 811 656 c 0,48,49
 699 656 699 656 611 644 c 1,50,51
 567 405 567 405 548 123 c 1,52,53
 377 101 377 101 150 0 c 1,0,-1
1177 1211 m 1,54,55
 1074 1216 1074 1216 969 1216 c 0,56,57
 862 1216 862 1216 747 1211 c 1,58,59
 690 1020 690 1020 649 832 c 1,60,61
 751 814 751 814 902 814 c 0,62,63
 1022 814 1022 814 1120 827 c 1,64,65
 1155 1019 1155 1019 1177 1211 c 1,54,55
EndSplineSet
Validated: 1
EndChar

StartChar: Lslash
Encoding: 321 321 173
Width: 1174
Flags: W
HStem: 0 21G<151 285.5 955.5 1074> 60 144<567.752 959.289> 1490 20G<729.5 852>
LayerCount: 2
Fore
SplineSet
160 0 m 1,0,1
 151 6 l 1,2,3
 241 282 241 282 301 516 c 1,4,5
 253 483 253 483 204 447 c 1,6,-1
 195 453 l 1,7,8
 218 567 218 567 218 656 c 1,9,10
 282 677 282 677 345 700 c 1,11,12
 412 1017 412 1017 445 1387 c 1,13,14
 616 1409 616 1409 843 1510 c 1,15,-1
 852 1504 l 1,16,17
 738 1175 738 1175 663 848 c 1,18,19
 796 923 796 923 928 1021 c 1,20,-1
 937 1015 l 1,21,22
 914 896 914 896 914 812 c 1,23,24
 773 774 773 774 634 709 c 1,25,26
 594 495 594 495 566 214 c 1,27,28
 622 204 622 204 685 204 c 0,29,30
 955 204 955 204 1244 382 c 1,31,-1
 1248 372 l 1,32,33
 1102 164 1102 164 1046 0 c 1,34,35
 865 60 865 60 650 60 c 0,36,37
 411 60 411 60 160 0 c 1,0,1
EndSplineSet
Validated: 1
EndChar

StartChar: Eng
Encoding: 330 330 174
Width: 1459
VWidth: 0
Flags: W
HStem: -380 21G<720 861> 0 21G<141 263.5> 1490 20G<719.5 842 999.5 1195>
VStem: 1155 313<708.895 1102.14>
LayerCount: 2
Fore
SplineSet
150 0 m 1,0,-1
 141 6 l 1,1,2
 267 370 267 370 346 732 c 0,3,4
 403 1001 403 1001 435 1387 c 1,5,6
 606 1409 606 1409 833 1510 c 1,7,-1
 842 1504 l 1,8,9
 825 1450 825 1450 808 1398 c 1,10,11
 926 1463 926 1463 1073 1510 c 1,12,-1
 1083 1510 l 1,13,14
 1307 1467 1307 1467 1406 1308 c 0,15,16
 1468 1208 1468 1208 1468 1042 c 0,17,18
 1468 921 1468 921 1435 764 c 0,19,20
 1377 493 1377 493 1345 123 c 1,21,22
 1267 -19 1267 -19 1160 -116 c 0,23,24
 995 -268 995 -268 727 -380 c 1,25,-1
 720 -374 l 1,26,27
 887 -152 887 -152 975 77 c 0,28,29
 1039 247 1039 247 1125 650 c 0,30,31
 1155 790 1155 790 1155 896 c 0,32,33
 1155 1080 1155 1080 1064 1158 c 0,34,35
 960 1248 960 1248 761 1248 c 1,36,37
 686 989 686 989 643 786 c 0,38,39
 581 493 581 493 548 123 c 1,40,41
 377 101 377 101 150 0 c 1,0,-1
EndSplineSet
Validated: 1
EndChar

StartChar: Oslash
Encoding: 216 216 175
Width: 1395
VWidth: 0
Flags: W
HStem: 0 21G<655.5 848.5> 1490 20G<873 1061.5>
VStem: 223 262<503.5 847.715> 1232 262<664.52 1007>
DStem2: 637 480 939 795 0.519931 0.854208<5.74788 695.317>
LayerCount: 2
Fore
SplineSet
703 0 m 1,0,-1
 693 0 l 1,1,2
 618 29 618 29 557 64 c 1,3,4
 539 26 539 26 520 -12 c 1,5,6
 411 -12 411 -12 313 -28 c 1,7,-1
 308 -19 l 1,8,9
 368 68 368 68 426 154 c 1,10,11
 369 204 369 204 328 261 c 0,12,13
 223 412 223 412 223 595 c 0,14,15
 223 668 223 668 239 746 c 0,16,17
 297 1020 297 1020 549 1254 c 0,18,19
 732 1425 732 1425 1014 1510 c 1,20,-1
 1024 1510 l 1,21,22
 1099 1481 1099 1481 1160 1446 c 1,23,24
 1178 1484 1178 1484 1197 1522 c 1,25,26
 1285 1522 1285 1522 1404 1538 c 1,27,-1
 1409 1529 l 1,28,29
 1349 1444 1349 1444 1289 1357 c 1,30,31
 1346 1307 1346 1307 1388 1249 c 0,32,33
 1494 1099 1494 1099 1494 915 c 0,34,35
 1494 843 1494 843 1478 766 c 0,36,37
 1420 491 1420 491 1168 256 c 0,38,39
 994 92 994 92 703 0 c 1,0,-1
1107 314 m 1,40,41
 1189 435 1189 435 1218 574 c 0,42,43
 1232 641 1232 641 1232 701 c 0,44,45
 1232 900 1232 900 1079 1031 c 1,46,47
 1007 915 1007 915 939 795 c 0,48,49
 832 610 832 610 730 414 c 1,50,51
 899 314 899 314 1107 314 c 1,40,41
637 480 m 1,52,53
 718 611 718 611 792 740 c 0,54,55
 892 913 892 913 987 1096 c 1,56,57
 817 1196 817 1196 610 1196 c 1,58,59
 528 1075 528 1075 499 936 c 0,60,61
 485 870 485 870 485 810 c 0,62,63
 485 612 485 612 637 480 c 1,52,53
EndSplineSet
Validated: 1
EndChar

StartChar: OE
Encoding: 338 338 176
Width: 1849
VWidth: 0
Flags: W
HStem: 0 21G<567.5 738 821 955.5 1625.5 1744> 60 144<1237.75 1629.29> 1162 273<1664.76 1904.11> 1490 20G<873 1080.5 1433.5 1569.5 1995.5 2085>
VStem: 223 262<503.5 847.264>
LayerCount: 2
Fore
SplineSet
703 0 m 1,0,-1
 693 0 l 1,1,2
 442 98 442 98 328 261 c 0,3,4
 223 412 223 412 223 595 c 0,5,6
 223 668 223 668 239 746 c 0,7,8
 297 1020 297 1020 549 1254 c 0,9,10
 732 1425 732 1425 1014 1510 c 1,11,-1
 1024 1510 l 1,12,13
 1137 1465 1137 1465 1223 1407 c 1,14,15
 1354 1439 1354 1439 1513 1510 c 1,16,17
 1626 1435 1626 1435 1756 1435 c 0,18,19
 1910 1435 1910 1435 2081 1510 c 1,20,-1
 2085 1500 l 1,21,22
 1937 1292 1937 1292 1890 1162 c 1,23,24
 1722 1162 1722 1162 1622.5 1230 c 128,-1,25
 1523 1298 1523 1298 1503 1450 c 1,26,27
 1460 1322 1460 1322 1423 1194 c 1,28,29
 1494 1065 1494 1065 1494 914 c 0,30,31
 1494 862 1494 862 1486 807 c 1,32,33
 1662 846 1662 846 1856 966 c 1,34,-1
 1860 956 l 1,35,36
 1715 749 1715 749 1658 584 c 1,37,38
 1549 620 1549 620 1438 635 c 1,39,40
 1376 481 1376 481 1249 339 c 1,41,42
 1242 278 1242 278 1236 214 c 1,43,44
 1292 204 1292 204 1355 204 c 0,45,46
 1625 204 1625 204 1914 382 c 1,47,-1
 1918 372 l 1,48,49
 1772 164 1772 164 1716 0 c 1,50,51
 1535 60 1535 60 1320 60 c 0,52,53
 1081 60 1081 60 830 0 c 1,54,-1
 821 6 l 1,55,56
 827 27 827 27 835 48 c 1,57,58
 773 22 773 22 703 0 c 1,0,-1
1107 314 m 1,59,60
 1189 435 1189 435 1218 574 c 0,61,62
 1232 641 1232 641 1232 701 c 0,63,64
 1232 939 1232 939 1013 1080 c 0,65,66
 834 1196 834 1196 610 1196 c 1,67,68
 528 1075 528 1075 499 936 c 0,69,70
 485 869 485 869 485 809 c 0,71,72
 485 572 485 572 704 430 c 0,73,74
 883 314 883 314 1107 314 c 1,59,60
EndSplineSet
Validated: 1
EndChar

StartChar: Tbar
Encoding: 358 358 177
Width: 1253
Flags: W
HStem: 0 21G<435 557.5> 636 196<508.75 619.18 938.914 1057> 1490 20G<421 561 1408 1567>
LayerCount: 2
Fore
SplineSet
444 0 m 1,0,-1
 435 6 l 1,1,2
 555 374 555 374 622 669 c 1,3,4
 532 659 532 659 413 636 c 1,5,-1
 409 646 l 1,6,7
 489 749 489 749 533 832 c 1,8,9
 596 819 596 819 651 811 c 1,10,11
 693 1034 693 1034 720 1299 c 1,12,13
 497 1263 497 1263 251 1128 c 1,14,-1
 247 1138 l 1,15,16
 393 1346 393 1346 449 1510 c 1,17,18
 673 1457 673 1457 942 1457 c 0,19,20
 1253 1457 1253 1457 1563 1510 c 1,21,-1
 1567 1500 l 1,22,23
 1421 1292 1421 1292 1365 1128 c 1,24,25
 1248 1259 1248 1259 1066 1297 c 1,26,27
 994 1067 994 1067 936 800 c 1,28,29
 1029 809 1029 809 1152 832 c 1,30,-1
 1156 822 l 1,31,32
 1078 718 1078 718 1032 636 c 1,33,34
 968 653 968 653 909 663 c 1,35,36
 867 430 867 430 842 123 c 1,37,38
 671 101 671 101 444 0 c 1,0,-1
EndSplineSet
Validated: 1
EndChar

StartChar: tbar
Encoding: 359 359 178
Width: 810
Flags: W
HStem: 0 21G<235 341.5> 503 196<268.75 387.117 673.007 796.562> 934 196<305.188 475.089 773.065 944.562> 1490 20G<785.5 896>
LayerCount: 2
Fore
SplineSet
244 0 m 1,0,-1
 235 6 l 1,1,2
 329 293 329 293 390 536 c 1,3,4
 298 526 298 526 173 503 c 1,5,-1
 169 513 l 1,6,7
 249 616 249 616 293 699 c 1,8,9
 363 685 363 685 424 676 c 1,10,11
 429 700 429 700 434 724 c 0,12,13
 459 841 459 841 479 970 c 1,14,15
 354 961 354 961 210 934 c 1,16,-1
 206 944 l 1,17,18
 286 1047 286 1047 329 1130 c 1,19,20
 414 1113 414 1113 498 1104 c 1,21,22
 516 1240 516 1240 529 1387 c 1,23,24
 684 1417 684 1417 887 1510 c 1,25,-1
 896 1504 l 1,26,27
 825 1300 825 1300 769 1096 c 1,28,29
 899 1103 899 1103 1039 1130 c 1,30,-1
 1043 1120 l 1,31,32
 965 1016 965 1016 920 934 c 1,33,34
 831 957 831 957 736 967 c 1,35,36
 712 872 712 872 691 778 c 0,37,38
 680 725 680 725 670 666 c 1,39,40
 766 674 766 674 892 699 c 1,41,-1
 895 689 l 1,42,43
 817 585 817 585 772 503 c 1,44,45
 707 520 707 520 648 530 c 1,46,47
 621 346 621 346 602 123 c 1,48,49
 439 89 439 89 244 0 c 1,0,-1
EndSplineSet
Validated: 1
EndChar

StartChar: oslash
Encoding: 248 248 179
Width: 1120
Flags: W
HStem: 0 21G<532.5 686.5> 1110 20G<670.5 827.5>
VStem: 167 239<451 662.796> 954 239<465.893 679>
DStem2: 519 392 761 605 0.520363 0.853945<1.53893 458.409>
LayerCount: 2
Fore
SplineSet
565 0 m 1,0,-1
 555 0 l 1,1,2
 510 13 510 13 468 32 c 1,3,4
 456 4 456 4 445 -24 c 1,5,6
 354 -24 354 -24 238 -39 c 1,7,-1
 233 -30 l 1,8,9
 286 41 286 41 337 114 c 1,10,11
 306 139 306 139 279 169 c 0,12,13
 167 289 167 289 167 451 c 0,14,15
 167 505 167 505 180 565 c 0,16,17
 220 754 220 754 387 906 c 0,18,19
 546 1052 546 1052 795 1130 c 1,20,-1
 805 1130 l 1,21,22
 850 1117 850 1117 891 1098 c 1,23,24
 903 1126 903 1126 915 1154 c 1,25,26
 1005 1154 1005 1154 1122 1169 c 1,27,-1
 1128 1160 l 1,28,29
 1075 1088 1075 1088 1023 1016 c 1,30,31
 1054 991 1054 991 1081 961 c 0,32,33
 1193 841 1193 841 1193 679 c 0,34,35
 1193 625 1193 625 1180 565 c 0,36,37
 1139 373 1139 373 972 222 c 0,38,39
 808 75 808 75 565 0 c 1,0,-1
893 271 m 1,40,41
 931 339 931 339 944 399 c 0,42,43
 954 445 954 445 954 487 c 0,44,45
 954 632 954 632 840 738 c 1,46,47
 799 672 799 672 761 605 c 0,48,49
 678 461 678 461 609 328 c 1,50,51
 720 271 720 271 893 271 c 1,40,41
519 392 m 1,52,53
 571 477 571 477 622 565 c 0,54,55
 690 684 690 684 751 802 c 1,56,57
 640 859 640 859 468 859 c 1,58,59
 430 791 430 791 416 731 c 0,60,61
 406 685 406 685 406 642 c 0,62,63
 406 497 406 497 519 392 c 1,52,53
EndSplineSet
Validated: 1
EndChar

StartChar: oe
Encoding: 339 339 180
Width: 1672
Flags: W
HStem: 0 21G<474 657 1073.5 1281.5> 399 10<1226 1238.35> 1110 20G<670.5 882 1296.5 1482>
VStem: 167 239<451 662.796> 954 239<463.611 680> 1463 286<606.062 773>
LayerCount: 2
Fore
SplineSet
565 0 m 1,0,-1
 555 0 l 1,1,2
 393 46 393 46 279 169 c 0,3,4
 167 289 167 289 167 451 c 0,5,6
 167 505 167 505 180 565 c 0,7,8
 220 754 220 754 387 906 c 0,9,10
 546 1052 546 1052 795 1130 c 1,11,-1
 805 1130 l 1,12,13
 959 1085 959 1085 1067 975 c 1,14,15
 1203 1071 1203 1071 1390 1130 c 1,16,-1
 1400 1130 l 1,17,18
 1564 1082 1564 1082 1676 961 c 0,19,20
 1749 881 1749 881 1749 773 c 0,21,22
 1749 745 1749 745 1744 715 c 0,23,24
 1722 580 1722 580 1592 493 c 0,25,26
 1455 399 1455 399 1224 399 c 1,27,-1
 1226 409 l 1,28,29
 1431 470 1431 470 1459 604 c 0,30,31
 1463 625 1463 625 1463 645 c 0,32,33
 1463 718 1463 718 1401 767 c 0,34,35
 1308 839 1308 839 1155 855 c 1,36,37
 1193 775 1193 775 1193 680 c 0,38,39
 1193 625 1193 625 1180 565 c 0,40,41
 1161 475 1161 475 1114 393 c 1,42,43
 1131 377 1131 377 1149 363 c 0,44,45
 1267 271 1267 271 1458 271 c 0,46,47
 1584 271 1584 271 1681 367 c 1,48,-1
 1689 362 l 1,49,50
 1640 288 1640 288 1567 222 c 0,51,52
 1403 75 1403 75 1160 0 c 1,53,-1
 1150 0 l 1,54,55
 997 43 997 43 888 155 c 1,56,57
 749 57 749 57 565 0 c 1,0,-1
893 271 m 1,58,59
 931 339 931 339 944 399 c 0,60,61
 954 445 954 445 954 488 c 0,62,63
 954 653 954 653 806 767 c 0,64,65
 688 859 688 859 468 859 c 1,66,67
 430 791 430 791 416 731 c 0,68,69
 406 685 406 685 406 642 c 0,70,71
 406 477 406 477 554 363 c 0,72,73
 673 271 673 271 893 271 c 1,58,59
EndSplineSet
Validated: 1
EndChar

StartChar: eng
Encoding: 331 331 181
Width: 1225
Flags: W
HStem: -380 21G<566 694> 0 21G<111 232.5> 1110 20G<579.5 701 825.5 982>
VStem: 947 275<400.632 806.463>
LayerCount: 2
Fore
SplineSet
120 0 m 1,0,-1
 111 6 l 1,1,2
 218 295 218 295 270 534 c 0,3,4
 321 774 321 774 324 1007 c 1,5,6
 467 1027 467 1027 692 1130 c 1,7,-1
 701 1124 l 1,8,9
 685 1083 685 1083 669 1042 c 1,10,11
 771 1104 771 1104 880 1130 c 1,12,-1
 890 1130 l 1,13,14
 1074 1094 1074 1094 1159 955 c 0,15,16
 1222 853 1222 853 1222 716 c 0,17,18
 1222 645 1222 645 1205 565 c 0,19,20
 1161 359 1161 359 1161 123 c 1,21,22
 1085 -15 1085 -15 976 -116 c 0,23,24
 815 -267 815 -267 573 -380 c 1,25,-1
 566 -374 l 1,26,27
 731 -172 731 -172 818 78 c 0,28,29
 864 211 864 211 933 534 c 0,30,31
 947 600 947 600 947 654 c 0,32,33
 947 764 947 764 888 825 c 0,34,35
 802 915 802 915 625 915 c 1,36,37
 570 745 570 745 537 588 c 0,38,39
 488 358 488 358 488 123 c 1,40,41
 345 103 345 103 120 0 c 1,0,-1
EndSplineSet
Validated: 1
EndChar

StartChar: lslash
Encoding: 322 322 182
Width: 712
Flags: W
HStem: 0 21G<181 291> 1490 20G<731 842>
LayerCount: 2
Fore
SplineSet
190 0 m 1,0,-1
 181 6 l 1,1,2
 283 318 283 318 347 578 c 1,3,4
 255 520 255 520 155 447 c 1,5,-1
 146 453 l 1,6,7
 169 564 169 564 169 656 c 1,8,9
 280 692 280 692 382 735 c 1,10,11
 442 1024 442 1024 475 1387 c 1,12,13
 629 1417 629 1417 833 1510 c 1,14,-1
 842 1504 l 1,15,16
 734 1195 734 1195 662 888 c 1,17,18
 761 948 761 948 859 1021 c 1,19,-1
 868 1015 l 1,20,21
 845 893 845 893 845 812 c 1,22,23
 737 783 737 783 629 737 c 1,24,25
 577 480 577 480 548 123 c 1,26,27
 392 92 392 92 190 0 c 1,0,-1
EndSplineSet
Validated: 1
EndChar

StartChar: kgreenlandic
Encoding: 312 312 183
Width: 1214
Flags: W
HStem: 0 21G<111 230 868 985> 1110 20G<582 701 951 1081>
LayerCount: 2
Fore
SplineSet
120 0 m 1,0,1
 111 6 l 1,2,3
 221 303 221 303 270 534 c 0,4,5
 321 774 321 774 324 1007 c 1,6,7
 472 1029 472 1029 692 1130 c 1,8,-1
 701 1124 l 1,9,10
 606 878 606 878 553 657 c 1,11,12
 838 868 838 868 1064 1130 c 1,13,-1
 1081 1129 l 1,14,15
 1216 1052 1216 1052 1326 1023 c 1,16,17
 1091 907 1091 907 890 761 c 1,18,19
 977 450 977 450 1235 123 c 1,20,21
 1093 102 1093 102 877 0 c 1,22,-1
 868 6 l 1,23,24
 784 370 784 370 649 597 c 1,25,26
 575 534 575 534 515 472 c 1,27,28
 488 303 488 303 488 123 c 1,29,30
 340 101 340 101 120 0 c 1,0,1
EndSplineSet
Validated: 1
EndChar

StartChar: hbar
Encoding: 295 295 184
Width: 1225
Flags: W
HStem: 0 21G<111 230 774 893> 1110 20G<819.5 982> 1175 196<741.845 1020.56> 1216 118<736 991.621> 1490 20G<673 792>
VStem: 947 275<408.594 806.463>
LayerCount: 2
Fore
SplineSet
120 0 m 1,0,-1
 111 6 l 1,1,2
 243 409 243 409 310 724 c 0,3,4
 356 939 356 939 385 1195 c 1,5,6
 327 1187 327 1187 266 1175 c 1,7,-1
 262 1185 l 1,8,9
 342 1288 342 1288 385 1371 c 1,10,11
 394 1369 394 1369 403 1368 c 1,12,13
 404 1378 404 1378 405 1387 c 1,14,15
 563 1409 563 1409 783 1510 c 1,16,-1
 792 1504 l 1,17,18
 763 1419 763 1419 736 1334 c 1,19,20
 923 1334 923 1334 1115 1371 c 1,21,-1
 1119 1361 l 1,22,23
 1041 1257 1041 1257 996 1175 c 1,24,25
 856 1212 856 1212 699 1216 c 1,26,27
 671 1122 671 1122 646 1027 c 1,28,29
 759 1100 759 1100 880 1130 c 1,30,-1
 890 1130 l 1,31,32
 1074 1094 1074 1094 1159 955 c 0,33,34
 1222 853 1222 853 1222 716 c 0,35,36
 1222 645 1222 645 1205 565 c 0,37,38
 1161 358 1161 358 1161 123 c 1,39,40
 1003 101 1003 101 783 0 c 1,41,-1
 774 6 l 1,42,43
 881 295 881 295 933 534 c 0,44,45
 947 600 947 600 947 654 c 0,46,47
 947 764 947 764 888 825 c 0,48,49
 802 915 802 915 618 915 c 1,50,51
 602 847 602 847 587 778 c 0,52,53
 530 509 530 509 498 123 c 1,54,55
 340 101 340 101 120 0 c 1,0,-1
EndSplineSet
Validated: 1
EndChar

StartChar: longs
Encoding: 383 383 185
Width: 1189
Flags: W
HStem: 0 21G<228 347> 590 196<232.188 407.057> 1490 20G<1074 1275>
LayerCount: 2
Fore
SplineSet
237 0 m 1,0,-1
 228 6 l 1,1,2
 338 290 338 290 392 542 c 0,3,4
 404 598 404 598 411 633 c 1,5,6
 285 628 285 628 136 590 c 1,7,-1
 133 600 l 1,8,9
 213 703 213 703 256 786 c 1,10,11
 330 765 330 765 425 757 c 1,12,13
 434 825 434 825 434 884 c 0,14,15
 434 922 434 922 430 957 c 1,16,17
 615 1162 615 1162 774 1286 c 0,18,19
 965 1434 965 1434 1183 1510 c 1,20,-1
 1193 1510 l 1,21,22
 1357 1462 1357 1462 1469 1341 c 1,23,-1
 1464 1330 l 1,24,25
 1310 1303 1310 1303 1100 1199 c 1,26,27
 997 1239 997 1239 855 1239 c 1,28,29
 841 1206 841 1206 785 1052 c 0,30,31
 719 873 719 873 679 686 c 0,32,33
 615 387 615 387 605 123 c 1,34,35
 457 101 457 101 237 0 c 1,0,-1
EndSplineSet
Validated: 1
EndChar

StartChar: florin
Encoding: 402 402 186
Width: 1105
Flags: W
HStem: -380 21G<-74 53> 590 196<617.438 929> 631 118<611 899.277> 1490 20G<990 1191>
LayerCount: 2
Fore
SplineSet
-67 -380 m 1,0,-1
 -74 -374 l 1,1,2
 98 -164 98 -164 182 78 c 0,3,4
 253 282 253 282 308 542 c 0,5,6
 316 578 316 578 322 613 c 1,7,8
 251 604 251 604 174 590 c 1,9,-1
 171 600 l 1,10,11
 251 703 251 703 294 786 c 1,12,13
 319 781 319 781 343 777 c 1,14,15
 348 835 348 835 348 890 c 0,16,17
 348 924 348 924 346 957 c 1,18,19
 531 1162 531 1162 690 1286 c 0,20,21
 881 1434 881 1434 1099 1510 c 1,22,-1
 1109 1510 l 1,23,24
 1273 1462 1273 1462 1385 1341 c 1,25,-1
 1380 1330 l 1,26,27
 1226 1303 1226 1303 1016 1199 c 1,28,29
 913 1239 913 1239 771 1239 c 1,30,31
 733 1150 733 1150 701 1052 c 0,32,33
 651 900 651 900 611 749 c 1,34,35
 817 749 817 749 1024 786 c 1,36,-1
 1028 776 l 1,37,38
 950 672 950 672 904 590 c 1,39,40
 753 630 753 630 583 631 c 1,41,42
 521 360 521 360 521 123 c 1,43,44
 445 -15 445 -15 336 -116 c 0,45,46
 173 -268 173 -268 -67 -380 c 1,0,-1
EndSplineSet
Validated: 1
EndChar

StartChar: dcroat
Encoding: 273 273 187
Width: 1193
Flags: W
HStem: 0 21G<474 619.5 742 858> 1110 20G<670.5 863> 1175 196<724.188 1013.58> 1216 120<752.499 1019> 1490 20G<1286 1403>
VStem: 167 239<370 664.61>
DStem2: 875 411 1198 778 0.172612 0.98499<-141.463 127.803 537.214 817.113>
LayerCount: 2
Fore
SplineSet
875 411 m 0,0,1
 890 480 890 480 890 540 c 0,2,3
 890 660 890 660 831 742 c 0,4,5
 740 870 740 870 470 870 c 1,6,7
 432 802 432 802 416 731 c 0,8,9
 406 685 406 685 406 642 c 0,10,11
 406 477 406 477 554 363 c 0,12,13
 672 272 672 272 835 272 c 1,14,15
 861 344 861 344 875 411 c 0,0,1
565 0 m 1,16,-1
 555 0 l 1,17,18
 393 46 393 46 279 169 c 0,19,20
 167 289 167 289 167 451 c 0,21,22
 167 505 167 505 180 565 c 0,23,24
 220 754 220 754 387 906 c 0,25,26
 546 1052 546 1052 795 1130 c 1,27,-1
 805 1130 l 1,28,29
 921 1076 921 1076 980 938 c 1,30,31
 1003 1081 1003 1081 1019 1216 c 1,32,33
 846 1215 846 1215 629 1175 c 1,34,-1
 625 1185 l 1,35,36
 705 1288 705 1288 748 1371 c 1,37,38
 892 1342 892 1342 1032 1336 c 1,39,40
 1035 1362 1035 1362 1036 1387 c 1,41,42
 1178 1411 1178 1411 1394 1510 c 1,43,-1
 1403 1504 l 1,44,45
 1377 1428 1377 1428 1352 1352 c 1,46,47
 1410 1360 1410 1360 1468 1371 c 1,48,-1
 1472 1361 l 1,49,50
 1394 1257 1394 1257 1349 1175 c 1,51,52
 1325 1181 1325 1181 1301 1186 c 1,53,54
 1242 982 1242 982 1198 778 c 0,55,56
 1141 509 1141 509 1109 123 c 1,57,58
 965 98 965 98 751 0 c 1,59,-1
 742 6 l 1,60,61
 754 44 754 44 766 82 c 1,62,63
 674 34 674 34 565 0 c 1,16,-1
EndSplineSet
Validated: 1
EndChar

StartChar: ae
Encoding: 230 230 188
Width: 1709
Flags: W
HStem: 0 21G<410 557.5 686 774 1129 1318.5> 399 10<1263 1275.35> 721 10<653.788 666> 1110 20G<686.5 894 1322.5 1519>
VStem: 142 290<348.582 519.876> 859 275<430.387 807.414> 1500 286<606.062 773>
LayerCount: 2
Fore
SplineSet
502 0 m 1,0,-1
 492 0 l 1,1,2
 328 48 328 48 216 169 c 0,3,4
 142 250 142 250 142 355 c 0,5,6
 142 390 142 390 150 428 c 0,7,8
 178 554 178 554 300 637 c 0,9,10
 437 731 437 731 668 731 c 1,11,-1
 666 721 l 1,12,13
 468 662 468 662 437 511 c 0,14,15
 432 490 432 490 432 469 c 0,16,17
 432 385 432 385 508 315 c 0,18,19
 615 216 615 216 759 215 c 1,20,21
 813 384 813 384 845 534 c 0,22,23
 859 600 859 600 859 654 c 0,24,25
 859 764 859 764 800 825 c 0,26,27
 714 915 714 915 559 915 c 0,28,29
 480 915 480 915 398 884 c 1,30,-1
 393 892 l 1,31,32
 581 1078 581 1078 792 1130 c 1,33,-1
 802 1130 l 1,34,35
 986 1094 986 1094 1073 952 c 1,36,37
 1218 1065 1218 1065 1427 1130 c 1,38,-1
 1437 1130 l 1,39,40
 1601 1082 1601 1082 1713 961 c 0,41,42
 1786 881 1786 881 1786 773 c 0,43,44
 1786 745 1786 745 1781 715 c 0,45,46
 1759 580 1759 580 1629 493 c 0,47,48
 1492 399 1492 399 1261 399 c 1,49,-1
 1263 409 l 1,50,51
 1468 470 1468 470 1496 604 c 0,52,53
 1500 625 1500 625 1500 645 c 0,54,55
 1500 718 1500 718 1438 767 c 0,56,57
 1324 856 1324 856 1114 859 c 1,58,59
 1134 793 1134 793 1134 716 c 0,60,61
 1134 645 1134 645 1117 565 c 0,62,63
 1105 510 1105 510 1097 455 c 1,64,65
 1132 406 1132 406 1186 363 c 0,66,67
 1304 271 1304 271 1495 271 c 0,68,69
 1621 271 1621 271 1718 367 c 1,70,-1
 1726 362 l 1,71,72
 1677 288 1677 288 1604 222 c 0,73,74
 1440 75 1440 75 1197 0 c 1,75,-1
 1187 0 l 1,76,77
 1071 33 1071 33 980 105 c 1,78,79
 853 73 853 73 695 0 c 1,80,-1
 686 6 l 1,81,82
 702 49 702 49 717 91 c 1,83,84
 613 27 613 27 502 0 c 1,0,-1
EndSplineSet
Validated: 1
EndChar

StartChar: eth
Encoding: 240 240 189
Width: 1122
Flags: W
HStem: 0 21G<474 684> 1490 20G<796 920 1247.5 1322>
VStem: 167 239<451 662.015> 985 239<575.712 938.324>
LayerCount: 2
Fore
SplineSet
565 0 m 1,0,-1
 555 0 l 1,1,2
 393 46 393 46 279 169 c 0,3,4
 167 289 167 289 167 451 c 0,5,6
 167 505 167 505 180 565 c 0,7,8
 220 752 220 752 387 906 c 0,9,10
 453 967 453 967 535 1016 c 1,11,-1
 541 1009 l 1,12,13
 447 878 447 878 416 731 c 0,14,15
 406 685 406 685 406 643 c 0,16,17
 406 478 406 478 554 363 c 0,18,19
 672 271 672 271 893 271 c 1,20,21
 941 383 941 383 965 499 c 0,22,23
 985 593 985 593 985 682 c 0,24,25
 985 871 985 871 896 1039 c 0,26,27
 857 1113 857 1113 802 1180 c 1,28,29
 671 1128 671 1128 525 1050 c 1,30,-1
 518 1057 l 1,31,32
 557 1172 557 1172 576 1260 c 1,33,34
 643 1270 643 1270 708 1284 c 1,35,36
 655 1335 655 1335 593 1382 c 1,37,38
 716 1460 716 1460 876 1510 c 1,39,-1
 886 1510 l 1,40,41
 954 1466 954 1466 1033 1380 c 1,42,43
 1180 1436 1180 1436 1315 1510 c 1,44,-1
 1322 1503 l 1,45,46
 1282 1386 1282 1386 1264 1300 c 1,47,48
 1192 1294 1192 1294 1106 1274 c 1,49,50
 1117 1259 1117 1259 1126 1242 c 0,51,52
 1224 1062 1224 1062 1224 857 c 0,53,54
 1224 767 1224 767 1205 671 c 0,55,56
 1154 414 1154 414 952 221 c 0,57,58
 803 81 803 81 565 0 c 1,0,-1
EndSplineSet
Validated: 1
EndChar

StartChar: thorn
Encoding: 254 254 190
Width: 1193
Flags: W
HStem: -380 21G<31 143.5> 0 21G<570 763> 1110 20G<807.5 959> 1490 20G<669.5 782>
VStem: 1027 239<467.204 679>
DStem2: 277 551 558 719 0.162759 0.986666<-566.174 352.802>
LayerCount: 2
Fore
SplineSet
638 0 m 1,0,1
 628 0 l 1,2,3
 512 54 512 54 453 192 c 1,4,5
 414 -43 414 -43 397 -257 c 1,6,7
 248 -284 248 -284 39 -380 c 1,8,-1
 31 -374 l 1,9,10
 185 114 185 114 277 551 c 0,11,12
 369 985 369 985 405 1387 c 1,13,14
 566 1415 566 1415 773 1510 c 1,15,-1
 782 1504 l 1,16,17
 701 1271 701 1271 639 1036 c 1,18,19
 747 1091 747 1091 868 1130 c 1,20,-1
 878 1130 l 1,21,22
 1040 1084 1040 1084 1154 961 c 0,23,24
 1266 841 1266 841 1266 679 c 0,25,26
 1266 625 1266 625 1253 565 c 0,27,28
 1213 376 1213 376 1047 224 c 0,29,30
 888 78 888 78 638 0 c 1,0,1
558 719 m 0,31,32
 543 650 543 650 543 590 c 0,33,34
 543 470 543 470 602 388 c 0,35,36
 693 260 693 260 963 260 c 1,37,38
 1001 328 1001 328 1017 399 c 0,39,40
 1027 445 1027 445 1027 488 c 0,41,42
 1027 653 1027 653 879 767 c 0,43,44
 761 858 761 858 598 858 c 1,45,46
 572 786 572 786 558 719 c 0,31,32
EndSplineSet
Validated: 1
EndChar

StartChar: Thorn
Encoding: 222 222 191
Width: 1371
Flags: W
HStem: 0 21G<185 307.5> 178 170<617.219 926.874> 1000 328<827 1015.62> 1490 20G<763.5 886>
VStem: 1143 314<614.491 883.68>
LayerCount: 2
Fore
SplineSet
194 0 m 1,0,1
 185 6 l 1,2,3
 317 409 317 409 384 724 c 0,4,5
 402 809 402 809 417 900 c 1,6,7
 335 856 335 856 255 794 c 1,8,-1
 251 803 l 1,9,10
 390 1046 390 1046 436 1220 c 1,11,12
 449 1226 449 1226 464 1232 c 1,13,14
 472 1308 472 1308 479 1387 c 1,15,16
 650 1409 650 1409 877 1510 c 1,17,-1
 886 1504 l 1,18,19
 855 1415 855 1415 827 1325 c 1,20,21
 862 1328 862 1328 895 1328 c 0,22,23
 1179 1328 1179 1328 1332 1171 c 0,24,25
 1457 1042 1457 1042 1457 848 c 0,26,27
 1457 799 1457 799 1449 745 c 0,28,29
 1413 503 1413 503 1192 332 c 0,30,31
 994 179 994 179 708 178 c 0,32,33
 652 178 652 178 598 188 c 1,34,35
 595 156 595 156 592 123 c 1,36,37
 421 101 421 101 194 0 c 1,0,1
616 367 m 1,38,39
 674 348 674 348 744 348 c 0,40,41
 914 348 914 348 1033 475 c 0,42,43
 1109 556 1109 556 1135 670 c 0,44,45
 1143 705 1143 705 1143 742 c 0,46,47
 1143 826 1143 826 1093 892 c 0,48,49
 1012 1000 1012 1000 803 1000 c 0,50,51
 768 1000 768 1000 733 997 c 1,52,53
 705 888 705 888 681 778 c 0,54,55
 643 599 643 599 616 367 c 1,38,39
EndSplineSet
Validated: 1
EndChar

StartChar: germandbls
Encoding: 223 223 192
Width: 1237
VWidth: 0
Flags: W
HStem: 0 164<608.18 800.932> 1489 20G<955.5 1119>
VStem: 975 293<371.648 599.99> 1060 261<1011.22 1178>
LayerCount: 2
Fore
SplineSet
120 -1 m 1,0,1
 111 5 l 1,2,3
 221 289 221 289 275 541 c 0,4,5
 314 726 314 726 314 902 c 0,6,7
 314 929 314 929 313 956 c 1,8,9
 498 1161 498 1161 657 1285 c 0,10,11
 865 1446 865 1446 1046 1509 c 1,12,-1
 1056 1509 l 1,13,14
 1182 1456 1182 1456 1248 1374 c 0,15,16
 1321 1285 1321 1285 1321 1178 c 0,17,18
 1321 1143 1321 1143 1313 1106 c 0,19,20
 1281 956 1281 956 1109 840 c 1,21,22
 1157 810 1157 810 1193 767 c 0,23,24
 1268 679 1268 679 1268 565 c 0,25,26
 1268 525 1268 525 1259 481 c 0,27,28
 1223 312 1223 312 1092 193 c 0,29,30
 879 0 879 0 532 0 c 1,31,-1
 528 10 l 1,32,33
 598 95 598 95 634 164 c 1,34,35
 772 171 772 171 862 250 c 0,36,37
 947 326 947 326 969 426 c 0,38,39
 975 454 975 454 975 480 c 0,40,41
 975 646 975 646 724 708 c 1,42,-1
 727 718 l 1,43,44
 869 775 869 775 958 851 c 0,45,46
 1033 914 1033 914 1055 1016 c 0,47,48
 1060 1041 1060 1041 1060 1063 c 0,49,50
 1060 1145 1060 1145 986 1190 c 0,51,52
 906 1238 906 1238 738 1238 c 1,53,54
 724 1205 724 1205 667 1051 c 0,55,56
 601 872 601 872 562 685 c 0,57,58
 498 386 498 386 488 122 c 1,59,60
 340 100 340 100 120 -1 c 1,0,1
EndSplineSet
Validated: 1
EndChar

StartChar: uni1E02
Encoding: 7682 7682 193
Width: 1387
VWidth: 0
Flags: W
HStem: 0 164<591.516 936.026> 662 8<805 811.656> 1182 328<647.64 1019.06>
VStem: 843 388<1701.37 1875.95> 1080 297<970 1200> 1119 306<395.369 686.732>
LayerCount: 2
Fore
SplineSet
1076 1996 m 1,0,-1
 1086 1996 l 1,1,2
 1149 1973 1149 1973 1196 1920 c 0,3,4
 1231 1881 1231 1881 1231 1828 c 0,5,6
 1231 1810 1231 1810 1226 1788 c 0,7,8
 1209 1709 1209 1709 1140 1656 c 128,-1,9
 1071 1603 1071 1603 998 1580 c 1,10,-1
 988 1580 l 1,11,12
 911 1611 911 1611 874 1655 c 0,13,14
 843 1692 843 1692 843 1744 c 0,15,16
 843 1765 843 1765 848 1788 c 0,17,18
 865 1869 865 1869 931 1921 c 0,19,20
 985 1965 985 1965 1076 1996 c 1,0,-1
198 0 m 1,21,-1
 189 6 l 1,22,23
 283 231 283 231 335 474 c 0,24,25
 378 676 378 676 378 845 c 0,26,27
 378 866 378 866 377 887 c 1,28,29
 548 909 548 909 775 1010 c 1,30,-1
 783 1004 l 1,31,32
 687 788 687 788 632 528 c 0,33,34
 593 344 593 344 590 189 c 1,35,36
 673 164 673 164 762 164 c 0,37,38
 909 164 909 164 1016 268 c 0,39,40
 1092 341 1092 341 1113 443 c 0,41,42
 1119 472 1119 472 1119 497 c 0,43,44
 1119 568 1119 568 1073 617 c 0,45,46
 1023 670 1023 670 915 670 c 0,47,48
 860 670 860 670 810 662 c 1,49,-1
 805 670 l 1,50,51
 912 730 912 730 987 812 c 0,52,53
 1059 891 1059 891 1075 970 c 0,54,55
 1080 996 1080 996 1080 1019 c 0,56,57
 1080 1085 1080 1085 1036 1126 c 0,58,59
 976 1182 976 1182 841 1182 c 0,60,61
 598 1182 598 1182 293 976 c 1,62,-1
 289 985 l 1,63,64
 428 1228 428 1228 475 1402 c 1,65,66
 716 1510 716 1510 934 1510 c 0,67,68
 1185 1510 1185 1510 1296 1394 c 0,69,70
 1377 1308 1377 1308 1377 1200 c 0,71,72
 1377 1168 1377 1168 1370 1134 c 0,73,74
 1348 1031 1348 1031 1262 946 c 0,75,76
 1246 930 1246 930 1225 914 c 1,77,78
 1285 889 1285 889 1333 843 c 0,79,80
 1425 758 1425 758 1425 614 c 0,81,82
 1425 559 1425 559 1416 512 c 0,83,84
 1377 298 1377 298 1184 151 c 0,85,86
 986 0 986 0 726 0 c 0,87,88
 645 0 645 0 539 19 c 0,89,90
 449 35 449 35 404 35 c 0,91,92
 307 35 307 35 198 0 c 1,21,-1
EndSplineSet
Validated: 1
EndChar

StartChar: uni1E03
Encoding: 7683 7683 194
Width: 1196
Flags: W
HStem: 0 21G<550 762.5> 1110 20G<803 963> 1490 20G<653 772>
VStem: 253 290<410.831 765.853> 462 388<1701.37 1875.95> 1030 239<465.893 679>
LayerCount: 2
Fore
SplineSet
695 1996 m 1,0,-1
 705 1996 l 1,1,2
 768 1973 768 1973 815 1920 c 0,3,4
 850 1881 850 1881 850 1828 c 0,5,6
 850 1810 850 1810 845 1788 c 0,7,8
 828 1709 828 1709 759 1656 c 128,-1,9
 690 1603 690 1603 617 1580 c 1,10,-1
 607 1580 l 1,11,12
 530 1611 530 1611 493 1655 c 0,13,14
 462 1692 462 1692 462 1744 c 0,15,16
 462 1765 462 1765 467 1788 c 0,17,18
 484 1869 484 1869 550 1921 c 0,19,20
 604 1965 604 1965 695 1996 c 1,0,-1
641 0 m 1,21,-1
 631 0 l 1,22,23
 469 46 469 46 355 169 c 0,24,25
 253 279 253 279 253 464 c 0,26,27
 253 549 253 549 274 649 c 0,28,29
 352 1017 352 1017 385 1387 c 1,30,31
 543 1409 543 1409 763 1510 c 1,32,-1
 772 1504 l 1,33,34
 689 1266 689 1266 626 1025 c 1,35,36
 735 1088 735 1088 871 1130 c 1,37,-1
 881 1130 l 1,38,39
 1045 1082 1045 1082 1157 961 c 0,40,41
 1269 841 1269 841 1269 679 c 0,42,43
 1269 625 1269 625 1256 565 c 0,44,45
 1215 373 1215 373 1048 222 c 0,46,47
 884 75 884 75 641 0 c 1,21,-1
585 858 m 1,48,49
 574 809 574 809 564 760 c 0,50,51
 543 663 543 663 543 587 c 0,52,53
 543 431 543 431 630 363 c 0,54,55
 748 271 748 271 969 271 c 1,56,57
 1007 339 1007 339 1020 399 c 0,58,59
 1030 445 1030 445 1030 488 c 0,60,61
 1030 653 1030 653 882 767 c 0,62,63
 775 850 775 850 585 858 c 1,48,49
EndSplineSet
Validated: 1
EndChar

StartChar: uni1E0A
Encoding: 7690 7690 195
Width: 1461
VWidth: 0
Flags: W
HStem: 0 164<592.399 906.388> 1182 328<647.358 1061.62>
VStem: 886 388<1701.37 1875.95> 1226 334<646.605 1019.54>
LayerCount: 2
Fore
SplineSet
1119 1996 m 1,0,-1
 1129 1996 l 1,1,2
 1192 1973 1192 1973 1239 1920 c 0,3,4
 1274 1881 1274 1881 1274 1828 c 0,5,6
 1274 1810 1274 1810 1269 1788 c 0,7,8
 1252 1709 1252 1709 1183 1656 c 128,-1,9
 1114 1603 1114 1603 1041 1580 c 1,10,-1
 1031 1580 l 1,11,12
 954 1611 954 1611 917 1655 c 0,13,14
 886 1692 886 1692 886 1744 c 0,15,16
 886 1765 886 1765 891 1788 c 0,17,18
 908 1869 908 1869 974 1921 c 0,19,20
 1028 1965 1028 1965 1119 1996 c 1,0,-1
198 0 m 1,21,-1
 189 6 l 1,22,23
 283 231 283 231 335 474 c 0,24,25
 378 676 378 676 378 845 c 0,26,27
 378 866 378 866 377 887 c 1,28,29
 548 909 548 909 775 1010 c 1,30,-1
 783 1004 l 1,31,32
 687 788 687 788 632 528 c 0,33,34
 593 344 593 344 590 189 c 1,35,36
 673 164 673 164 743 164 c 0,37,38
 927 164 927 164 1069 358 c 0,39,40
 1171 497 1171 497 1211 687 c 0,41,42
 1226 760 1226 760 1226 824 c 0,43,44
 1226 943 1226 943 1174 1034 c 0,45,46
 1087 1182 1087 1182 841 1182 c 0,47,48
 560 1182 560 1182 293 976 c 1,49,-1
 289 985 l 1,50,51
 428 1228 428 1228 475 1402 c 1,52,53
 716 1510 716 1510 934 1510 c 0,54,55
 1262 1510 1262 1510 1432 1319 c 0,56,57
 1560 1175 1560 1175 1560 942 c 0,58,59
 1560 862 1560 862 1545 772 c 0,60,61
 1500 499 1500 499 1308 283 c 0,62,63
 1058 0 1058 0 707 0 c 0,64,65
 645 0 645 0 539 19 c 0,66,67
 449 35 449 35 404 35 c 0,68,69
 307 35 307 35 198 0 c 1,21,-1
EndSplineSet
Validated: 1
EndChar

StartChar: uni1E0B
Encoding: 7691 7691 196
Width: 1193
Flags: W
HStem: 0 21G<474 619.5 742 855> 1110 20G<670.5 863> 1490 20G<1297.5 1403>
VStem: 167 239<451 662.796> 1087 388<1701.37 1875.95>
LayerCount: 2
Fore
SplineSet
1320 1996 m 1,0,-1
 1330 1996 l 1,1,2
 1393 1973 1393 1973 1440 1920 c 0,3,4
 1475 1881 1475 1881 1475 1828 c 0,5,6
 1475 1810 1475 1810 1470 1788 c 0,7,8
 1453 1709 1453 1709 1384 1656 c 128,-1,9
 1315 1603 1315 1603 1242 1580 c 1,10,-1
 1232 1580 l 1,11,12
 1155 1611 1155 1611 1118 1655 c 0,13,14
 1087 1692 1087 1692 1087 1744 c 0,15,16
 1087 1765 1087 1765 1092 1788 c 0,17,18
 1109 1869 1109 1869 1175 1921 c 0,19,20
 1229 1965 1229 1965 1320 1996 c 1,0,-1
565 0 m 1,21,-1
 555 0 l 1,22,23
 393 46 393 46 279 169 c 0,24,25
 167 289 167 289 167 451 c 0,26,27
 167 505 167 505 180 565 c 0,28,29
 220 754 220 754 387 906 c 0,30,31
 546 1052 546 1052 795 1130 c 1,32,-1
 805 1130 l 1,33,34
 921 1076 921 1076 980 938 c 1,35,36
 1019 1173 1019 1173 1036 1387 c 1,37,38
 1201 1421 1201 1421 1394 1510 c 1,39,-1
 1403 1504 l 1,40,41
 1277 1140 1277 1140 1198 778 c 0,42,43
 1141 509 1141 509 1109 123 c 1,44,45
 959 95 959 95 751 0 c 1,46,-1
 742 6 l 1,47,48
 754 44 754 44 766 82 c 1,49,50
 674 34 674 34 565 0 c 1,21,-1
875 411 m 0,51,52
 890 480 890 480 890 540 c 0,53,54
 890 660 890 660 831 742 c 0,55,56
 740 870 740 870 470 870 c 1,57,58
 432 802 432 802 416 731 c 0,59,60
 406 685 406 685 406 642 c 0,61,62
 406 477 406 477 554 363 c 0,63,64
 672 272 672 272 835 272 c 1,65,66
 861 344 861 344 875 411 c 0,51,52
EndSplineSet
Validated: 1
EndChar

StartChar: uni1E1E
Encoding: 7710 7710 197
Width: 1096
Flags: W
HStem: 0 21G<141 263.5> 644 144<639 897.25> 1162 273<984.758 1224.11> 1490 20G<719.5 889.5 1315.5 1405>
VStem: 787 388<1701.37 1875.95>
LayerCount: 2
Fore
SplineSet
1020 1996 m 1,0,-1
 1030 1996 l 1,1,2
 1093 1973 1093 1973 1140 1920 c 0,3,4
 1175 1881 1175 1881 1175 1828 c 0,5,6
 1175 1810 1175 1810 1170 1788 c 0,7,8
 1153 1709 1153 1709 1084 1656 c 128,-1,9
 1015 1603 1015 1603 942 1580 c 1,10,-1
 932 1580 l 1,11,12
 855 1611 855 1611 818 1655 c 0,13,14
 787 1692 787 1692 787 1744 c 0,15,16
 787 1765 787 1765 792 1788 c 0,17,18
 809 1869 809 1869 875 1921 c 0,19,20
 929 1965 929 1965 1020 1996 c 1,0,-1
150 0 m 1,21,-1
 141 6 l 1,22,23
 273 409 273 409 340 724 c 0,24,25
 402 1017 402 1017 435 1387 c 1,26,27
 606 1409 606 1409 833 1510 c 1,28,29
 946 1435 946 1435 1076 1435 c 0,30,31
 1230 1435 1230 1435 1401 1510 c 1,32,-1
 1405 1500 l 1,33,34
 1257 1292 1257 1292 1210 1162 c 1,35,36
 1042 1162 1042 1162 942.5 1230 c 128,-1,37
 843 1298 843 1298 823 1450 c 1,38,39
 711 1118 711 1118 639 788 c 1,40,41
 887 788 887 788 1176 966 c 1,42,-1
 1180 956 l 1,43,44
 1035 749 1035 749 978 584 c 1,45,46
 797 644 797 644 612 644 c 1,47,48
 572 414 572 414 548 123 c 1,49,50
 377 101 377 101 150 0 c 1,21,-1
EndSplineSet
Validated: 1
EndChar

StartChar: uni1E1F
Encoding: 7711 7711 198
Width: 1092
Flags: W
HStem: 0 21G<131 250> 590 196<604.438 916> 631 118<598 886.277> 1490 20G<977 1178>
VStem: 814 388<1701.37 1875.95>
LayerCount: 2
Fore
SplineSet
1047 1996 m 1,0,-1
 1057 1996 l 1,1,2
 1120 1973 1120 1973 1167 1920 c 0,3,4
 1202 1881 1202 1881 1202 1828 c 0,5,6
 1202 1810 1202 1810 1197 1788 c 0,7,8
 1180 1709 1180 1709 1111 1656 c 128,-1,9
 1042 1603 1042 1603 969 1580 c 1,10,-1
 959 1580 l 1,11,12
 882 1611 882 1611 845 1655 c 0,13,14
 814 1692 814 1692 814 1744 c 0,15,16
 814 1765 814 1765 819 1788 c 0,17,18
 836 1869 836 1869 902 1921 c 0,19,20
 956 1965 956 1965 1047 1996 c 1,0,-1
140 0 m 1,21,-1
 131 6 l 1,22,23
 241 290 241 290 295 542 c 0,24,25
 303 578 303 578 309 613 c 1,26,27
 238 604 238 604 161 590 c 1,28,-1
 158 600 l 1,29,30
 238 703 238 703 281 786 c 1,31,32
 306 781 306 781 330 777 c 1,33,34
 335 835 335 835 335 890 c 0,35,36
 335 924 335 924 333 957 c 1,37,38
 518 1162 518 1162 677 1286 c 0,39,40
 868 1434 868 1434 1086 1510 c 1,41,-1
 1096 1510 l 1,42,43
 1260 1462 1260 1462 1372 1341 c 1,44,-1
 1367 1330 l 1,45,46
 1213 1303 1213 1303 1003 1199 c 1,47,48
 900 1239 900 1239 758 1239 c 1,49,50
 720 1150 720 1150 688 1052 c 0,51,52
 638 900 638 900 598 749 c 1,53,54
 804 749 804 749 1011 786 c 1,55,-1
 1015 776 l 1,56,57
 937 672 937 672 891 590 c 1,58,59
 740 630 740 630 570 631 c 1,60,61
 514 369 514 369 508 123 c 1,62,63
 360 101 360 101 140 0 c 1,21,-1
EndSplineSet
Validated: 1
EndChar

StartChar: uni1E40
Encoding: 7744 7744 199
Width: 1745
Flags: W
HStem: 0 21G<11 84 637 764 1369 1493> 1490 20G<679 795 1713.5 1836>
VStem: 1053 388<1701.37 1875.95> 1479 269<406.448 950.952>
LayerCount: 2
Fore
SplineSet
1286 1996 m 1,0,-1
 1296 1996 l 1,1,2
 1359 1973 1359 1973 1406 1920 c 0,3,4
 1441 1881 1441 1881 1441 1828 c 0,5,6
 1441 1810 1441 1810 1436 1788 c 0,7,8
 1419 1709 1419 1709 1350 1656 c 128,-1,9
 1281 1603 1281 1603 1208 1580 c 1,10,-1
 1198 1580 l 1,11,12
 1121 1611 1121 1611 1084 1655 c 0,13,14
 1053 1692 1053 1692 1053 1744 c 0,15,16
 1053 1765 1053 1765 1058 1788 c 0,17,18
 1075 1869 1075 1869 1141 1921 c 0,19,20
 1195 1965 1195 1965 1286 1996 c 1,0,-1
20 0 m 1,21,-1
 11 6 l 1,22,23
 311 673 311 673 474 1237 c 1,24,25
 453 1317 453 1317 413 1387 c 1,26,27
 572 1414 572 1414 786 1510 c 1,28,-1
 795 1504 l 1,29,30
 816 785 816 785 925 304 c 1,31,32
 1229 779 1229 779 1461 1292 c 1,33,34
 1455 1350 1455 1350 1429 1387 c 1,35,36
 1600 1409 1600 1409 1827 1510 c 1,37,-1
 1836 1504 l 1,38,39
 1748 971 1748 971 1748 485 c 0,40,41
 1748 300 1748 300 1761 123 c 1,42,43
 1608 103 1608 103 1378 0 c 1,44,-1
 1369 6 l 1,45,46
 1470 508 1470 508 1479 965 c 1,47,48
 1254 608 1254 608 1019 123 c 1,49,50
 882 105 882 105 646 0 c 1,51,-1
 637 6 l 1,52,53
 621 487 621 487 539 918 c 1,54,55
 372 533 372 533 262 90 c 1,56,57
 148 57 148 57 20 0 c 1,21,-1
EndSplineSet
Validated: 1
EndChar

